<?xml version="1.0" encoding="UTF-8"?>
<svg width="210px" height="36px" viewBox="0 0 210 36" version="1.1" xmlns="http://www.w3.org/2000/svg" xmlns:xlink="http://www.w3.org/1999/xlink">
    <!-- Generator: Sketch 51.3 (57544) - http://www.bohemiancoding.com/sketch -->
    <title>LOGO</title>
    <desc>Created with Sketch.</desc>
    <defs></defs>
    <g id="Navigation" stroke="none" stroke-width="1" fill="none" fill-rule="evenodd">
        <g id="GlobalNav/Guest/Large" transform="translate(-136.000000, -18.000000)" fill="#FFFFFF">
            <g id="LOGO" transform="translate(136.000000, 18.000000)">
                <g id="Group">
                    <path d="M78.205677,17.1136472 L75.8312565,11.9031714 L73.4382858,17.1136472 L78.205677,17.1136472 Z M73.6223605,8.21212295 L78.0415795,8.21212295 C78.8092707,9.86595032 85.1734027,23.4644008 85.1734027,23.4644008 L81.1337485,23.4644008 L79.4713688,19.8907756 L72.1383477,19.8907756 L70.5216299,23.4672303 L66.4662794,23.4672303 L73.6223605,8.21212295 Z" id="Fill-65"></path>
                    <path d="M125.843488,11.6274392 C123.283566,11.6274392 122.039278,12.9629507 122.039278,12.9629507 L121.829518,11.859456 L118.373481,11.859456 C118.510467,12.2739739 118.738776,13.0407613 118.738776,13.7198349 L118.738776,23.4673718 L122.156287,23.4673718 L122.156287,16.7063444 C122.156287,14.896896 123.283566,13.956096 125.843488,13.956096 C127.250446,13.956096 128.112315,14.4173002 128.112315,16.7063444 L128.112315,23.4673718 L131.515556,23.4673718 L131.515556,16.7063444 C131.515556,13.257216 130.392558,11.6274392 125.843488,11.6274392" id="Fill-66"></path>
                    <path d="M137.625551,16.4946998 C137.825322,15.0644008 138.480285,13.9679798 141.175766,13.9679798 C143.154925,13.9679798 143.864112,15.2270956 143.978267,16.4946998 L137.625551,16.4946998 Z M141.175766,11.6662029 C135.37242,11.6662029 134.081043,14.3612766 134.081043,17.6646872 C134.081043,21.0034661 135.346735,23.7084429 141.459726,23.7084429 C143.697161,23.7084429 145.787621,23.2939251 146.264218,23.1963082 C146.355541,22.6049482 146.553885,21.3217819 146.618098,20.8817987 C146.291329,20.9143377 143.642937,21.3981777 141.459726,21.3981777 C138.618698,21.3981777 137.858141,20.3243924 137.625551,18.8318451 L147.450001,18.8318451 L147.450001,17.6646872 C147.450001,13.5039461 145.208285,11.6662029 141.175766,11.6662029 Z" id="Fill-67"></path>
                    <path d="M25.983123,21.4158619 C23.1292522,21.4158619 22.2816525,20.0081987 22.2816525,17.6752977 C22.2816525,15.3848387 23.1292522,13.9842493 25.983123,13.9842493 C28.8198706,13.9842493 29.6746049,15.3848387 29.6746049,17.6752977 C29.6746049,20.0081987 28.8198706,21.4158619 25.983123,21.4158619 M25.983123,11.6570072 C21.7165861,11.6570072 18.8727038,13.5159714 18.8727038,17.6752977 C18.8727038,21.8841398 21.7165861,23.7190535 25.983123,23.7190535 C30.2439521,23.7190535 33.0764189,21.8841398 33.0764189,17.6752977 C33.0764189,13.5159714 30.2439521,11.6570072 25.983123,11.6570072" id="Fill-68"></path>
                    <path d="M60.5082533,19.0492901 C60.5082533,21.2011048 58.4292084,21.3892648 56.5256766,21.3892648 C55.8678594,21.3892648 54.8304773,21.2492059 54.8304773,19.9801869 C54.8304773,19.1426627 55.9805873,18.5824269 57.378984,18.5824269 L60.5082533,18.5824269 L60.5082533,19.0492901 Z M63.9114943,15.3610712 C63.9114943,13.0253406 61.3886725,11.6275806 57.664371,11.6275806 C55.7465699,11.6275806 53.3892726,12.3703175 52.5787732,12.6476059 C52.5017187,13.1342754 52.2591397,14.6664354 52.2106239,14.9875806 C52.9512034,14.8248859 55.8564439,13.9562375 57.664371,13.9562375 C59.5293756,13.9562375 60.5082533,14.5872101 60.5082533,15.4997154 L60.5082533,16.4843722 C60.5082533,16.4843722 58.2051796,16.2608438 57.378984,16.2608438 C53.6618172,16.2608438 51.4115401,17.5779638 51.4115401,19.9801869 C51.4115401,23.0232859 54.7976578,23.6882122 56.5256766,23.6882122 C58.8558621,23.6882122 60.0758919,23.0728017 60.648093,22.5564227 L60.8450101,23.4675133 L64.2610934,23.4675133 C64.2211393,23.2864269 63.9114943,22.4729533 63.9114943,21.3892648 L63.9114943,15.3610712 Z" id="Fill-69"></path>
                    <path d="M9.3630355,7.76450021 C13.3684432,7.75884126 15.8555916,9.01371284 17.2368651,10.9872707 L13.659538,12.3652244 C12.887566,11.2787065 11.5933355,10.5656792 9.40869743,10.5529465 L9.32022744,10.5529465 C7.1826782,10.5642644 5.90414407,11.2320202 5.12218346,12.2746813 C4.4386814,13.1786981 4.06625126,14.3430265 4.06625126,15.6643907 L4.06625126,15.8822602 L4.06339739,15.8822602 C4.07909368,17.1427907 4.45580463,18.3608792 5.12218346,19.2366013 C5.90414407,20.2707739 7.1826782,20.9540918 9.32022744,20.958336 L9.40869743,20.958336 C11.5519544,20.9540918 12.841904,20.2537971 13.6210108,19.2040623 L17.2368651,20.5791865 C15.8484569,22.5258644 13.3341967,23.7184876 9.38158566,23.7184876 L9.3630355,23.7184876 C5.84992052,23.7184876 3.49405016,22.7989086 2.04856459,21.2144034 C0.732930142,19.7911781 0.0636974347,17.8996749 0.067978241,15.8058644 L0.067978241,15.6643907 C0.0636974347,13.6172665 0.734357077,11.7186897 2.04571072,10.3039528 C3.49119629,8.72369179 5.84849359,7.76167074 9.3630355,7.76450021" id="Fill-70"></path>
                    <path d="M108.508505,21.6245356 L108.508505,8.21848926 L105.096703,8.21848926 L105.096703,21.6245356 C105.096703,22.4380093 105.386371,23.2684598 105.459145,23.4679377 L108.873801,23.4679377 C108.823858,23.2712893 108.508505,22.4762072 108.508505,21.6245356" id="Fill-71"></path>
                    <path d="M97.1125712,16.6839916 C97.1268406,14.8985937 98.4581713,13.9563789 100.806907,13.9563789 C101.197887,13.9563789 102.734697,14.1501979 103.393941,14.2364968 C103.363975,13.9379874 103.127104,12.4977853 103.028645,11.9035958 C102.54206,11.8130526 101.451882,11.6277221 100.806907,11.6277221 C98.8063436,11.6277221 97.6833454,12.3563116 97.0612016,12.9080589 L96.7729606,11.8597389 L93.3411809,11.8597389 C93.4039661,12.0945853 93.6950609,12.8854232 93.7007687,13.6904084 L93.7007687,23.4648253 L97.1125712,23.4648253 L97.1125712,16.6839916 Z" id="Fill-72"></path>
                    <path d="M42.737057,21.4007242 C39.843232,21.4007242 39.0455751,19.7582147 39.0455751,17.6672337 C39.1069333,15.4432674 39.843232,13.9705263 42.737057,13.9705263 C45.3569104,13.9705263 45.8663264,15.6059621 45.8663264,17.6672337 C45.8663264,19.7582147 45.3569104,21.4007242 42.737057,21.4007242 M42.737057,11.6404547 C40.6094963,11.6404547 38.9613859,12.8797642 38.9613859,12.8797642 C38.9613859,12.8797642 38.7787382,12.1936168 38.7031106,11.8767158 L35.271331,11.8767158 C35.3940474,12.2954779 35.6366264,13.1032926 35.6366264,13.9705263 L35.6366264,27.1629474 L39.0455751,27.1629474 L39.0455751,22.5678821 C39.7319311,23.0644547 41.0047574,23.7109895 42.737057,23.7109895 C48.4547872,23.7109895 49.2795559,21.0031832 49.2795559,17.6672337 C49.2795559,14.3638232 48.4547872,11.6404547 42.737057,11.6404547" id="Fill-73"></path>
                    <path d="M159.744476,12.251904 L159.744476,14.8776556 C159.078098,14.5211419 158.381753,14.2466829 157.659724,14.0670114 C156.929133,13.8845103 156.202823,13.7939672 155.47794,13.7939672 C154.668867,13.7939672 154.056712,13.8929987 153.63862,14.0896472 C153.231943,14.2806366 153.01933,14.5763166 153.01933,14.9597103 C153.01933,15.5086282 153.908311,15.9500261 155.672003,16.2938072 L155.806135,16.3221019 L156.852078,16.5229945 C158.181982,16.7847208 159.150871,17.2034829 159.763027,17.7792808 C160.382317,18.3678114 160.6834,19.1459166 160.6834,20.1263293 C160.6834,21.3217819 160.215365,22.2187251 159.276442,22.8058408 C158.344653,23.3986156 156.929133,23.6914661 155.045578,23.6914661 C154.212248,23.6914661 153.350379,23.6348766 152.472814,23.5202829 C151.60381,23.3929566 150.711975,23.2217735 149.814433,22.9784387 L149.814433,20.3314661 C150.614944,20.7176893 151.431151,21.0034661 152.261627,21.2043587 C153.08925,21.4094956 153.894041,21.5113566 154.671721,21.5113566 C155.519321,21.5113566 156.165722,21.4024219 156.605219,21.1972851 C157.039007,20.9864893 157.264463,20.6908093 157.264463,20.2932682 C157.264463,19.9141187 157.103219,19.6184387 156.799282,19.4062282 C156.489637,19.1954324 155.74335,18.9902956 154.583251,18.7540345 L153.574408,18.5630451 C152.191707,18.3154661 151.177156,17.9023629 150.545024,17.3492008 C149.911464,16.7875503 149.590404,16.0547166 149.590404,15.1238198 C149.590404,14.0090072 150.071281,13.1530914 151.037317,12.5447545 C152.00906,11.9180261 153.364648,11.6138577 155.115498,11.6138577 C155.900312,11.6138577 156.682273,11.6662029 157.475649,11.768064 C158.253329,11.875584 159.011032,12.0382787 159.744476,12.251904" id="Fill-74"></path>
                    <path d="M113.619788,10.9615225 C114.356087,10.9615225 114.865503,10.8681499 115.138047,10.668672 C115.407738,10.4635352 115.546151,10.1070215 115.546151,9.57508042 C115.546151,9.07284884 115.413446,8.71492042 115.155171,8.51544253 C114.884053,8.31737937 114.387479,8.21693305 113.648327,8.21693305 C112.897759,8.21693305 112.394051,8.32303832 112.120079,8.52817516 C111.850388,8.73472674 111.721964,9.10114358 111.721964,9.62742568 C111.721964,10.1381457 111.84468,10.480512 112.101529,10.6757457 C112.369793,10.8681499 112.873501,10.9615225 113.619788,10.9615225 M115.329257,21.6243941 L115.329257,11.8542215 L111.924589,11.8542215 L111.924589,21.6243941 C111.924589,22.4859688 112.245649,23.3461288 112.292738,23.4677962 L115.695979,23.4677962 C115.634621,23.2527562 115.329257,22.4534299 115.329257,21.6243941" id="Fill-75"></path>
                    <path d="M88.573219,10.9615225 C89.3123715,10.9615225 89.8146528,10.8681499 90.0914782,10.668672 C90.3597421,10.4635352 90.5052895,10.1070215 90.5052895,9.57508042 C90.5052895,9.07284884 90.362596,8.71492042 90.1071745,8.51544253 C89.8389107,8.31737937 89.3394833,8.21693305 88.6046115,8.21693305 C87.8526166,8.21693305 87.3474814,8.32303832 87.0763637,8.52817516 C86.8095268,8.73472674 86.6753949,9.10114358 86.6753949,9.62742568 C86.6753949,10.1381457 86.8038191,10.480512 87.0620944,10.6757457 C87.3232235,10.8681499 87.8269317,10.9615225 88.573219,10.9615225 M90.2869684,21.6243941 L90.2869684,11.8542215 L86.8780197,11.8542215 L86.8780197,21.6243941 C86.8780197,22.4859688 87.203361,23.3461288 87.2504498,23.4677962 L90.64941,23.4677962 C90.5880518,23.2527562 90.2869684,22.4534299 90.2869684,21.6243941" id="Fill-76"></path>
                    <path d="M207.507715,32.8794745 L207.162396,32.8794745 L207.162396,32.3263124 L207.716047,32.3263124 C207.951492,32.3263124 208.244013,32.3659251 208.244013,32.5922829 C208.244013,32.9318198 207.775978,32.8794745 207.507715,32.8794745 M208.540816,32.5922829 C208.540816,32.1310787 208.165532,32.0278029 207.780259,32.0278029 L206.864167,32.0278029 L206.864167,34.1753735 L207.162396,34.1753735 L207.162396,33.1949608 L207.507715,33.1949608 L208.154116,34.1753735 L208.513704,34.1753735 L207.867302,33.1949608 C208.249721,33.1808135 208.540816,33.0237777 208.540816,32.5922829" id="Fill-77"></path>
                    <path d="M207.580203,34.7556985 C206.69693,34.7556985 205.914969,34.0398417 205.914969,33.1230922 C205.914969,32.1936101 206.69693,31.4678501 207.580203,31.4678501 C208.474891,31.4678501 209.249717,32.1936101 209.249717,33.1230922 C209.249717,34.0398417 208.474891,34.7556985 207.580203,34.7556985 M207.580203,31.1990501 C206.492878,31.1990501 205.615313,32.0224269 205.615313,33.1230922 C205.615313,34.2110248 206.492878,35.0598669 207.580203,35.0598669 C208.678943,35.0598669 209.552228,34.2110248 209.552228,33.1230922 C209.552228,32.0224269 208.678943,31.1990501 207.580203,31.1990501" id="Fill-78"></path>
                    <path d="M166.56694,15.4736842 L166.56694,16.5743495 C170.324061,15.1214147 174.114001,14.2357895 177.75126,13.7123368 C174.399388,13.6260379 170.458193,14.1919326 166.56694,15.4736842" id="Fill-79"></path>
                    <path d="M187.106962,16.6217432 C186.220835,15.9851116 185.2919,15.4036547 184.091847,14.9155705 C184.492816,14.8901053 184.908054,14.8264421 185.378943,14.8023916 C186.128084,15.29472 187.1355,16.0770695 187.731959,16.8226358 L187.106962,16.6217432 Z M178.849287,12.04224 C177.926059,11.6970442 176.834454,11.4664421 175.749983,11.3136505 C176.219445,11.2103747 176.678918,11.1212463 177.202603,11.0575832 C177.96316,11.2641347 178.967722,11.6220632 179.926623,12.2091789 L178.849287,12.04224 Z M166.566227,9.67821474 C167.577924,9.64850526 168.735168,9.98379789 169.988018,10.1479074 L167.786256,10.4280253 C167.410972,10.4435874 166.990026,10.4775411 166.566227,10.5185684 L166.566227,11.0108968 C168.16154,10.7152168 169.906682,10.5228126 171.524827,10.5086653 C185.702857,7.14583579 197.447963,10.3120168 197.447963,10.3120168 C194.927995,9.74046316 180.88695,7.83622737 166.566227,13.4286821 L166.566227,14.2775242 C168.69236,13.5630821 170.938357,13.0113347 173.087321,12.7580968 C176.273668,12.3676295 179.235986,12.5416421 181.730269,13.2433516 C192.209683,12.4977853 199.803833,14.73024 199.803833,14.73024 C196.952816,14.2676211 181.653215,12.1794695 166.566227,19.0395284 L166.566227,19.7214316 C170.742866,17.7365558 175.123558,16.5920337 178.857848,16.3472842 C182.643508,16.1449768 186.029626,16.6811621 188.575278,18.1864421 C194.578396,18.0944842 199.15315,18.8669305 201.710219,19.4851705 L201.710219,0.226357895 L166.566227,0.226357895 L166.566227,9.67821474 Z" id="Fill-80"></path>
                    <path d="M166.56694,21.1271141 L166.56694,23.2548783 C172.739863,20.2711983 179.032648,18.853632 184.514934,18.3839394 C179.50639,17.5039731 173.086608,18.4108194 166.56694,21.1271141" id="Fill-81"></path>
                    <path d="M193.542155,23.6623225 C192.477661,22.1004531 191.129207,20.9205625 189.258495,20.0165457 C189.817854,19.9500531 190.521333,19.9302467 191.046445,19.9061962 C191.233374,20.0434257 191.41174,20.2146088 191.580119,20.4225752 C191.644331,20.5145331 193.729084,22.5559983 194.428282,24.6342467 L193.542155,23.6623225 Z M166.567368,26.0603015 L166.567368,26.944512 C166.991168,26.7040067 167.416395,26.4748194 167.815937,26.2611941 C170.973745,24.5734131 174.128699,23.3977667 177.282226,22.6819099 C180.267375,21.9745415 183.191166,21.7241331 185.863816,21.9603941 C190.916594,22.4116952 194.545291,24.605952 196.293287,28.3946173 C196.308983,28.422912 197.557551,31.2056994 197.677414,33.8300362 L197.070966,32.3275857 C196.91115,31.5777752 196.704244,30.8067436 196.308983,30.116352 C195.014752,27.6150973 192.491931,25.8197962 189.08869,24.767232 C185.997948,23.7967225 181.939743,23.7542804 177.728857,24.5734131 C173.991713,25.277952 170.187503,26.6813709 166.567368,28.4639394 L166.567368,35.062272 L166.918394,35.062272 C169.09019,33.4565457 171.433218,32.2794846 173.868997,31.3188783 C180.253106,28.5884362 186.463128,27.7622299 191.1235,28.9916362 C194.545291,29.9649752 196.781298,31.9739015 197.691683,35.062272 L201.71136,35.062272 L201.71136,19.7647225 C195.960811,19.1139436 180.635524,18.0599646 166.567368,26.0603015 Z" id="Fill-82"></path>
                    <path d="M190.447275,31.4454973 C187.397914,30.6419267 183.890507,30.5938257 180.000681,31.3096825 C176.530374,31.9406552 172.893115,33.1120573 169.395697,35.0629794 L196.086524,35.0629794 C194.843663,33.2606046 192.864503,32.1061794 190.447275,31.4454973" id="Fill-83"></path>
                </g>
            </g>
        </g>
    </g>
</svg>