<svg width="1000" height="1000" viewBox="0 0 1000 1000" fill="none" xmlns="http://www.w3.org/2000/svg">
<g clip-path="url(#clip0_22_2)">
<path fill-rule="evenodd" clip-rule="evenodd" d="M500 1000C776.142 1000 1000 776.142 1000 500C1000 223.858 776.142 0 500 0C223.858 0 0 223.858 0 500C0 776.142 223.858 1000 500 1000ZM384.766 445.999H326.367C325.586 457.457 323.047 467.028 318.75 474.71C314.583 482.392 308.529 488.187 300.586 492.093C292.643 495.999 282.552 497.952 270.312 497.952C259.896 497.952 250.977 496.064 243.555 492.288C236.263 488.382 230.273 482.653 225.586 475.101C221.029 467.418 217.643 458.043 215.43 446.976C213.216 435.778 212.109 422.822 212.109 408.108V387.991C212.109 372.887 213.281 359.736 215.625 348.538C218.099 337.21 221.81 327.835 226.758 320.413C231.706 312.991 237.826 307.457 245.117 303.812C252.409 300.166 260.938 298.343 270.703 298.343C283.724 298.343 294.141 300.426 301.953 304.593C309.896 308.629 315.82 314.684 319.727 322.757C323.633 330.7 325.911 340.4 326.562 351.858H385.156C383.333 332.588 377.865 315.4 368.75 300.296C359.766 285.192 347.07 273.343 330.664 264.749C314.388 256.155 294.401 251.858 270.703 251.858C252.865 251.858 236.719 255.049 222.266 261.429C207.812 267.809 195.378 276.923 184.961 288.772C174.674 300.621 166.732 315.009 161.133 331.937C155.664 348.733 152.93 367.548 152.93 388.382V408.108C152.93 428.942 155.599 447.757 160.938 464.554C166.276 481.351 174.023 495.673 184.18 507.522C194.466 519.371 206.836 528.486 221.289 534.866C235.742 541.116 252.083 544.241 270.312 544.241C293.62 544.241 313.542 540.075 330.078 531.741C346.745 523.408 359.701 511.819 368.945 496.976C378.32 482.132 383.594 465.14 384.766 445.999ZM568.945 452.249C570.508 456.285 571.289 460.843 571.289 465.921C571.289 472.301 569.661 478.03 566.406 483.108C563.281 488.187 558.398 492.158 551.758 495.022C545.247 497.887 536.914 499.319 526.758 499.319C518.424 499.319 510.742 498.473 503.711 496.78C496.81 495.088 490.82 492.353 485.742 488.577C480.794 484.801 476.953 479.853 474.219 473.733C471.484 467.614 470.117 460.127 470.117 451.272H411.328C411.328 467.288 414.648 481.155 421.289 492.874C427.93 504.593 436.784 514.228 447.852 521.78C459.049 529.332 471.484 534.996 485.156 538.772C498.828 542.418 512.695 544.241 526.758 544.241C542.383 544.241 556.51 542.483 569.141 538.968C581.771 535.452 592.643 530.309 601.758 523.538C610.872 516.767 617.839 508.499 622.656 498.733C627.474 488.968 629.883 477.9 629.883 465.53C629.883 453.812 627.865 443.33 623.828 434.085C619.792 424.84 613.802 416.572 605.859 409.28C597.917 401.989 588.021 395.413 576.172 389.554C564.453 383.694 550.846 378.421 535.352 373.733C526.107 370.869 517.969 367.939 510.938 364.944C503.906 361.95 497.982 358.759 493.164 355.374C488.346 351.989 484.701 348.343 482.227 344.437C479.883 340.53 478.711 336.168 478.711 331.351C478.711 324.97 480.404 319.241 483.789 314.163C487.174 308.955 492.253 304.853 499.023 301.858C505.794 298.733 514.258 297.171 524.414 297.171C534.961 297.171 543.685 298.994 550.586 302.64C557.617 306.285 562.826 311.298 566.211 317.679C569.727 323.929 571.484 331.22 571.484 339.554H629.688C629.688 322.627 625.326 307.588 616.602 294.437C608.008 281.285 595.898 270.934 580.273 263.382C564.648 255.83 546.354 252.054 525.391 252.054C510.026 252.054 495.898 253.942 483.008 257.718C470.247 261.494 459.18 266.897 449.805 273.929C440.43 280.83 433.138 289.163 427.93 298.929C422.721 308.564 420.117 319.306 420.117 331.155C420.117 343.395 422.591 354.137 427.539 363.382C432.617 372.627 439.518 380.765 448.242 387.796C457.096 394.697 467.253 400.752 478.711 405.96C490.299 411.168 502.539 415.856 515.43 420.022C527.018 423.668 536.458 427.184 543.75 430.569C551.042 433.955 556.706 437.405 560.742 440.921C564.779 444.306 567.513 448.082 568.945 452.249ZM728.32 377.444V301.858H855.273V255.96H728.32H712.305H669.727V540.335H728.32V423.147H841.602V377.444H728.32ZM175.974 597.226C173.654 597.226 171.881 598.092 170.654 599.826C169.427 601.559 168.814 603.932 168.814 606.946C168.814 609.986 169.374 612.346 170.494 614.026C171.641 615.679 173.467 616.506 175.974 616.506C177.121 616.506 178.281 616.372 179.454 616.106C180.627 615.839 181.894 615.466 183.254 614.986V620.066C182.001 620.572 180.761 620.946 179.534 621.186C178.307 621.426 176.934 621.546 175.414 621.546C172.454 621.546 170.027 620.946 168.134 619.746C166.241 618.519 164.841 616.812 163.934 614.626C163.027 612.412 162.574 609.839 162.574 606.906C162.574 604.026 163.094 601.479 164.134 599.266C165.174 597.052 166.681 595.319 168.654 594.066C170.654 592.812 173.094 592.186 175.974 592.186C177.387 592.186 178.801 592.372 180.214 592.746C181.654 593.092 183.027 593.572 184.334 594.186L182.374 599.106C181.307 598.599 180.227 598.159 179.134 597.786C178.067 597.412 177.014 597.226 175.974 597.226ZM205.763 621.146H189.323V592.586H205.763V597.546H195.363V603.826H205.043V608.786H195.363V616.146H205.763V621.146ZM237.025 621.146H229.345L216.905 599.546H216.745L216.905 603.626C216.985 604.986 217.052 606.346 217.105 607.706V621.146H211.705V592.586H219.345L231.745 613.986H231.865L231.705 610.066C231.652 608.759 231.612 607.439 231.585 606.106V592.586H237.025V621.146ZM255.245 621.146H249.205V597.626H241.445V592.586H263.005V597.626H255.245V621.146ZM275.729 592.586C279.622 592.586 282.489 593.292 284.329 594.706C286.195 596.119 287.129 598.266 287.129 601.146C287.129 602.452 286.875 603.599 286.369 604.586C285.889 605.546 285.235 606.372 284.409 607.066C283.609 607.732 282.742 608.279 281.809 608.706L290.209 621.146H283.489L276.689 610.186H273.449V621.146H267.409V592.586H275.729ZM275.289 597.546H273.449V605.266H275.409C277.409 605.266 278.835 604.932 279.689 604.266C280.569 603.599 281.009 602.612 281.009 601.306C281.009 599.946 280.542 598.986 279.609 598.426C278.675 597.839 277.235 597.546 275.289 597.546ZM319.735 606.826C319.735 609.786 319.242 612.372 318.255 614.586C317.295 616.772 315.802 618.479 313.775 619.706C311.775 620.932 309.228 621.546 306.135 621.546C303.042 621.546 300.482 620.932 298.455 619.706C296.455 618.479 294.962 616.759 293.975 614.546C293.015 612.332 292.535 609.746 292.535 606.786C292.535 603.826 293.015 601.252 293.975 599.066C294.962 596.879 296.455 595.186 298.455 593.986C300.482 592.759 303.055 592.146 306.175 592.146C309.268 592.146 311.815 592.759 313.815 593.986C315.815 595.186 317.295 596.892 318.255 599.106C319.242 601.292 319.735 603.866 319.735 606.826ZM298.895 606.826C298.895 609.812 299.468 612.172 300.615 613.906C301.762 615.612 303.602 616.466 306.135 616.466C308.721 616.466 310.575 615.612 311.695 613.906C312.815 612.172 313.375 609.812 313.375 606.826C313.375 603.839 312.815 601.492 311.695 599.786C310.575 598.052 308.735 597.186 306.175 597.186C303.615 597.186 301.762 598.052 300.615 599.786C299.468 601.492 298.895 603.839 298.895 606.826ZM342.35 621.146L340.27 614.346H329.87L327.79 621.146H321.27L331.35 592.466H338.75L348.87 621.146H342.35ZM338.83 609.266L336.75 602.626C336.616 602.172 336.443 601.599 336.23 600.906C336.145 600.632 336.061 600.356 335.977 600.078C335.848 599.652 335.719 599.221 335.59 598.786C335.376 598.066 335.203 597.439 335.07 596.906C334.936 597.439 334.75 598.106 334.51 598.906C334.296 599.679 334.083 600.426 333.87 601.146C333.683 601.839 333.536 602.332 333.43 602.626L331.39 609.266H338.83ZM364.567 621.146L357.687 598.746H357.527L357.647 601.146C357.7 602.212 357.753 603.359 357.807 604.586C357.86 605.812 357.887 606.906 357.887 607.866V621.146H352.487V592.586H360.727L367.487 614.426H367.607L374.767 592.586H383.007V621.146H377.367V607.626C377.367 606.719 377.38 605.679 377.407 604.506C377.46 603.332 377.5 602.226 377.527 601.186L377.647 598.786H377.487L370.127 621.146H364.567ZM406.661 621.146H390.221V592.586H406.661V597.546H396.261V603.826H405.941V608.786H396.261V616.146H406.661V621.146ZM420.924 592.586C424.817 592.586 427.684 593.292 429.524 594.706C431.391 596.119 432.324 598.266 432.324 601.146C432.324 602.452 432.071 603.599 431.564 604.586C431.084 605.546 430.431 606.372 429.604 607.066C428.804 607.732 427.937 608.279 427.004 608.706L435.404 621.146H428.684L421.884 610.186H418.644V621.146H412.604V592.586H420.924ZM420.484 597.546H418.644V605.266H420.604C422.604 605.266 424.031 604.932 424.884 604.266C425.764 603.599 426.204 602.612 426.204 601.306C426.204 599.946 425.737 598.986 424.804 598.426C423.871 597.839 422.431 597.546 420.484 597.546ZM449.69 621.146H436.69V617.706L440.17 616.106V597.626L436.69 596.026V592.586H449.69V596.026L446.21 597.626V616.106L449.69 617.706V621.146ZM466.677 597.226C464.357 597.226 462.584 598.092 461.357 599.826C460.13 601.559 459.517 603.932 459.517 606.946C459.517 609.986 460.077 612.346 461.197 614.026C462.344 615.679 464.17 616.506 466.677 616.506C467.824 616.506 468.984 616.372 470.157 616.106C471.33 615.839 472.597 615.466 473.957 614.986V620.066C472.704 620.572 471.464 620.946 470.237 621.186C469.01 621.426 467.637 621.546 466.117 621.546C463.157 621.546 460.73 620.946 458.837 619.746C456.944 618.519 455.544 616.812 454.637 614.626C453.73 612.412 453.277 609.839 453.277 606.906C453.277 604.026 453.797 601.479 454.837 599.266C455.877 597.052 457.384 595.319 459.357 594.066C461.357 592.812 463.797 592.186 466.677 592.186C468.09 592.186 469.504 592.372 470.917 592.746C472.357 593.092 473.73 593.572 475.037 594.186L473.077 599.106C472.01 598.599 470.93 598.159 469.837 597.786C468.77 597.412 467.717 597.226 466.677 597.226ZM497.506 621.146L495.426 614.346H485.026L482.946 621.146H476.426L486.506 592.466H493.906L504.026 621.146H497.506ZM493.986 609.266L491.906 602.626C491.772 602.172 491.599 601.599 491.386 600.906C491.172 600.212 490.959 599.506 490.746 598.786C490.532 598.066 490.359 597.439 490.226 596.906C490.092 597.439 489.906 598.106 489.666 598.906C489.452 599.679 489.239 600.426 489.026 601.146C488.839 601.839 488.692 602.332 488.586 602.626L486.546 609.266H493.986ZM540.108 613.226C540.108 615.759 539.188 617.786 537.348 619.306C535.535 620.799 532.948 621.546 529.588 621.546C526.575 621.546 523.881 620.972 521.508 619.826V614.186C522.868 614.772 524.268 615.319 525.708 615.826C527.175 616.306 528.628 616.546 530.068 616.546C531.561 616.546 532.615 616.266 533.228 615.706C533.868 615.119 534.188 614.386 534.188 613.506C534.188 612.786 533.935 612.172 533.428 611.666C532.948 611.159 532.295 610.692 531.468 610.266C530.641 609.812 529.695 609.332 528.628 608.826C527.961 608.506 527.241 608.132 526.468 607.706C525.695 607.252 524.948 606.706 524.228 606.066C523.535 605.399 522.961 604.599 522.508 603.666C522.055 602.732 521.828 601.612 521.828 600.306C521.828 597.746 522.695 595.759 524.428 594.346C526.161 592.906 528.521 592.186 531.508 592.186C533.001 592.186 534.415 592.359 535.748 592.706C537.081 593.052 538.495 593.546 539.988 594.186L538.028 598.906C536.721 598.372 535.548 597.959 534.508 597.666C533.468 597.372 532.401 597.226 531.308 597.226C530.161 597.226 529.281 597.492 528.668 598.026C528.055 598.559 527.748 599.252 527.748 600.106C527.748 601.119 528.201 601.919 529.108 602.506C530.015 603.092 531.361 603.812 533.148 604.666C534.615 605.359 535.855 606.079 536.868 606.826C537.908 607.572 538.708 608.452 539.268 609.466C539.828 610.479 540.108 611.732 540.108 613.226ZM555.979 621.146H542.979V617.706L546.459 616.106V597.626L542.979 596.026V592.586H555.979V596.026L552.499 597.626V616.106L555.979 617.706V621.146ZM586.166 621.146H578.486L566.046 599.546H565.886L566.046 603.626C566.126 604.986 566.193 606.346 566.246 607.706V621.146H560.846V592.586H568.486L580.886 613.986H581.006L580.846 610.066C580.793 608.759 580.753 607.439 580.726 606.106V592.586H586.166V621.146ZM614.97 621.146H609.01V592.586H625.37V597.546H614.97V604.906H624.65V609.866H614.97V621.146ZM639.283 592.586C643.177 592.586 646.043 593.292 647.883 594.706C649.75 596.119 650.683 598.266 650.683 601.146C650.683 602.452 650.43 603.599 649.923 604.586C649.443 605.546 648.79 606.372 647.963 607.066C647.163 607.732 646.297 608.279 645.363 608.706L653.763 621.146H647.043L640.243 610.186H637.003V621.146H630.963V592.586H639.283ZM638.843 597.546H637.003V605.266H638.963C640.963 605.266 642.39 604.932 643.243 604.266C644.123 603.599 644.563 602.612 644.563 601.306C644.563 599.946 644.097 598.986 643.163 598.426C642.23 597.839 640.79 597.546 638.843 597.546ZM683.29 606.826C683.29 609.786 682.796 612.372 681.81 614.586C680.85 616.772 679.356 618.479 677.33 619.706C675.33 620.932 672.783 621.546 669.69 621.546C666.596 621.546 664.036 620.932 662.01 619.706C660.01 618.479 658.516 616.759 657.53 614.546C656.57 612.332 656.09 609.746 656.09 606.786C656.09 603.826 656.57 601.252 657.53 599.066C658.516 596.879 660.01 595.186 662.01 593.986C664.036 592.759 666.61 592.146 669.73 592.146C672.823 592.146 675.37 592.759 677.37 593.986C679.37 595.186 680.85 596.892 681.81 599.106C682.796 601.292 683.29 603.866 683.29 606.826ZM662.45 606.826C662.45 609.812 663.023 612.172 664.17 613.906C665.316 615.612 667.156 616.466 669.69 616.466C672.276 616.466 674.13 615.612 675.25 613.906C676.37 612.172 676.93 609.812 676.93 606.826C676.93 603.839 676.37 601.492 675.25 599.786C674.13 598.052 672.29 597.186 669.73 597.186C667.17 597.186 665.316 598.052 664.17 599.786C663.023 601.492 662.45 603.839 662.45 606.826ZM714.525 621.146H706.845L694.405 599.546H694.245L694.405 603.626C694.485 604.986 694.552 606.346 694.605 607.706V621.146H689.205V592.586H696.845L709.245 613.986H709.365L709.205 610.066C709.152 608.759 709.112 607.439 709.085 606.106V592.586H714.525V621.146ZM732.745 621.146H726.705V597.626H718.945V592.586H740.505V597.626H732.745V621.146ZM761.349 621.146H744.909V592.586H761.349V597.546H750.949V603.826H760.629V608.786H750.949V616.146H761.349V621.146ZM775.611 592.586C779.505 592.586 782.371 593.292 784.211 594.706C786.078 596.119 787.011 598.266 787.011 601.146C787.011 602.452 786.758 603.599 786.251 604.586C785.771 605.546 785.118 606.372 784.291 607.066C783.491 607.732 782.625 608.279 781.691 608.706L790.091 621.146H783.371L776.571 610.186H773.331V621.146H767.291V592.586H775.611ZM775.171 597.546H773.331V605.266H775.291C777.291 605.266 778.718 604.932 779.571 604.266C780.451 603.599 780.891 602.612 780.891 601.306C780.891 599.946 780.425 598.986 779.491 598.426C778.558 597.839 777.118 597.546 775.171 597.546ZM811.178 621.146L809.098 614.346H798.698L796.618 621.146H790.098L800.178 592.466H807.578L817.698 621.146H811.178ZM807.658 609.266L805.578 602.626C805.444 602.172 805.271 601.599 805.058 600.906C804.844 600.212 804.631 599.506 804.418 598.786C804.204 598.066 804.031 597.439 803.898 596.906C803.764 597.439 803.578 598.106 803.338 598.906C803.124 599.679 802.911 600.426 802.698 601.146C802.511 601.839 802.364 602.332 802.258 602.626L800.218 609.266H807.658ZM838.155 613.226C838.155 615.759 837.235 617.786 835.395 619.306C833.581 620.799 830.995 621.546 827.635 621.546C824.622 621.546 821.928 620.972 819.555 619.826V614.186C820.915 614.772 822.315 615.319 823.755 615.826C825.221 616.306 826.675 616.546 828.115 616.546C829.608 616.546 830.661 616.266 831.275 615.706C831.915 615.119 832.235 614.386 832.235 613.506C832.235 612.786 831.982 612.172 831.475 611.666C830.995 611.159 830.341 610.692 829.515 610.266C828.688 609.812 827.742 609.332 826.675 608.826C826.008 608.506 825.288 608.132 824.515 607.706C823.742 607.252 822.995 606.706 822.275 606.066C821.581 605.399 821.008 604.599 820.555 603.666C820.102 602.732 819.875 601.612 819.875 600.306C819.875 597.746 820.742 595.759 822.475 594.346C824.208 592.906 826.568 592.186 829.555 592.186C831.048 592.186 832.461 592.359 833.795 592.706C835.128 593.052 836.542 593.546 838.035 594.186L836.075 598.906C834.768 598.372 833.595 597.959 832.555 597.666C831.515 597.372 830.448 597.226 829.355 597.226C828.208 597.226 827.328 597.492 826.715 598.026C826.102 598.559 825.795 599.252 825.795 600.106C825.795 601.119 826.248 601.919 827.155 602.506C828.062 603.092 829.408 603.812 831.195 604.666C832.661 605.359 833.901 606.079 834.915 606.826C835.955 607.572 836.755 608.452 837.315 609.466C837.875 610.479 838.155 611.732 838.155 613.226ZM247.381 680.857C241.081 674.857 231.031 671.857 217.231 671.857H183.031V778.957H205.681V740.857H215.431C223.231 740.857 229.781 739.907 235.081 738.007C240.381 736.107 244.631 733.507 247.831 730.207C251.131 726.807 253.481 723.007 254.881 718.807C256.281 714.507 256.981 710.007 256.981 705.307C256.981 694.907 253.781 686.757 247.381 680.857ZM205.681 690.457H216.031C222.231 690.457 226.781 691.757 229.681 694.357C232.581 696.857 234.031 700.757 234.031 706.057C234.031 709.857 233.181 712.957 231.481 715.357C229.781 717.757 227.381 719.507 224.281 720.607C221.181 721.707 217.481 722.257 213.181 722.257H205.681V690.457ZM327.5 753.457L335.3 778.957H359.75L321.8 671.407H294.05L256.25 778.957H280.7L288.5 753.457H327.5ZM312.35 703.057C313.15 705.657 313.8 707.807 314.3 709.507L322.1 734.407H294.2L301.85 709.507C302.25 708.407 302.8 706.557 303.5 703.957C304.3 701.257 305.1 698.457 305.9 695.557C306.8 692.557 307.5 690.057 308 688.057C308.5 690.057 309.15 692.407 309.95 695.107C310.75 697.807 311.55 700.457 312.35 703.057ZM439.464 778.957H468.264V671.857H447.864V722.557L448.164 730.057C448.264 732.457 448.314 734.907 448.314 737.407C448.414 739.807 448.514 742.257 448.614 744.757C448.714 747.157 448.814 749.607 448.914 752.107H448.464L401.964 671.857H373.314V778.957H393.564V728.557C393.464 725.957 393.364 723.407 393.264 720.907C393.164 718.307 393.014 715.757 392.814 713.257C392.714 710.657 392.614 708.107 392.514 705.607C392.414 703.007 392.314 700.457 392.214 697.957H392.814L439.464 778.957ZM553.086 753.457L560.886 778.957H585.336L547.386 671.407H519.636L481.836 778.957H506.286L514.086 753.457H553.086ZM537.936 703.057C538.736 705.657 539.386 707.807 539.886 709.507L547.686 734.407H519.786L527.436 709.507C527.836 708.407 528.386 706.557 529.086 703.957C529.886 701.257 530.686 698.457 531.486 695.557C532.386 692.557 533.086 690.057 533.586 688.057C534.086 690.057 534.736 692.407 535.536 695.107C536.336 697.807 537.136 700.457 537.936 703.057ZM618.4 694.957L644.2 778.957H665.05L692.65 695.107H693.25L692.8 704.107C692.7 708.007 692.55 712.157 692.35 716.557C692.25 720.957 692.2 724.857 692.2 728.257V778.957H713.35V671.857H682.45L655.6 753.757H655.15L629.8 671.857H598.9V778.957H619.15V729.157C619.15 725.457 619.05 721.357 618.85 716.857C618.65 712.257 618.45 707.957 618.25 703.957L617.8 694.957H618.4ZM798.154 753.457L805.954 778.957H830.404L792.454 671.407H764.704L726.904 778.957H751.354L759.154 753.457H798.154ZM783.004 703.057C783.804 705.657 784.454 707.807 784.954 709.507L792.754 734.407H764.854L772.504 709.507C772.904 708.407 773.454 706.557 774.154 703.957C774.954 701.257 775.754 698.457 776.554 695.557C777.454 692.557 778.154 690.057 778.654 688.057C779.154 690.057 779.804 692.407 780.604 695.107C781.404 697.807 782.204 700.457 783.004 703.057Z" fill="white"/>
</g>
<defs>
<clipPath id="clip0_22_2">
<rect width="1000" height="1000" fill="white"/>
</clipPath>
</defs>
</svg>
