<svg width="1001" height="1001" viewBox="0 0 1001 1001" fill="none" xmlns="http://www.w3.org/2000/svg">
<g clip-path="url(#clip0_1_99)">
<rect width="1000" height="1000" transform="translate(0.829834 0.0910645)" fill="white"/>
<circle cx="500.83" cy="500.091" r="482.5" fill="#17481F" stroke="#F3B817" stroke-width="35"/>
<path d="M561.332 191.916C560.795 187.665 559.707 183.502 558.097 179.531C557.892 178.78 557.533 178.08 557.042 177.476C556.551 176.871 555.94 176.376 555.247 176.021C554.321 175.78 553.35 175.769 552.419 175.989L537.9 178.211C536.685 178.266 535.521 178.718 534.587 179.498C532.696 181.487 534.558 184.689 534.501 187.433C534.435 190.518 531.694 193.022 528.722 193.851C525.687 194.464 522.557 194.425 519.539 193.737L499.237 190.582C505.216 188.673 510.538 185.121 514.595 180.333C517.267 177.168 518.689 171.259 514.827 169.76C513.68 169.445 512.484 169.349 511.301 169.477C502.103 169.548 494.865 161.868 486.253 158.634C480.742 156.697 474.76 156.553 469.161 158.222C463.563 159.891 458.636 163.287 455.085 167.925L465.9 168.447C466.917 168.391 467.926 168.66 468.781 169.215C471.151 171.162 468.204 174.903 468.538 177.952C468.972 181.914 474.232 182.76 478.198 183.161C482.163 183.561 487.193 186.783 485.286 190.282C465.356 197.147 445.074 176.863 424.143 179.36C418.846 179.992 413.844 182.073 408.672 183.382C377.077 191.376 344.413 170.047 312.137 174.564C304.962 175.787 297.91 177.647 291.064 180.122C286.671 181.564 282.089 183.123 278.898 186.468C275.706 189.813 274.491 195.533 277.515 199.031C269.181 199.718 260.791 198.92 252.735 196.676C254.914 197.887 256.726 199.662 257.982 201.814C259.237 203.967 259.891 206.418 259.872 208.911C246.86 211.033 234.191 214.895 222.208 220.395C224.445 224.114 227.057 227.594 230.004 230.78L213.53 241.363C219.096 242.766 221.973 250.355 218.737 255.095C224.508 252.527 228.084 245.886 234.255 244.539C238.298 243.657 242.412 245.311 246.247 246.865C250.083 248.418 254.298 249.925 258.268 248.759C262.239 247.593 265.167 242.445 262.644 239.165C279.615 234.213 297.153 231.473 314.825 231.012C316.188 230.841 317.571 231.104 318.777 231.762C321.077 233.358 320.472 236.805 320.348 239.603C320.224 242.4 322.404 246.076 324.904 244.815C321.963 247.365 324.477 252.167 327.299 254.849C330.121 257.531 333.522 261.231 331.794 264.72C331.343 265.63 330.579 266.359 330.145 267.278C328.864 269.99 330.897 273.151 333.296 274.952C335.694 276.753 338.631 278.012 340.297 280.506C341.963 283 341.206 287.365 338.228 287.713L329.761 276.963C326.868 279.963 324.885 283.721 324.041 287.802C333.02 295.142 334.37 310.081 326.853 318.911C323.012 323.424 317.55 326.166 312.782 329.686C308.015 333.206 303.603 338.218 303.615 344.145C303.636 354.383 302.799 363.895 306.636 373.387C313.711 390.89 321.878 407.931 331.091 424.408C333.511 428.735 336.637 433.478 341.538 434.223C335.344 419.144 329.769 403.831 324.811 388.282C328.04 388.295 331.772 388.551 333.664 391.168C335.232 393.334 334.895 396.279 335.382 398.908C336.002 401.455 337.035 403.884 338.44 406.097L368.018 458.784C370.47 463.152 373.283 467.84 377.969 469.609C380.965 470.74 384.431 470.527 387.189 472.155C389.351 473.431 390.807 475.696 393.01 476.899C399.241 480.298 407.905 473.779 413.728 477.837C415.393 478.997 416.452 480.841 417.987 482.169C423.364 486.827 432.186 483.711 438.395 487.185C442.396 489.424 444.469 493.902 446.603 497.96C451.949 508.125 460.599 518.084 472.055 518.893C475.653 519.147 479.329 518.465 482.847 519.265C486.365 520.066 489.827 523.136 489.263 526.699C488.295 532.807 491.313 539.496 490.502 545.628C489.026 556.797 473.184 561.705 471.823 572.888C471.525 575.337 471.991 577.864 471.408 580.261C470.694 583.198 468.488 585.59 467.704 588.51C466.218 594.043 470.182 599.55 474.537 603.272C478.892 606.995 484.087 610.205 486.468 615.416C488.984 620.924 487.748 627.346 488.567 633.346C490.353 646.444 501.667 656.155 513.31 662.416C516.858 664.324 520.667 666.171 522.963 669.48C525.96 673.799 525.661 679.494 526.662 684.655C529.113 697.294 539.753 707.709 540.056 720.581C540.27 729.729 535.185 738.029 532.147 746.661C529.299 754.932 528.268 763.72 529.125 772.425C529.982 781.13 532.707 789.548 537.114 797.105C539.386 800.942 542.104 804.56 543.712 808.72C546.581 816.143 545.65 824.582 548.295 832.088C551.792 842.012 561.401 850.209 560.481 860.691C564.844 869.75 574.477 874.201 584.164 876.898L601.525 881.73C604.849 882.656 608.323 883.588 611.708 882.918C615.093 882.248 618.323 879.438 618.236 875.988C609.722 874.068 600.935 872.027 593.917 866.839C586.899 861.651 582.092 852.412 584.755 844.101C585.989 840.247 588.616 835.797 586.119 832.612C584.689 830.789 582.074 830.313 580.461 828.649C577.946 826.055 578.81 821.696 580.618 818.567C582.427 815.438 585.041 812.642 585.77 809.102C586.139 807.122 585.893 805.077 585.065 803.24C584.238 801.404 582.869 799.865 581.142 798.828C584.361 797.613 587.288 795.734 589.735 793.315C591.995 790.734 593.038 786.756 591.261 783.822C596.54 784.491 602.772 784.819 606.237 780.781C609.004 777.557 608.814 772.736 607.721 768.63C606.627 764.523 604.779 760.535 604.722 756.286C616.899 756.864 629.103 756.45 641.214 755.049C639.463 749.151 635.483 744.167 630.119 741.154C635.604 740.226 640.601 733.66 642.333 728.374C644.066 723.088 643.624 717.33 642.553 711.871C642.142 710.466 642.086 708.98 642.389 707.548C643.007 705.58 644.94 704.378 646.729 703.351L673.954 687.716C675.579 686.902 677.051 685.815 678.307 684.502C681.16 681.151 680.737 676.094 679.277 671.943C677.816 667.793 675.477 663.89 674.914 659.526C673.232 646.474 687.203 637.11 691.918 624.824C693.768 620.003 694.146 614.762 694.504 609.61C694.888 604.077 694.917 597.649 690.668 594.084C686.596 590.666 680.232 591.428 675.971 588.249C672.063 585.334 670.715 579.673 666.447 577.318C662.571 575.18 657.711 576.54 653.4 575.534C645.809 573.764 641.032 565.015 633.28 564.205C628.906 563.748 623.956 565.886 620.371 563.339C617.212 561.094 617.085 556.583 616.484 552.755C615.43 546.805 612.579 541.322 608.313 537.043C604.048 532.763 598.573 529.894 592.627 528.821C588.117 528.098 583.209 528.373 579.372 525.894C575.487 523.385 573.706 518.686 570.654 515.211C565.736 509.61 557.99 507.62 550.734 505.914L521.22 498.975C515.98 497.744 509.227 497.091 506.415 501.68C505.583 503.428 504.993 505.281 504.664 507.188C503.61 510.638 501.49 513.665 498.608 515.835C495.726 518.004 492.23 519.204 488.623 519.262C486.149 515.042 482.142 511.942 477.437 510.606C474.444 509.772 471.241 509.68 468.386 508.453C466.832 507.694 465.448 506.626 464.321 505.314C463.193 504.002 462.346 502.474 461.829 500.823C461.313 499.172 461.139 497.433 461.318 495.712C461.497 493.992 462.025 492.326 462.87 490.817C464.571 487.787 465.229 484.281 464.74 480.841C464.251 477.401 462.644 474.217 460.166 471.781C455.146 467.275 447.886 466.186 441.155 466.637C439.393 462.791 442.34 458.451 445.516 455.656C448.692 452.861 452.549 450.113 453.24 445.939C454.328 439.374 445.951 434.387 439.59 436.345C433.23 438.302 429.17 444.481 426.486 450.571C424.947 454.065 423.638 457.744 421.209 460.691C418.78 463.637 414.869 465.747 411.169 464.801C405.932 463.463 403.909 457.24 402.75 451.96C401.194 444.876 399.63 437.693 399.956 430.448C400.282 423.202 402.725 415.763 408.067 410.858C416.774 402.865 430.13 403.648 441.88 404.923C439.104 401.796 439.79 396.524 442.76 393.58C444.328 392.187 446.212 391.198 448.249 390.697C450.286 390.197 452.414 390.201 454.449 390.709C457.989 391.446 461.179 393.353 463.504 396.123C466.843 400.194 467.793 405.69 470.316 410.311C472.84 414.932 478.515 418.873 483.16 416.394C487.172 414.253 487.809 408.69 486.811 404.253C485.812 399.816 483.691 395.502 484.053 390.969C484.743 382.319 493.71 377.112 501.622 373.55C509.535 369.987 518.595 365.196 519.849 356.61C519.892 354.929 520.209 353.266 520.788 351.687C521.665 350.292 522.885 349.145 524.33 348.355C547.423 333.094 570.9 317.646 597.295 309.307C598.668 308.873 598.829 309.355 600.228 309.016C602.187 307.884 600.889 304.752 599.011 303.491C597.134 302.229 594.624 301.262 594.147 299.05C593.797 297.425 594.755 295.828 595.004 294.184C595.615 290.144 590.782 286.414 587.028 288.029C584.908 285.221 589.103 281.958 592.495 281.024C602.682 278.221 613.138 276.513 623.687 275.929C624.904 275.736 626.151 275.948 627.236 276.533C629.008 277.76 628.781 280.575 627.526 282.327C626.27 284.079 624.317 285.178 622.752 286.661C621.043 288.326 619.823 290.429 619.227 292.74C618.631 295.051 618.682 297.482 619.372 299.766C624.879 302.567 630.866 305.451 636.966 304.464C643.065 303.477 648.479 296.624 645.612 291.151C642.942 286.054 634.923 284.905 633.544 279.319C631.929 272.779 641.187 266.962 639.102 260.556C638.188 257.751 635.392 256.099 633.246 254.074C630.712 251.59 628.988 248.398 628.301 244.917C627.614 241.436 627.996 237.828 629.397 234.568C625.902 235.183 622.31 234.951 618.924 233.891C615.537 232.831 612.454 230.975 609.933 228.477C605.277 223.779 601.563 216.367 594.952 216.577C588.885 216.77 583.66 223.848 577.987 221.689C576.592 221.157 575.12 220.076 573.768 220.71C573.325 220.997 572.953 221.382 572.68 221.835C572.408 222.287 572.242 222.796 572.194 223.322C570.753 230.214 573.233 238.067 569.476 244.023C565.389 250.504 555.934 251.402 550.978 257.247C548.288 260.419 547.246 264.694 544.773 268.038C542.301 271.383 537.053 273.51 534.085 270.595C535.544 267.597 535.942 264.193 535.215 260.939C534.488 257.685 532.679 254.774 530.083 252.682C527.328 250.885 524.359 249.44 521.244 248.382C517.763 246.909 514.453 245.064 511.369 242.879C509.824 241.947 508.569 240.604 507.744 239C507.091 236.991 507.179 234.815 507.992 232.866C509.496 228.552 512.151 224.731 515.668 221.815C519.186 218.9 523.433 217 527.951 216.322C531.902 215.785 536.5 215.974 539.115 212.964C540.499 211.371 541.224 208.963 543.233 208.316C544.517 208.058 545.85 208.222 547.034 208.784L561.781 213.975C563.426 214.717 565.237 215.017 567.034 214.843C567.925 214.723 568.738 214.271 569.309 213.577C569.88 212.882 570.168 211.998 570.114 211.1C569.643 208.652 565.874 207.476 566.217 205.006C566.409 204.206 566.84 203.482 567.451 202.932C572.773 197.267 579.282 192.85 586.511 189.995C593.74 187.14 601.51 185.919 609.267 186.419C611.128 189.476 608.184 193.096 605.735 195.705C603.285 198.315 601.317 202.978 604.279 204.986C605.493 205.606 606.843 205.91 608.206 205.871C611.836 206.362 615.365 207.432 618.657 209.041C623.752 211.258 628.75 213.685 633.651 216.32C633.218 213.089 632.805 209.685 634.029 206.664C635.254 203.643 638.734 201.273 641.775 202.45C644.704 203.584 646.207 207.463 649.328 207.819C653.492 208.293 655.135 202.142 653.396 198.329C651.656 194.516 648.213 191.324 647.926 187.143C647.732 184.322 648.805 180.824 646.552 179.116C645.751 178.603 644.841 178.284 643.894 178.184L587.638 167.832C584.298 167.217 579.471 167.688 579.323 171.082C579.241 172.976 580.933 174.85 580.183 176.592C579.383 178.45 576.756 178.28 574.842 178.938C571.872 179.958 570.382 183.484 570.668 186.611C571.19 189.718 572.393 192.671 574.191 195.258C570.532 193.727 564.992 193.446 561.332 191.916Z" fill="#265A2C"/>
<path d="M327.197 446.09H385.595C384.424 465.231 379.15 482.223 369.775 497.067C360.53 511.91 347.575 523.499 330.908 531.832C314.372 540.166 294.45 544.332 271.142 544.332C252.913 544.332 236.572 541.207 222.119 534.957C207.666 528.577 195.296 519.462 185.01 507.614C174.853 495.765 167.106 481.442 161.767 464.645C156.429 447.848 153.76 429.033 153.76 408.199V388.473C153.76 367.64 156.494 348.824 161.963 332.028C167.562 315.101 175.504 300.712 185.791 288.864C196.207 277.015 208.642 267.9 223.095 261.52C237.549 255.14 253.694 251.949 271.533 251.949C295.231 251.949 315.218 256.246 331.494 264.84C347.9 273.434 360.595 285.283 369.58 300.387C378.694 315.491 384.163 332.679 385.986 351.949H327.392C326.741 340.491 324.463 330.791 320.556 322.848C316.65 314.775 310.726 308.72 302.783 304.684C294.97 300.517 284.554 298.434 271.533 298.434C261.767 298.434 253.239 300.257 245.947 303.903C238.655 307.548 232.536 313.082 227.588 320.504C222.64 327.926 218.929 337.301 216.455 348.629C214.111 359.827 212.939 372.978 212.939 388.082V408.199C212.939 422.913 214.046 435.869 216.26 447.067C218.473 458.134 221.858 467.509 226.416 475.192C231.103 482.744 237.093 488.473 244.385 492.379C251.806 496.155 260.726 498.043 271.142 498.043C283.382 498.043 293.473 496.09 301.416 492.184C309.358 488.278 315.413 482.483 319.58 474.801C323.877 467.119 326.416 457.548 327.197 446.09ZM572.119 466.012C572.119 460.934 571.338 456.377 569.775 452.34C568.343 448.173 565.608 444.397 561.572 441.012C557.536 437.496 551.872 434.046 544.58 430.66C537.288 427.275 527.848 423.759 516.26 420.114C503.369 415.947 491.129 411.259 479.541 406.051C468.082 400.843 457.926 394.788 449.072 387.887C440.348 380.856 433.447 372.718 428.369 363.473C423.421 354.228 420.947 343.486 420.947 331.246C420.947 319.397 423.551 308.655 428.76 299.02C433.968 289.254 441.26 280.921 450.635 274.02C460.01 266.989 471.077 261.585 483.838 257.809C496.728 254.033 510.856 252.145 526.22 252.145C547.184 252.145 565.478 255.921 581.103 263.473C596.728 271.025 608.838 281.377 617.431 294.528C626.155 307.679 630.517 322.718 630.517 339.645H572.314C572.314 331.311 570.556 324.02 567.041 317.77C563.655 311.39 558.447 306.377 551.416 302.731C544.515 299.085 535.791 297.262 525.244 297.262C515.088 297.262 506.624 298.824 499.853 301.949C493.082 304.944 488.004 309.046 484.619 314.254C481.233 319.332 479.541 325.061 479.541 331.442C479.541 336.259 480.713 340.621 483.056 344.528C485.53 348.434 489.176 352.08 493.994 355.465C498.812 358.851 504.736 362.041 511.767 365.035C518.799 368.03 526.937 370.96 536.181 373.824C551.676 378.512 565.283 383.785 577.002 389.645C588.851 395.504 598.747 402.08 606.689 409.371C614.632 416.663 620.622 424.931 624.658 434.176C628.694 443.421 630.713 453.903 630.713 465.621C630.713 477.991 628.304 489.059 623.486 498.824C618.668 508.59 611.702 516.858 602.588 523.629C593.473 530.4 582.601 535.543 569.97 539.059C557.34 542.574 543.213 544.332 527.588 544.332C513.525 544.332 499.658 542.509 485.986 538.864C472.314 535.087 459.879 529.423 448.681 521.871C437.614 514.319 428.76 504.684 422.119 492.965C415.478 481.246 412.158 467.379 412.158 451.364H470.947C470.947 460.218 472.314 467.705 475.049 473.824C477.783 479.944 481.624 484.892 486.572 488.668C491.65 492.444 497.64 495.179 504.541 496.871C511.572 498.564 519.254 499.41 527.588 499.41C537.744 499.41 546.077 497.978 552.588 495.114C559.228 492.249 564.111 488.278 567.236 483.199C570.491 478.121 572.119 472.392 572.119 466.012ZM729.15 256.051V540.426H670.556V256.051H729.15ZM842.431 377.535V423.239H713.135V377.535H842.431ZM856.103 256.051V301.949H713.135V256.051H856.103Z" fill="#F3B817"/>
<path d="M176.804 597.317C174.484 597.317 172.71 598.183 171.484 599.917C170.257 601.65 169.644 604.023 169.644 607.037C169.644 610.077 170.204 612.437 171.324 614.117C172.47 615.77 174.297 616.597 176.804 616.597C177.95 616.597 179.11 616.463 180.284 616.197C181.457 615.93 182.724 615.557 184.084 615.077V620.157C182.83 620.663 181.59 621.037 180.364 621.277C179.137 621.517 177.764 621.637 176.244 621.637C173.284 621.637 170.857 621.037 168.964 619.837C167.07 618.61 165.67 616.903 164.764 614.717C163.857 612.503 163.404 609.93 163.404 606.997C163.404 604.117 163.924 601.57 164.964 599.357C166.004 597.143 167.51 595.41 169.484 594.157C171.484 592.903 173.924 592.277 176.804 592.277C178.217 592.277 179.63 592.463 181.044 592.837C182.484 593.183 183.857 593.663 185.164 594.277L183.204 599.197C182.137 598.69 181.057 598.25 179.964 597.877C178.897 597.503 177.844 597.317 176.804 597.317ZM206.592 621.237H190.152V592.677H206.592V597.637H196.192V603.917H205.872V608.877H196.192V616.237H206.592V621.237ZM237.855 621.237H230.175L217.735 599.637H217.575C217.629 600.997 217.682 602.357 217.735 603.717C217.815 605.077 217.882 606.437 217.935 607.797V621.237H212.535V592.677H220.175L232.575 614.077H232.695C232.642 612.77 232.589 611.463 232.535 610.157C232.482 608.85 232.442 607.53 232.415 606.197V592.677H237.855V621.237ZM256.074 621.237H250.034V597.717H242.274V592.677H263.834V597.717H256.074V621.237ZM276.558 592.677C280.452 592.677 283.318 593.383 285.158 594.797C287.025 596.21 287.958 598.357 287.958 601.237C287.958 602.543 287.705 603.69 287.198 604.677C286.718 605.637 286.065 606.463 285.238 607.157C284.438 607.823 283.572 608.37 282.638 608.797L291.038 621.237H284.318L277.518 610.277H274.278V621.237H268.238V592.677H276.558ZM276.118 597.637H274.278V605.357H276.238C278.238 605.357 279.665 605.023 280.518 604.357C281.398 603.69 281.838 602.703 281.838 601.397C281.838 600.037 281.372 599.077 280.438 598.517C279.505 597.93 278.065 597.637 276.118 597.637ZM320.565 606.917C320.565 609.877 320.071 612.463 319.085 614.677C318.125 616.863 316.631 618.57 314.605 619.797C312.605 621.023 310.058 621.637 306.965 621.637C303.871 621.637 301.311 621.023 299.285 619.797C297.285 618.57 295.791 616.85 294.805 614.637C293.845 612.423 293.365 609.837 293.365 606.877C293.365 603.917 293.845 601.343 294.805 599.157C295.791 596.97 297.285 595.277 299.285 594.077C301.311 592.85 303.885 592.237 307.005 592.237C310.098 592.237 312.645 592.85 314.645 594.077C316.645 595.277 318.125 596.983 319.085 599.197C320.071 601.383 320.565 603.957 320.565 606.917ZM299.725 606.917C299.725 609.903 300.298 612.263 301.445 613.997C302.591 615.703 304.431 616.557 306.965 616.557C309.551 616.557 311.405 615.703 312.525 613.997C313.645 612.263 314.205 609.903 314.205 606.917C314.205 603.93 313.645 601.583 312.525 599.877C311.405 598.143 309.565 597.277 307.005 597.277C304.445 597.277 302.591 598.143 301.445 599.877C300.298 601.583 299.725 603.93 299.725 606.917ZM343.179 621.237L341.099 614.437H330.699L328.619 621.237H322.099L332.179 592.557H339.579L349.699 621.237H343.179ZM339.659 609.357L337.579 602.717C337.446 602.263 337.273 601.69 337.059 600.997C336.846 600.303 336.633 599.597 336.419 598.877C336.206 598.157 336.033 597.53 335.899 596.997C335.766 597.53 335.579 598.197 335.339 598.997C335.126 599.77 334.913 600.517 334.699 601.237C334.513 601.93 334.366 602.423 334.259 602.717L332.219 609.357H339.659ZM365.397 621.237L358.517 598.837H358.357C358.383 599.37 358.423 600.17 358.477 601.237C358.53 602.303 358.583 603.45 358.637 604.677C358.69 605.903 358.717 606.997 358.717 607.957V621.237H353.317V592.677H361.557L368.317 614.517H368.437L375.597 592.677H383.837V621.237H378.197V607.717C378.197 606.81 378.21 605.77 378.237 604.597C378.29 603.423 378.33 602.317 378.357 601.277C378.41 600.21 378.45 599.41 378.477 598.877H378.317L370.957 621.237H365.397ZM407.491 621.237H391.051V592.677H407.491V597.637H397.091V603.917H406.771V608.877H397.091V616.237H407.491V621.237ZM421.754 592.677C425.647 592.677 428.514 593.383 430.354 594.797C432.22 596.21 433.154 598.357 433.154 601.237C433.154 602.543 432.9 603.69 432.394 604.677C431.914 605.637 431.26 606.463 430.434 607.157C429.634 607.823 428.767 608.37 427.834 608.797L436.234 621.237H429.514L422.714 610.277H419.474V621.237H413.434V592.677H421.754ZM421.314 597.637H419.474V605.357H421.434C423.434 605.357 424.86 605.023 425.714 604.357C426.594 603.69 427.034 602.703 427.034 601.397C427.034 600.037 426.567 599.077 425.634 598.517C424.7 597.93 423.26 597.637 421.314 597.637ZM450.52 621.237H437.52V617.797L441 616.197V597.717L437.52 596.117V592.677H450.52V596.117L447.04 597.717V616.197L450.52 617.797V621.237ZM467.507 597.317C465.187 597.317 463.414 598.183 462.187 599.917C460.96 601.65 460.347 604.023 460.347 607.037C460.347 610.077 460.907 612.437 462.027 614.117C463.174 615.77 465 616.597 467.507 616.597C468.654 616.597 469.814 616.463 470.987 616.197C472.16 615.93 473.427 615.557 474.787 615.077V620.157C473.534 620.663 472.294 621.037 471.067 621.277C469.84 621.517 468.467 621.637 466.947 621.637C463.987 621.637 461.56 621.037 459.667 619.837C457.774 618.61 456.374 616.903 455.467 614.717C454.56 612.503 454.107 609.93 454.107 606.997C454.107 604.117 454.627 601.57 455.667 599.357C456.707 597.143 458.214 595.41 460.187 594.157C462.187 592.903 464.627 592.277 467.507 592.277C468.92 592.277 470.334 592.463 471.747 592.837C473.187 593.183 474.56 593.663 475.867 594.277L473.907 599.197C472.84 598.69 471.76 598.25 470.667 597.877C469.6 597.503 468.547 597.317 467.507 597.317ZM498.336 621.237L496.256 614.437H485.856L483.776 621.237H477.256L487.336 592.557H494.736L504.856 621.237H498.336ZM494.816 609.357L492.736 602.717C492.602 602.263 492.429 601.69 492.216 600.997C492.002 600.303 491.789 599.597 491.576 598.877C491.362 598.157 491.189 597.53 491.056 596.997C490.922 597.53 490.736 598.197 490.496 598.997C490.282 599.77 490.069 600.517 489.856 601.237C489.669 601.93 489.522 602.423 489.416 602.717L487.376 609.357H494.816ZM540.938 613.317C540.938 615.85 540.018 617.877 538.178 619.397C536.364 620.89 533.778 621.637 530.418 621.637C527.404 621.637 524.711 621.063 522.338 619.917V614.277C523.698 614.863 525.098 615.41 526.538 615.917C528.004 616.397 529.458 616.637 530.898 616.637C532.391 616.637 533.444 616.357 534.058 615.797C534.698 615.21 535.018 614.477 535.018 613.597C535.018 612.877 534.764 612.263 534.258 611.757C533.778 611.25 533.124 610.783 532.298 610.357C531.471 609.903 530.524 609.423 529.458 608.917C528.791 608.597 528.071 608.223 527.298 607.797C526.524 607.343 525.778 606.797 525.058 606.157C524.364 605.49 523.791 604.69 523.338 603.757C522.884 602.823 522.658 601.703 522.658 600.397C522.658 597.837 523.524 595.85 525.258 594.437C526.991 592.997 529.351 592.277 532.338 592.277C533.831 592.277 535.244 592.45 536.578 592.797C537.911 593.143 539.324 593.637 540.818 594.277L538.858 598.997C537.551 598.463 536.378 598.05 535.338 597.757C534.298 597.463 533.231 597.317 532.138 597.317C530.991 597.317 530.111 597.583 529.498 598.117C528.884 598.65 528.578 599.343 528.578 600.197C528.578 601.21 529.031 602.01 529.938 602.597C530.844 603.183 532.191 603.903 533.978 604.757C535.444 605.45 536.684 606.17 537.698 606.917C538.738 607.663 539.538 608.543 540.098 609.557C540.658 610.57 540.938 611.823 540.938 613.317ZM556.809 621.237H543.809V617.797L547.289 616.197V597.717L543.809 596.117V592.677H556.809V596.117L553.329 597.717V616.197L556.809 617.797V621.237ZM586.996 621.237H579.316L566.876 599.637H566.716C566.769 600.997 566.823 602.357 566.876 603.717C566.956 605.077 567.023 606.437 567.076 607.797V621.237H561.676V592.677H569.316L581.716 614.077H581.836C581.783 612.77 581.729 611.463 581.676 610.157C581.623 608.85 581.583 607.53 581.556 606.197V592.677H586.996V621.237ZM615.8 621.237H609.84V592.677H626.2V597.637H615.8V604.997H625.48V609.957H615.8V621.237ZM640.113 592.677C644.006 592.677 646.873 593.383 648.713 594.797C650.58 596.21 651.513 598.357 651.513 601.237C651.513 602.543 651.26 603.69 650.753 604.677C650.273 605.637 649.62 606.463 648.793 607.157C647.993 607.823 647.126 608.37 646.193 608.797L654.593 621.237H647.873L641.073 610.277H637.833V621.237H631.793V592.677H640.113ZM639.673 597.637H637.833V605.357H639.793C641.793 605.357 643.22 605.023 644.073 604.357C644.953 603.69 645.393 602.703 645.393 601.397C645.393 600.037 644.926 599.077 643.993 598.517C643.06 597.93 641.62 597.637 639.673 597.637ZM684.119 606.917C684.119 609.877 683.626 612.463 682.639 614.677C681.679 616.863 680.186 618.57 678.159 619.797C676.159 621.023 673.613 621.637 670.519 621.637C667.426 621.637 664.866 621.023 662.839 619.797C660.839 618.57 659.346 616.85 658.359 614.637C657.399 612.423 656.919 609.837 656.919 606.877C656.919 603.917 657.399 601.343 658.359 599.157C659.346 596.97 660.839 595.277 662.839 594.077C664.866 592.85 667.439 592.237 670.559 592.237C673.653 592.237 676.199 592.85 678.199 594.077C680.199 595.277 681.679 596.983 682.639 599.197C683.626 601.383 684.119 603.957 684.119 606.917ZM663.279 606.917C663.279 609.903 663.853 612.263 664.999 613.997C666.146 615.703 667.986 616.557 670.519 616.557C673.106 616.557 674.959 615.703 676.079 613.997C677.199 612.263 677.759 609.903 677.759 606.917C677.759 603.93 677.199 601.583 676.079 599.877C674.959 598.143 673.119 597.277 670.559 597.277C667.999 597.277 666.146 598.143 664.999 599.877C663.853 601.583 663.279 603.93 663.279 606.917ZM715.355 621.237H707.675L695.235 599.637H695.075C695.129 600.997 695.182 602.357 695.235 603.717C695.315 605.077 695.382 606.437 695.435 607.797V621.237H690.035V592.677H697.675L710.075 614.077H710.195C710.142 612.77 710.089 611.463 710.035 610.157C709.982 608.85 709.942 607.53 709.915 606.197V592.677H715.355V621.237ZM733.574 621.237H727.534V597.717H719.774V592.677H741.334V597.717H733.574V621.237ZM762.178 621.237H745.738V592.677H762.178V597.637H751.778V603.917H761.458V608.877H751.778V616.237H762.178V621.237ZM776.441 592.677C780.335 592.677 783.201 593.383 785.041 594.797C786.908 596.21 787.841 598.357 787.841 601.237C787.841 602.543 787.588 603.69 787.081 604.677C786.601 605.637 785.948 606.463 785.121 607.157C784.321 607.823 783.455 608.37 782.521 608.797L790.921 621.237H784.201L777.401 610.277H774.161V621.237H768.121V592.677H776.441ZM776.001 597.637H774.161V605.357H776.121C778.121 605.357 779.548 605.023 780.401 604.357C781.281 603.69 781.721 602.703 781.721 601.397C781.721 600.037 781.255 599.077 780.321 598.517C779.388 597.93 777.948 597.637 776.001 597.637ZM812.007 621.237L809.927 614.437H799.527L797.447 621.237H790.927L801.007 592.557H808.407L818.527 621.237H812.007ZM808.487 609.357L806.407 602.717C806.274 602.263 806.101 601.69 805.887 600.997C805.674 600.303 805.461 599.597 805.247 598.877C805.034 598.157 804.861 597.53 804.727 596.997C804.594 597.53 804.407 598.197 804.167 598.997C803.954 599.77 803.741 600.517 803.527 601.237C803.341 601.93 803.194 602.423 803.087 602.717L801.047 609.357H808.487ZM838.985 613.317C838.985 615.85 838.065 617.877 836.225 619.397C834.411 620.89 831.825 621.637 828.465 621.637C825.451 621.637 822.758 621.063 820.385 619.917V614.277C821.745 614.863 823.145 615.41 824.585 615.917C826.051 616.397 827.505 616.637 828.945 616.637C830.438 616.637 831.491 616.357 832.105 615.797C832.745 615.21 833.065 614.477 833.065 613.597C833.065 612.877 832.811 612.263 832.305 611.757C831.825 611.25 831.171 610.783 830.345 610.357C829.518 609.903 828.571 609.423 827.505 608.917C826.838 608.597 826.118 608.223 825.345 607.797C824.571 607.343 823.825 606.797 823.105 606.157C822.411 605.49 821.838 604.69 821.385 603.757C820.931 602.823 820.705 601.703 820.705 600.397C820.705 597.837 821.571 595.85 823.305 594.437C825.038 592.997 827.398 592.277 830.385 592.277C831.878 592.277 833.291 592.45 834.625 592.797C835.958 593.143 837.371 593.637 838.865 594.277L836.905 598.997C835.598 598.463 834.425 598.05 833.385 597.757C832.345 597.463 831.278 597.317 830.185 597.317C829.038 597.317 828.158 597.583 827.545 598.117C826.931 598.65 826.625 599.343 826.625 600.197C826.625 601.21 827.078 602.01 827.985 602.597C828.891 603.183 830.238 603.903 832.025 604.757C833.491 605.45 834.731 606.17 835.745 606.917C836.785 607.663 837.585 608.543 838.145 609.557C838.705 610.57 838.985 611.823 838.985 613.317Z" fill="#F3B817"/>
<path d="M312.317 811.746C321.517 811.746 328.217 813.746 332.417 817.746C336.684 821.679 338.817 827.113 338.817 834.046C338.817 838.246 337.951 842.146 336.217 845.746C334.484 849.346 331.584 852.246 327.517 854.446C323.517 856.646 318.051 857.746 311.117 857.746H304.617V883.146H289.517V811.746H312.317ZM311.517 824.146H304.617V845.346H309.617C313.884 845.346 317.251 844.513 319.717 842.846C322.251 841.113 323.517 838.346 323.517 834.546C323.517 827.613 319.517 824.146 311.517 824.146ZM391.03 883.146L385.83 866.146H359.83L354.63 883.146H338.33L363.53 811.446H382.03L407.33 883.146H391.03ZM382.23 853.446L377.03 836.846C376.697 835.713 376.263 834.279 375.73 832.546C375.197 830.813 374.663 829.046 374.13 827.246C373.597 825.446 373.163 823.879 372.83 822.546C372.497 823.879 372.03 825.546 371.43 827.546C370.897 829.479 370.363 831.346 369.83 833.146C369.363 834.879 368.997 836.113 368.73 836.846L363.63 853.446H382.23ZM479.673 883.146H460.473L429.373 829.146H428.973C429.106 832.546 429.239 835.946 429.373 839.346C429.573 842.746 429.739 846.146 429.873 849.546V883.146H416.373V811.746H435.473L466.473 865.246H466.773C466.639 861.979 466.506 858.713 466.373 855.446C466.239 852.179 466.139 848.879 466.073 845.546V811.746H479.673V883.146ZM541.42 883.146L536.22 866.146H510.22L505.02 883.146H488.72L513.92 811.446H532.42L557.72 883.146H541.42ZM532.62 853.446L527.42 836.846C527.087 835.713 526.654 834.279 526.12 832.546C525.587 830.813 525.054 829.046 524.52 827.246C523.987 825.446 523.554 823.879 523.22 822.546C522.887 823.879 522.42 825.546 521.82 827.546C521.287 829.479 520.754 831.346 520.22 833.146C519.754 834.879 519.387 836.113 519.12 836.846L514.02 853.446H532.62ZM596.963 883.146L579.763 827.146H579.363C579.43 828.479 579.53 830.479 579.663 833.146C579.797 835.813 579.93 838.679 580.063 841.746C580.197 844.813 580.263 847.546 580.263 849.946V883.146H566.763V811.746H587.363L604.263 866.346H604.563L622.463 811.746H643.063V883.146H628.963V849.346C628.963 847.079 628.997 844.479 629.063 841.546C629.197 838.613 629.297 835.846 629.363 833.246C629.497 830.579 629.597 828.579 629.663 827.246H629.263L610.863 883.146H596.963ZM704.799 883.146L699.599 866.146H673.599L668.399 883.146H652.099L677.299 811.446H695.799L721.099 883.146H704.799ZM695.999 853.446L690.799 836.846C690.466 835.713 690.033 834.279 689.499 832.546C688.966 830.813 688.433 829.046 687.899 827.246C687.366 825.446 686.933 823.879 686.599 822.546C686.266 823.879 685.799 825.546 685.199 827.546C684.666 829.479 684.133 831.346 683.599 833.146C683.133 834.879 682.766 836.113 682.499 836.846L677.399 853.446H695.999Z" fill="#F3B817"/>
</g>
<defs>
<clipPath id="clip0_1_99">
<rect width="1000" height="1000" fill="white" transform="translate(0.829834 0.0910645)"/>
</clipPath>
</defs>
</svg>
