<svg width="51" height="51" viewBox="0 0 51 51" fill="none" xmlns="http://www.w3.org/2000/svg">
<path d="M50.7764 25.0911C50.7764 38.8982 39.5835 50.0911 25.7764 50.0911C11.9692 50.0911 0.776367 38.8982 0.776367 25.0911C0.776367 11.2839 11.9692 0.0910645 25.7764 0.0910645C39.5835 0.0910645 50.7764 11.2839 50.7764 25.0911Z" fill="#17481F"/>
<path fill-rule="evenodd" clip-rule="evenodd" d="M25.7764 48.3411C38.617 48.3411 49.0264 37.9317 49.0264 25.0911C49.0264 12.2504 38.617 1.84106 25.7764 1.84106C12.9357 1.84106 2.52637 12.2504 2.52637 25.0911C2.52637 37.9317 12.9357 48.3411 25.7764 48.3411ZM25.7764 50.0911C39.5835 50.0911 50.7764 38.8982 50.7764 25.0911C50.7764 11.2839 39.5835 0.0910645 25.7764 0.0910645C11.9692 0.0910645 0.776367 11.2839 0.776367 25.0911C0.776367 38.8982 11.9692 50.0911 25.7764 50.0911Z" fill="#F3B817"/>
<path d="M28.8013 9.68234C28.7744 9.46979 28.72 9.26164 28.6395 9.06309C28.6292 9.02555 28.6113 8.99055 28.5867 8.96033C28.5622 8.93011 28.5316 8.90534 28.497 8.88758C28.4507 8.87554 28.4022 8.875 28.3556 8.886L27.6296 8.99708C27.5689 8.99985 27.5107 9.02246 27.464 9.06144C27.3694 9.16087 27.4626 9.32099 27.4597 9.45818C27.4564 9.61244 27.3193 9.73765 27.1707 9.77908C27.019 9.80974 26.8625 9.8078 26.7116 9.77339L25.6965 9.61564C25.9954 9.52019 26.2615 9.34262 26.4644 9.10318C26.598 8.94493 26.6691 8.64948 26.476 8.57454C26.4186 8.5588 26.3588 8.55399 26.2997 8.56038C25.8398 8.56396 25.4779 8.17996 25.0473 8.01823C24.7717 7.92141 24.4726 7.91421 24.1927 7.99765C23.9128 8.08109 23.6664 8.25091 23.4889 8.48281L24.0296 8.50888C24.0805 8.50608 24.1309 8.51953 24.1737 8.5473C24.2922 8.64467 24.1448 8.83169 24.1615 8.98416C24.1832 9.18225 24.4462 9.22455 24.6445 9.24458C24.8428 9.26461 25.0943 9.4257 24.9989 9.60067C24.0024 9.94391 22.9884 8.9297 21.9418 9.05455C21.6769 9.08615 21.4268 9.1902 21.1682 9.25563C19.5885 9.65533 17.9553 8.58889 16.3415 8.81474C15.9827 8.87591 15.6301 8.9689 15.2878 9.09263C15.0682 9.16475 14.8391 9.24268 14.6795 9.40994C14.5199 9.57719 14.4592 9.86322 14.6104 10.0381C14.1937 10.0724 13.7742 10.0325 13.3714 9.92034C13.4803 9.98088 13.5709 10.0696 13.6337 10.1773C13.6965 10.2849 13.7292 10.4075 13.7283 10.5321C13.0776 10.6382 12.4442 10.8313 11.8451 11.1063C11.9569 11.2923 12.0875 11.4662 12.2348 11.6255L11.4111 12.1547C11.6894 12.2248 11.8333 12.6043 11.6715 12.8413C11.96 12.7129 12.1388 12.3808 12.4474 12.3135C12.6495 12.2694 12.8552 12.3521 13.047 12.4298C13.2388 12.5075 13.4495 12.5828 13.648 12.5245C13.8466 12.4662 13.993 12.2088 13.8668 12.0448C14.7154 11.7972 15.5923 11.6602 16.4759 11.6372C16.544 11.6286 16.6132 11.6417 16.6735 11.6747C16.7885 11.7545 16.7582 11.9268 16.752 12.0667C16.7458 12.2065 16.8548 12.3903 16.9798 12.3273C16.8328 12.4548 16.9585 12.6949 17.0996 12.829C17.2407 12.9631 17.4107 13.1481 17.3243 13.3225C17.3018 13.3681 17.2636 13.4045 17.2419 13.4504C17.1778 13.586 17.2795 13.7441 17.3994 13.8342C17.5193 13.9242 17.6662 13.9872 17.7495 14.1118C17.8328 14.2365 17.7949 14.4548 17.646 14.4722L17.2227 13.9347C17.078 14.0847 16.9789 14.2726 16.9367 14.4766C17.3856 14.8436 17.4531 15.5906 17.0773 16.0321C16.8852 16.2578 16.6121 16.3949 16.3737 16.5709C16.1354 16.7469 15.9148 16.9975 15.9154 17.2938C15.9164 17.8057 15.8746 18.2813 16.0664 18.7559C16.4202 19.631 16.8286 20.4831 17.2892 21.307C17.4102 21.5233 17.5665 21.7604 17.8116 21.7977C17.5019 21.0438 17.2231 20.2781 16.9752 19.5007C17.1366 19.5013 17.3232 19.5141 17.4179 19.6449C17.4962 19.7532 17.4794 19.9005 17.5037 20.032C17.5347 20.1593 17.5864 20.2807 17.6566 20.3914L19.1355 23.0258C19.2581 23.2441 19.3988 23.4786 19.6331 23.567C19.7829 23.6235 19.9562 23.6129 20.0941 23.6943C20.2022 23.7581 20.275 23.8714 20.3851 23.9315C20.6967 24.1014 21.1299 23.7755 21.421 23.9784C21.5043 24.0364 21.5573 24.1286 21.634 24.195C21.9029 24.4279 22.3439 24.2721 22.6544 24.4458C22.8544 24.5578 22.9581 24.7817 23.0648 24.9846C23.3321 25.4928 23.7646 25.9907 24.3374 26.0312C24.5173 26.0439 24.7011 26.0098 24.877 26.0498C25.0529 26.0898 25.226 26.2433 25.1978 26.4215C25.1494 26.7269 25.3003 27.0614 25.2597 27.3679C25.1859 27.9264 24.3938 28.1718 24.3258 28.7309C24.3109 28.8534 24.3342 28.9797 24.305 29.0996C24.2693 29.2465 24.159 29.366 24.1198 29.512C24.0455 29.7887 24.2438 30.064 24.4615 30.2502C24.6792 30.4363 24.939 30.5968 25.058 30.8573C25.1839 31.1327 25.122 31.4538 25.163 31.7538C25.2523 32.4088 25.818 32.8943 26.4002 33.2073C26.5775 33.3027 26.768 33.3951 26.8828 33.5605C27.0326 33.7765 27.0177 34.0612 27.0677 34.3193C27.1903 34.9513 27.7223 35.472 27.7374 36.1156C27.7481 36.573 27.4939 36.988 27.342 37.4196C27.1996 37.8332 27.148 38.2725 27.1909 38.7078C27.2337 39.1431 27.37 39.564 27.5903 39.9418C27.7039 40.1336 27.8398 40.3145 27.9202 40.5225C28.0637 40.8937 28.0171 41.3157 28.1494 41.691C28.3242 42.1872 28.8047 42.597 28.7587 43.1211C28.9768 43.574 29.4585 43.7966 29.9428 43.9314L30.8109 44.1731C30.9771 44.2193 31.1508 44.266 31.32 44.2325C31.4893 44.199 31.6508 44.0584 31.6464 43.886C31.2207 43.79 30.7814 43.6879 30.4305 43.4285C30.0796 43.1691 29.8392 42.7072 29.9724 42.2916C30.0341 42.0989 30.1654 41.8764 30.0406 41.7172C29.9691 41.626 29.8383 41.6022 29.7577 41.519C29.6319 41.3893 29.6751 41.1713 29.7656 41.0149C29.856 40.8584 29.9867 40.7186 30.0232 40.5417C30.0416 40.4427 30.0293 40.3404 29.9879 40.2486C29.9465 40.1567 29.8781 40.0798 29.7917 40.028C29.9527 39.9672 30.0991 39.8733 30.2214 39.7523C30.3344 39.6233 30.3865 39.4243 30.2977 39.2776C30.5616 39.3111 30.8732 39.3275 31.0465 39.1256C31.1848 38.9644 31.1753 38.7233 31.1207 38.518C31.066 38.3127 30.9736 38.1133 30.9707 37.9009C31.5796 37.9297 32.1898 37.909 32.7953 37.839C32.7078 37.5441 32.5088 37.2949 32.2406 37.1443C32.5148 37.0978 32.7647 36.7695 32.8513 36.5052C32.9379 36.2409 32.9158 35.953 32.8623 35.6801C32.8417 35.6098 32.8389 35.5356 32.8541 35.4639C32.885 35.3655 32.9817 35.3055 33.0711 35.2541L34.4323 34.4723C34.5136 34.4316 34.5872 34.3773 34.65 34.3116C34.7926 34.1441 34.7715 33.8912 34.6985 33.6837C34.6254 33.4762 34.5085 33.281 34.4803 33.0628C34.3962 32.4103 35.0948 31.942 35.3305 31.3277C35.4231 31.0867 35.4419 30.8246 35.4598 30.567C35.479 30.2904 35.4805 29.969 35.268 29.7907C35.0644 29.6198 34.7462 29.658 34.5332 29.499C34.3378 29.3532 34.2704 29.0702 34.057 28.9525C33.8632 28.8455 33.6202 28.9135 33.4046 28.8633C33.0251 28.7747 32.7862 28.3373 32.3986 28.2968C32.1799 28.274 31.9324 28.3809 31.7532 28.2535C31.5952 28.1413 31.5889 27.9157 31.5588 27.7243C31.5062 27.4268 31.3636 27.1526 31.1503 26.9387C30.937 26.7247 30.6633 26.5812 30.366 26.5276C30.1405 26.4914 29.8951 26.5052 29.7032 26.3813C29.509 26.2558 29.4199 26.0209 29.2674 25.8471C29.0214 25.567 28.6342 25.4675 28.2713 25.3822L26.7956 25.0353C26.5336 24.9737 26.196 24.9411 26.0554 25.1706C26.0138 25.2579 25.9843 25.3506 25.9678 25.446C25.9151 25.6185 25.8091 25.7698 25.665 25.8783C25.5209 25.9868 25.3461 26.0467 25.1658 26.0496C25.0421 25.8387 24.8417 25.6836 24.6065 25.6169C24.4568 25.5752 24.2967 25.5705 24.1539 25.5092C24.0762 25.4712 24.007 25.4178 23.9507 25.3522C23.8943 25.2866 23.8519 25.2102 23.8261 25.1277C23.8003 25.0451 23.7916 24.9582 23.8005 24.8722C23.8095 24.7861 23.8359 24.7028 23.8781 24.6274C23.9632 24.4759 23.9961 24.3006 23.9716 24.1286C23.9472 23.9566 23.8668 23.7974 23.7429 23.6756C23.4919 23.4503 23.1289 23.3958 22.7924 23.4184C22.7043 23.2261 22.8516 23.0091 23.0104 22.8694C23.1692 22.7296 23.3621 22.5922 23.3966 22.3835C23.451 22.0552 23.0322 21.8059 22.7141 21.9038C22.3961 22.0017 22.1931 22.3106 22.0589 22.6151C21.982 22.7898 21.9165 22.9738 21.7951 23.1211C21.6736 23.2684 21.4781 23.3739 21.2931 23.3266C21.0312 23.2597 20.9301 22.9485 20.8721 22.6845C20.7944 22.3303 20.7161 21.9712 20.7324 21.6089C20.7487 21.2467 20.8709 20.8747 21.138 20.6294C21.5733 20.2298 22.2411 20.269 22.8286 20.3327C22.6898 20.1763 22.7241 19.9128 22.8726 19.7656C22.951 19.6959 23.0452 19.6464 23.1471 19.6214C23.2489 19.5964 23.3553 19.5966 23.4571 19.622C23.6341 19.6588 23.7936 19.7542 23.9098 19.8927C24.0768 20.0962 24.1243 20.3711 24.2505 20.6021C24.3766 20.8331 24.6604 21.0302 24.8926 20.9063C25.0932 20.7992 25.1251 20.521 25.0752 20.2992C25.0252 20.0774 24.9192 19.8616 24.9373 19.635C24.9718 19.2025 25.4201 18.9421 25.8157 18.764C26.2114 18.5859 26.6644 18.3464 26.7271 17.917C26.7292 17.833 26.7451 17.7498 26.774 17.6709C26.8179 17.6012 26.8789 17.5438 26.9512 17.5043C28.1058 16.7412 29.2797 15.9689 30.5994 15.5519C30.668 15.5302 30.6761 15.5543 30.746 15.5373C30.844 15.4807 30.7791 15.3242 30.6852 15.2611C30.5913 15.198 30.4658 15.1496 30.442 15.0391C30.4245 14.9578 30.4724 14.878 30.4848 14.7958C30.5154 14.5937 30.2737 14.4072 30.086 14.488C29.98 14.3476 30.1898 14.1845 30.3594 14.1378C30.8687 13.9976 31.3915 13.9122 31.919 13.883C31.9798 13.8733 32.0422 13.8839 32.0964 13.9132C32.185 13.9746 32.1737 14.1153 32.1109 14.2029C32.0481 14.2905 31.9505 14.3455 31.8722 14.4196C31.7868 14.5029 31.7258 14.608 31.696 14.7236C31.6662 14.8391 31.6687 14.9606 31.7033 15.0749C31.9786 15.2149 32.278 15.3591 32.5829 15.3098C32.8879 15.2604 33.1586 14.9178 33.0152 14.6441C32.8817 14.3893 32.4808 14.3318 32.4118 14.0525C32.3311 13.7255 32.794 13.4346 32.6897 13.1144C32.644 12.9741 32.5042 12.8915 32.3969 12.7902C32.2702 12.666 32.1841 12.5064 32.1497 12.3324C32.1154 12.1583 32.1344 11.978 32.2045 11.815C32.0297 11.8457 31.8501 11.8341 31.6808 11.7811C31.5115 11.7281 31.3573 11.6353 31.2313 11.5104C30.9985 11.2755 30.8128 10.9049 30.4822 10.9154C30.1789 10.9251 29.9176 11.2789 29.634 11.171C29.5642 11.1444 29.4906 11.0904 29.423 11.122C29.4009 11.1364 29.3823 11.1557 29.3686 11.1783C29.355 11.2009 29.3467 11.2263 29.3443 11.2527C29.2723 11.5973 29.3963 11.9899 29.2084 12.2877C29.0041 12.6117 28.5313 12.6567 28.2835 12.9489C28.149 13.1075 28.0969 13.3212 27.9733 13.4885C27.8497 13.6557 27.5873 13.762 27.4389 13.6163C27.5118 13.4664 27.5317 13.2962 27.4954 13.1335C27.459 12.9708 27.3686 12.8253 27.2388 12.7206C27.101 12.6308 26.9526 12.5586 26.7968 12.5057C26.6228 12.432 26.4573 12.3397 26.3031 12.2305C26.2258 12.1839 26.1631 12.1167 26.1218 12.0365C26.0892 11.9361 26.0936 11.8273 26.1342 11.7298C26.2094 11.5141 26.3422 11.3231 26.518 11.1773C26.6939 11.0315 26.9063 10.9366 27.1322 10.9027C27.3297 10.8758 27.5597 10.8852 27.6904 10.7347C27.7596 10.6551 27.7959 10.5347 27.8963 10.5023C27.9605 10.4894 28.0272 10.4976 28.0863 10.5257L28.8237 10.7853C28.9059 10.8224 28.9965 10.8374 29.0863 10.8287C29.1309 10.8227 29.1715 10.8001 29.2001 10.7654C29.2286 10.7307 29.243 10.6864 29.2403 10.6416C29.2168 10.5191 29.0283 10.4604 29.0455 10.3369C29.0551 10.2968 29.0766 10.2607 29.1072 10.2331C29.3733 9.94991 29.6987 9.72902 30.0602 9.58629C30.4216 9.44355 30.8101 9.3825 31.198 9.4075C31.291 9.56034 31.1438 9.74134 31.0214 9.87182C30.8989 10.0023 30.8005 10.2354 30.9486 10.3359C31.0093 10.3668 31.0768 10.3821 31.1449 10.3801C31.3264 10.4047 31.5029 10.4582 31.6675 10.5386C31.9223 10.6495 32.1722 10.7708 32.4172 10.9025C32.3955 10.741 32.3749 10.5708 32.4361 10.4198C32.4973 10.2687 32.6714 10.1502 32.8234 10.209C32.9699 10.2657 33.045 10.4597 33.2011 10.4775C33.4092 10.5012 33.4914 10.1936 33.4044 10.003C33.3175 9.81235 33.1453 9.65272 33.1309 9.44368C33.1212 9.30266 33.1749 9.12775 33.0622 9.04236C33.0222 9.01672 32.9767 9.00076 32.9293 8.99575L30.1166 8.47815C29.9495 8.44741 29.7082 8.47097 29.7008 8.64064C29.6967 8.73535 29.7813 8.82905 29.7438 8.91613C29.7038 9.00906 29.5724 9.00057 29.4767 9.03344C29.3283 9.08444 29.2537 9.26075 29.268 9.41709C29.2941 9.57244 29.3543 9.72008 29.4442 9.84943C29.2612 9.77292 28.9842 9.75886 28.8013 9.68234Z" fill="#265A2C"/>
<path d="M37.1924 12.889V27.1078H34.2627V12.889H37.1924ZM42.8564 18.9633V21.2484H36.3916V18.9633H42.8564ZM43.54 12.889V15.184H36.3916V12.889H43.54Z" fill="#F3B817"/>
<path d="M29.3408 23.3871C29.3408 23.1332 29.3018 22.9053 29.2236 22.7035C29.152 22.4952 29.0153 22.3064 28.8135 22.1371C28.6117 21.9613 28.3285 21.7888 27.9639 21.6195C27.5993 21.4502 27.1273 21.2745 26.5479 21.0922C25.9033 20.8838 25.2913 20.6495 24.7119 20.389C24.139 20.1286 23.6312 19.8259 23.1885 19.4808C22.7523 19.1293 22.4072 18.7224 22.1533 18.2601C21.9059 17.7979 21.7822 17.2608 21.7822 16.6488C21.7822 16.0564 21.9124 15.5192 22.1729 15.0375C22.4333 14.5492 22.7979 14.1325 23.2666 13.7875C23.7354 13.4359 24.2887 13.1657 24.9268 12.9769C25.5713 12.7881 26.2777 12.6937 27.0459 12.6937C28.0941 12.6937 29.0088 12.8825 29.79 13.2601C30.5713 13.6377 31.1768 14.1553 31.6064 14.8129C32.0426 15.4704 32.2607 16.2224 32.2607 17.0687H29.3506C29.3506 16.6521 29.2627 16.2875 29.0869 15.975C28.9176 15.656 28.6572 15.4053 28.3057 15.223C27.9606 15.0407 27.5244 14.9496 26.9971 14.9496C26.4893 14.9496 26.0661 15.0277 25.7275 15.184C25.389 15.3337 25.1351 15.5388 24.9658 15.7992C24.7965 16.0531 24.7119 16.3396 24.7119 16.6586C24.7119 16.8995 24.7705 17.1176 24.8877 17.3129C25.0114 17.5082 25.1937 17.6905 25.4346 17.8597C25.6755 18.029 25.9717 18.1885 26.3232 18.3383C26.6748 18.488 27.0817 18.6345 27.5439 18.7777C28.3187 19.0121 28.999 19.2758 29.585 19.5687C30.1774 19.8617 30.6722 20.1905 31.0693 20.5551C31.4665 20.9196 31.766 21.333 31.9678 21.7953C32.1696 22.2575 32.2705 22.7816 32.2705 23.3676C32.2705 23.986 32.1501 24.5394 31.9092 25.0277C31.6683 25.516 31.32 25.9294 30.8643 26.2679C30.4085 26.6065 29.8649 26.8636 29.2334 27.0394C28.6019 27.2152 27.8955 27.3031 27.1143 27.3031C26.4111 27.3031 25.7178 27.212 25.0342 27.0297C24.3506 26.8409 23.7288 26.5577 23.1689 26.1801C22.6156 25.8024 22.1729 25.3207 21.8408 24.7347C21.5088 24.1488 21.3428 23.4554 21.3428 22.6547H24.2822C24.2822 23.0974 24.3506 23.4717 24.4873 23.7777C24.624 24.0837 24.8161 24.3311 25.0635 24.5199C25.3174 24.7087 25.6169 24.8454 25.9619 24.9301C26.3135 25.0147 26.6976 25.057 27.1143 25.057C27.6221 25.057 28.0387 24.9854 28.3643 24.8422C28.6963 24.6989 28.9404 24.5004 29.0967 24.2465C29.2594 23.9926 29.3408 23.7061 29.3408 23.3871Z" fill="#F3B817"/>
<path d="M17.0947 22.391H20.0146C19.9561 23.348 19.6924 24.1976 19.2236 24.9398C18.7614 25.682 18.1136 26.2614 17.2803 26.6781C16.4535 27.0948 15.4574 27.3031 14.292 27.3031C13.3805 27.3031 12.5635 27.1469 11.8408 26.8344C11.1182 26.5153 10.4997 26.0596 9.98535 25.4672C9.47754 24.8747 9.09017 24.1586 8.82324 23.3187C8.55632 22.4789 8.42285 21.5381 8.42285 20.4965V19.5101C8.42285 18.4685 8.55957 17.5277 8.83301 16.6879C9.11296 15.8415 9.51009 15.1221 10.0244 14.5297C10.5452 13.9372 11.167 13.4815 11.8896 13.1625C12.6123 12.8435 13.4196 12.684 14.3115 12.684C15.4964 12.684 16.4958 12.8988 17.3096 13.3285C18.1299 13.7582 18.7646 14.3506 19.2139 15.1058C19.6696 15.861 19.943 16.7204 20.0342 17.684H17.1045C17.0719 17.111 16.958 16.626 16.7627 16.2289C16.5674 15.8252 16.2712 15.5225 15.874 15.3207C15.4834 15.1123 14.9626 15.0082 14.3115 15.0082C13.8232 15.0082 13.3968 15.0993 13.0322 15.2816C12.6676 15.4639 12.3617 15.7406 12.1143 16.1117C11.8669 16.4828 11.6813 16.9515 11.5576 17.5179C11.4404 18.0778 11.3818 18.7354 11.3818 19.4906V20.4965C11.3818 21.2321 11.4372 21.8799 11.5479 22.4398C11.6585 22.9932 11.8278 23.462 12.0557 23.8461C12.29 24.2237 12.5895 24.5101 12.9541 24.7054C13.3252 24.8942 13.7712 24.9886 14.292 24.9886C14.904 24.9886 15.4085 24.891 15.8057 24.6957C16.2028 24.5004 16.5055 24.2107 16.7139 23.8265C16.9287 23.4424 17.0557 22.9639 17.0947 22.391Z" fill="#F3B817"/>
<path d="M42.6843 30.7524C42.6843 30.8364 42.6637 30.9097 42.6223 30.9724C42.581 31.035 42.521 31.0837 42.4423 31.1184C42.365 31.1517 42.2703 31.1684 42.1583 31.1684C42.109 31.1684 42.0603 31.165 42.0123 31.1584C41.9657 31.1517 41.9203 31.1424 41.8763 31.1304C41.8337 31.117 41.793 31.101 41.7543 31.0824V30.8004C41.8223 30.8297 41.8923 30.857 41.9643 30.8824C42.0377 30.9064 42.1103 30.9184 42.1823 30.9184C42.2317 30.9184 42.271 30.9117 42.3003 30.8984C42.331 30.885 42.353 30.867 42.3663 30.8444C42.381 30.8217 42.3883 30.7957 42.3883 30.7664C42.3883 30.7304 42.3757 30.6997 42.3503 30.6744C42.3263 30.649 42.2937 30.6257 42.2523 30.6044C42.211 30.5817 42.1637 30.5577 42.1103 30.5324C42.077 30.5164 42.041 30.4977 42.0023 30.4764C41.9637 30.4537 41.9263 30.4264 41.8903 30.3944C41.8557 30.361 41.827 30.321 41.8043 30.2744C41.7817 30.2277 41.7703 30.1717 41.7703 30.1064C41.7703 30.021 41.7897 29.9484 41.8283 29.8884C41.8683 29.827 41.9243 29.7804 41.9963 29.7484C42.0697 29.7164 42.1557 29.7004 42.2543 29.7004C42.329 29.7004 42.3997 29.709 42.4663 29.7264C42.5343 29.7437 42.605 29.7684 42.6783 29.8004L42.5803 30.0364C42.515 30.0097 42.4563 29.989 42.4043 29.9744C42.3523 29.9597 42.299 29.9524 42.2443 29.9524C42.207 29.9524 42.175 29.9584 42.1483 29.9704C42.1216 29.9824 42.101 29.999 42.0863 30.0204C42.073 30.0417 42.0663 30.067 42.0663 30.0964C42.0663 30.1297 42.0763 30.1584 42.0963 30.1824C42.1163 30.205 42.1463 30.227 42.1863 30.2484C42.2263 30.2697 42.2763 30.295 42.3363 30.3244C42.4097 30.359 42.4717 30.395 42.5223 30.4324C42.5743 30.4697 42.6143 30.5137 42.6423 30.5644C42.6703 30.615 42.6843 30.6777 42.6843 30.7524Z" fill="#F3B817"/>
<path d="M41.3355 31.1484L41.2315 30.8084H40.7115L40.6075 31.1484H40.2815L40.7855 29.7144H41.1555L41.6615 31.1484H41.3355ZM41.0555 30.2224C41.0488 30.1997 41.0401 30.171 41.0295 30.1364C41.0188 30.1017 41.0081 30.0664 40.9975 30.0304C40.9868 29.9944 40.9781 29.963 40.9715 29.9364C40.9648 29.963 40.9555 29.9964 40.9435 30.0364C40.9328 30.075 40.9221 30.1124 40.9115 30.1484C40.9021 30.183 40.8948 30.2077 40.8895 30.2224L40.7875 30.5544H41.1595L41.0555 30.2224Z" fill="#F3B817"/>
<path d="M39.5571 29.7204C39.6865 29.7204 39.7931 29.7364 39.8771 29.7684C39.9611 29.799 40.0238 29.8464 40.0651 29.9104C40.1065 29.973 40.1271 30.0524 40.1271 30.1484C40.1271 30.2137 40.1145 30.271 40.0891 30.3204C40.0651 30.3684 40.0325 30.4097 39.9911 30.4444C39.9511 30.4777 39.9078 30.505 39.8611 30.5264L40.2811 31.1484H39.9451L39.6051 30.6004H39.4431V31.1484H39.1411V29.7204H39.5571ZM39.5351 29.9684H39.4431V30.3544H39.5411C39.6078 30.3544 39.6618 30.347 39.7031 30.3324C39.7445 30.3177 39.7745 30.2957 39.7931 30.2664C39.8118 30.2357 39.8211 30.199 39.8211 30.1564C39.8211 30.111 39.8105 30.075 39.7891 30.0484C39.7691 30.0204 39.7378 30.0004 39.6951 29.9884C39.6538 29.975 39.6005 29.9684 39.5351 29.9684Z" fill="#F3B817"/>
<path d="M38.844 31.1484H38.022V29.7204H38.844V29.9684H38.324V30.2824H38.808V30.5304H38.324V30.8984H38.844V31.1484Z" fill="#F3B817"/>
<path d="M37.4138 31.1484H37.1118V29.9724H36.7238V29.7204H37.8018V29.9724H37.4138V31.1484Z" fill="#F3B817"/>
<path d="M36.5028 31.1484H36.1188L35.4968 30.0684H35.4889C35.4902 30.1017 35.4915 30.1357 35.4928 30.1704C35.4942 30.2037 35.4955 30.2377 35.4968 30.2724C35.4995 30.3057 35.5015 30.3397 35.5028 30.3744C35.5042 30.4077 35.5055 30.4417 35.5068 30.4764V31.1484H35.2368V29.7204H35.6188L36.2389 30.7904H36.2449C36.2435 30.757 36.2422 30.7244 36.2408 30.6924C36.2395 30.659 36.2382 30.6264 36.2368 30.5944C36.2368 30.561 36.2362 30.5284 36.2348 30.4964C36.2335 30.463 36.2322 30.4297 36.2308 30.3964V29.7204H36.5028V31.1484Z" fill="#F3B817"/>
<path d="M34.9411 30.4324C34.9411 30.543 34.9271 30.6437 34.8991 30.7344C34.8724 30.8237 34.8311 30.901 34.7751 30.9664C34.7204 31.0317 34.6497 31.0817 34.5631 31.1164C34.4777 31.151 34.3771 31.1684 34.2611 31.1684C34.1451 31.1684 34.0437 31.151 33.9571 31.1164C33.8717 31.0804 33.8011 31.0304 33.7451 30.9664C33.6904 30.901 33.6491 30.823 33.6211 30.7324C33.5944 30.6417 33.5811 30.541 33.5811 30.4304C33.5811 30.2824 33.6051 30.1537 33.6531 30.0444C33.7024 29.935 33.7771 29.8504 33.8771 29.7904C33.9784 29.729 34.1071 29.6984 34.2631 29.6984C34.4177 29.6984 34.5451 29.729 34.6451 29.7904C34.7451 29.8504 34.8191 29.9357 34.8671 30.0464C34.9164 30.1557 34.9411 30.2844 34.9411 30.4324ZM33.8991 30.4324C33.8991 30.5324 33.9117 30.6184 33.9371 30.6904C33.9624 30.7624 34.0017 30.8177 34.0551 30.8564C34.1084 30.895 34.1771 30.9144 34.2611 30.9144C34.3477 30.9144 34.4171 30.895 34.4691 30.8564C34.5224 30.8177 34.5611 30.7624 34.5851 30.6904C34.6104 30.6184 34.6231 30.5324 34.6231 30.4324C34.6231 30.2817 34.5951 30.1637 34.5391 30.0784C34.4831 29.993 34.3911 29.9504 34.2631 29.9504C34.1777 29.9504 34.1084 29.9697 34.0551 30.0084C34.0017 30.047 33.9624 30.1024 33.9371 30.1744C33.9117 30.2464 33.8991 30.3324 33.8991 30.4324Z" fill="#F3B817"/>
<path d="M32.7407 29.7204C32.8701 29.7204 32.9767 29.7364 33.0607 29.7684C33.1447 29.799 33.2074 29.8464 33.2487 29.9104C33.2901 29.973 33.3107 30.0524 33.3107 30.1484C33.3107 30.2137 33.2981 30.271 33.2727 30.3204C33.2487 30.3684 33.2161 30.4097 33.1747 30.4444C33.1347 30.4777 33.0914 30.505 33.0447 30.5264L33.4647 31.1484H33.1287L32.7887 30.6004H32.6267V31.1484H32.3247V29.7204H32.7407ZM32.7187 29.9684H32.6267V30.3544H32.7247C32.7914 30.3544 32.8454 30.347 32.8867 30.3324C32.9281 30.3177 32.9581 30.2957 32.9767 30.2664C32.9954 30.2357 33.0047 30.199 33.0047 30.1564C33.0047 30.111 32.9941 30.075 32.9727 30.0484C32.9527 30.0204 32.9214 30.0004 32.8787 29.9884C32.8374 29.975 32.7841 29.9684 32.7187 29.9684Z" fill="#F3B817"/>
<path d="M31.5251 31.1484H31.2271V29.7204H32.0451V29.9684H31.5251V30.3364H32.0091V30.5844H31.5251V31.1484Z" fill="#F3B817"/>
<path d="M30.0849 31.1484H29.7009L29.0789 30.0684H29.0709C29.0722 30.1017 29.0735 30.1357 29.0749 30.1704C29.0762 30.2037 29.0775 30.2377 29.0789 30.2724C29.0815 30.3057 29.0835 30.3397 29.0849 30.3744C29.0862 30.4077 29.0875 30.4417 29.0889 30.4764V31.1484H28.8189V29.7204H29.2009L29.8209 30.7904H29.8269C29.8255 30.757 29.8242 30.7244 29.8229 30.6924C29.8215 30.659 29.8202 30.6264 29.8189 30.5944C29.8189 30.561 29.8182 30.5284 29.8169 30.4964C29.8155 30.463 29.8142 30.4297 29.8129 30.3964V29.7204H30.0849V31.1484Z" fill="#F3B817"/>
<path d="M28.5755 31.1484H27.9255V30.9764L28.0995 30.8964V29.9724L27.9255 29.8924V29.7204H28.5755V29.8924L28.4015 29.9724V30.8964L28.5755 30.9764V31.1484Z" fill="#F3B817"/>
<path d="M27.782 30.7524C27.782 30.8364 27.7613 30.9097 27.72 30.9724C27.6786 31.035 27.6186 31.0837 27.54 31.1184C27.4626 31.1517 27.368 31.1684 27.256 31.1684C27.2066 31.1684 27.158 31.165 27.11 31.1584C27.0633 31.1517 27.018 31.1424 26.974 31.1304C26.9313 31.117 26.8906 31.101 26.852 31.0824V30.8004C26.92 30.8297 26.99 30.857 27.062 30.8824C27.1353 30.9064 27.208 30.9184 27.28 30.9184C27.3293 30.9184 27.3686 30.9117 27.398 30.8984C27.4286 30.885 27.4506 30.867 27.464 30.8444C27.4786 30.8217 27.486 30.7957 27.486 30.7664C27.486 30.7304 27.4733 30.6997 27.448 30.6744C27.424 30.649 27.3913 30.6257 27.35 30.6044C27.3086 30.5817 27.2613 30.5577 27.208 30.5324C27.1746 30.5164 27.1386 30.4977 27.1 30.4764C27.0613 30.4537 27.024 30.4264 26.988 30.3944C26.9533 30.361 26.9246 30.321 26.902 30.2744C26.8793 30.2277 26.868 30.1717 26.868 30.1064C26.868 30.021 26.8873 29.9484 26.926 29.8884C26.966 29.827 27.022 29.7804 27.094 29.7484C27.1673 29.7164 27.2533 29.7004 27.352 29.7004C27.4266 29.7004 27.4973 29.709 27.564 29.7264C27.632 29.7437 27.7026 29.7684 27.776 29.8004L27.678 30.0364C27.6126 30.0097 27.554 29.989 27.502 29.9744C27.45 29.9597 27.3966 29.9524 27.342 29.9524C27.3046 29.9524 27.2726 29.9584 27.246 29.9704C27.2193 29.9824 27.1986 29.999 27.184 30.0204C27.1706 30.0417 27.164 30.067 27.164 30.0964C27.164 30.1297 27.174 30.1584 27.194 30.1824C27.214 30.205 27.244 30.227 27.284 30.2484C27.324 30.2697 27.374 30.295 27.434 30.3244C27.5073 30.359 27.5693 30.395 27.62 30.4324C27.672 30.4697 27.712 30.5137 27.74 30.5644C27.768 30.615 27.782 30.6777 27.782 30.7524Z" fill="#F3B817"/>
<path d="M25.6519 31.1484L25.5479 30.8084H25.0279L24.9239 31.1484H24.5979L25.1019 29.7144H25.4719L25.9779 31.1484H25.6519ZM25.3719 30.2224C25.3652 30.1997 25.3565 30.171 25.3459 30.1364C25.3352 30.1017 25.3245 30.0664 25.3139 30.0304C25.3032 29.9944 25.2945 29.963 25.2879 29.9364C25.2812 29.963 25.2719 29.9964 25.2599 30.0364C25.2492 30.075 25.2385 30.1124 25.2279 30.1484C25.2185 30.183 25.2112 30.2077 25.2059 30.2224L25.1039 30.5544H25.4759L25.3719 30.2224Z" fill="#F3B817"/>
<path d="M24.1104 29.9524C24.0531 29.9524 24.0018 29.9637 23.9564 29.9864C23.9124 30.009 23.8751 30.0417 23.8444 30.0844C23.8138 30.1257 23.7904 30.1764 23.7744 30.2364C23.7598 30.2964 23.7524 30.3637 23.7524 30.4384C23.7524 30.5397 23.7644 30.6264 23.7884 30.6984C23.8138 30.769 23.8531 30.823 23.9064 30.8604C23.9598 30.8977 24.0278 30.9164 24.1104 30.9164C24.1691 30.9164 24.2271 30.9097 24.2844 30.8964C24.3431 30.883 24.4064 30.8644 24.4744 30.8404V31.0944C24.4118 31.1197 24.3498 31.1384 24.2884 31.1504C24.2271 31.1624 24.1584 31.1684 24.0824 31.1684C23.9358 31.1684 23.8144 31.1384 23.7184 31.0784C23.6238 31.017 23.5538 30.9317 23.5084 30.8224C23.4631 30.7117 23.4404 30.583 23.4404 30.4364C23.4404 30.3284 23.4551 30.2297 23.4844 30.1404C23.5138 30.0497 23.5564 29.9717 23.6124 29.9064C23.6698 29.841 23.7398 29.7904 23.8224 29.7544C23.9064 29.7184 24.0024 29.7004 24.1104 29.7004C24.1811 29.7004 24.2518 29.7097 24.3224 29.7284C24.3944 29.7457 24.4631 29.7697 24.5284 29.8004L24.4304 30.0464C24.3771 30.021 24.3231 29.999 24.2684 29.9804C24.2151 29.9617 24.1624 29.9524 24.1104 29.9524Z" fill="#F3B817"/>
<path d="M23.2611 31.1484H22.6111V30.9764L22.7851 30.8964V29.9724L22.6111 29.8924V29.7204H23.2611V29.8924L23.0871 29.9724V30.8964L23.2611 30.9764V31.1484Z" fill="#F3B817"/>
<path d="M21.8228 29.7204C21.9521 29.7204 22.0588 29.7364 22.1428 29.7684C22.2268 29.799 22.2894 29.8464 22.3308 29.9104C22.3721 29.973 22.3928 30.0524 22.3928 30.1484C22.3928 30.2137 22.3801 30.271 22.3548 30.3204C22.3308 30.3684 22.2981 30.4097 22.2568 30.4444C22.2168 30.4777 22.1734 30.505 22.1268 30.5264L22.5468 31.1484H22.2108L21.8708 30.6004H21.7088V31.1484H21.4068V29.7204H21.8228ZM21.8008 29.9684H21.7088V30.3544H21.8068C21.8734 30.3544 21.9274 30.347 21.9688 30.3324C22.0101 30.3177 22.0401 30.2957 22.0588 30.2664C22.0774 30.2357 22.0868 30.199 22.0868 30.1564C22.0868 30.111 22.0761 30.075 22.0548 30.0484C22.0348 30.0204 22.0034 30.0004 21.9608 29.9884C21.9194 29.975 21.8661 29.9684 21.8008 29.9684Z" fill="#F3B817"/>
<path d="M21.1096 31.1484H20.2876V29.7204H21.1096V29.9684H20.5896V30.2824H21.0736V30.5304H20.5896V30.8984H21.1096V31.1484Z" fill="#F3B817"/>
<path d="M19.0049 31.1484L18.6609 30.0284H18.6529C18.6542 30.055 18.6562 30.095 18.6589 30.1484C18.6616 30.2017 18.6642 30.259 18.6669 30.3204C18.6696 30.3804 18.6709 30.435 18.6709 30.4844V31.1484H18.4009V29.7204H18.8129L19.1509 30.8124H19.1569L19.5149 29.7204H19.9269V31.1484H19.6449V30.4724C19.6449 30.427 19.6456 30.375 19.6469 30.3164C19.6496 30.2577 19.6516 30.2024 19.6529 30.1504C19.6556 30.097 19.6576 30.057 19.6589 30.0304H19.6509L19.2829 31.1484H19.0049Z" fill="#F3B817"/>
<path d="M17.8941 31.1484L17.7901 30.8084H17.2701L17.1661 31.1484H16.8401L17.3441 29.7144H17.7141L18.2201 31.1484H17.8941ZM17.6141 30.2224C17.6074 30.1997 17.5987 30.171 17.5881 30.1364C17.5774 30.1017 17.5667 30.0664 17.5561 30.0304C17.5454 29.9944 17.5367 29.963 17.5301 29.9364C17.5234 29.963 17.5141 29.9964 17.5021 30.0364C17.4914 30.075 17.4807 30.1124 17.4701 30.1484C17.4607 30.183 17.4534 30.2077 17.4481 30.2224L17.3461 30.5544H17.7181L17.6141 30.2224Z" fill="#F3B817"/>
<path d="M16.7633 30.4324C16.7633 30.543 16.7493 30.6437 16.7213 30.7344C16.6947 30.8237 16.6533 30.901 16.5973 30.9664C16.5427 31.0317 16.472 31.0817 16.3853 31.1164C16.3 31.151 16.1993 31.1684 16.0833 31.1684C15.9673 31.1684 15.866 31.151 15.7793 31.1164C15.694 31.0804 15.6233 31.0304 15.5673 30.9664C15.5127 30.901 15.4713 30.823 15.4433 30.7324C15.4167 30.6417 15.4033 30.541 15.4033 30.4304C15.4033 30.2824 15.4273 30.1537 15.4753 30.0444C15.5247 29.935 15.5993 29.8504 15.6993 29.7904C15.8007 29.729 15.9293 29.6984 16.0853 29.6984C16.24 29.6984 16.3673 29.729 16.4673 29.7904C16.5673 29.8504 16.6413 29.9357 16.6893 30.0464C16.7387 30.1557 16.7633 30.2844 16.7633 30.4324ZM15.7213 30.4324C15.7213 30.5324 15.734 30.6184 15.7593 30.6904C15.7847 30.7624 15.824 30.8177 15.8773 30.8564C15.9307 30.895 15.9993 30.9144 16.0833 30.9144C16.17 30.9144 16.2393 30.895 16.2913 30.8564C16.3447 30.8177 16.3833 30.7624 16.4073 30.6904C16.4327 30.6184 16.4453 30.5324 16.4453 30.4324C16.4453 30.2817 16.4173 30.1637 16.3613 30.0784C16.3053 29.993 16.2133 29.9504 16.0853 29.9504C16 29.9504 15.9307 29.9697 15.8773 30.0084C15.824 30.047 15.7847 30.1024 15.7593 30.1744C15.734 30.2464 15.7213 30.3324 15.7213 30.4324Z" fill="#F3B817"/>
<path d="M14.563 29.7204C14.6923 29.7204 14.799 29.7364 14.883 29.7684C14.967 29.799 15.0297 29.8464 15.071 29.9104C15.1123 29.973 15.133 30.0524 15.133 30.1484C15.133 30.2137 15.1203 30.271 15.095 30.3204C15.071 30.3684 15.0383 30.4097 14.997 30.4444C14.957 30.4777 14.9137 30.505 14.867 30.5264L15.287 31.1484H14.951L14.611 30.6004H14.449V31.1484H14.147V29.7204H14.563ZM14.541 29.9684H14.449V30.3544H14.547C14.6137 30.3544 14.6677 30.347 14.709 30.3324C14.7503 30.3177 14.7803 30.2957 14.799 30.2664C14.8177 30.2357 14.827 30.199 14.827 30.1564C14.827 30.111 14.8163 30.075 14.795 30.0484C14.775 30.0204 14.7437 30.0004 14.701 29.9884C14.6597 29.975 14.6063 29.9684 14.541 29.9684Z" fill="#F3B817"/>
<path d="M13.5388 31.1484H13.2368V29.9724H12.8488V29.7204H13.9268V29.9724H13.5388V31.1484Z" fill="#F3B817"/>
<path d="M12.6279 31.1484H12.2439L11.6219 30.0684H11.6139C11.6152 30.1017 11.6165 30.1357 11.6179 30.1704C11.6192 30.2037 11.6205 30.2377 11.6219 30.2724C11.6245 30.3057 11.6265 30.3397 11.6279 30.3744C11.6292 30.4077 11.6305 30.4417 11.6319 30.4764V31.1484H11.3619V29.7204H11.7439L12.3639 30.7904H12.3699C12.3685 30.757 12.3672 30.7244 12.3659 30.6924C12.3645 30.659 12.3632 30.6264 12.3619 30.5944C12.3619 30.561 12.3612 30.5284 12.3599 30.4964C12.3585 30.463 12.3572 30.4297 12.3559 30.3964V29.7204H12.6279V31.1484Z" fill="#F3B817"/>
<path d="M11.0647 31.1484H10.2427V29.7204H11.0647V29.9684H10.5447V30.2824H11.0287V30.5304H10.5447V30.8984H11.0647V31.1484Z" fill="#F3B817"/>
<path d="M9.57527 29.9524C9.51794 29.9524 9.46661 29.9637 9.42127 29.9864C9.37727 30.009 9.33994 30.0417 9.30927 30.0844C9.27861 30.1257 9.25527 30.1764 9.23927 30.2364C9.22461 30.2964 9.21727 30.3637 9.21727 30.4384C9.21727 30.5397 9.22927 30.6264 9.25327 30.6984C9.27861 30.769 9.31794 30.823 9.37127 30.8604C9.42461 30.8977 9.49261 30.9164 9.57527 30.9164C9.63394 30.9164 9.69194 30.9097 9.74927 30.8964C9.80794 30.883 9.87127 30.8644 9.93927 30.8404V31.0944C9.87661 31.1197 9.81461 31.1384 9.75327 31.1504C9.69194 31.1624 9.62327 31.1684 9.54727 31.1684C9.40061 31.1684 9.27927 31.1384 9.18327 31.0784C9.08861 31.017 9.01861 30.9317 8.97327 30.8224C8.92794 30.7117 8.90527 30.583 8.90527 30.4364C8.90527 30.3284 8.91994 30.2297 8.94927 30.1404C8.97861 30.0497 9.02127 29.9717 9.07727 29.9064C9.13461 29.841 9.20461 29.7904 9.28727 29.7544C9.37127 29.7184 9.46727 29.7004 9.57527 29.7004C9.64594 29.7004 9.71661 29.7097 9.78727 29.7284C9.85927 29.7457 9.92794 29.7697 9.99327 29.8004L9.89527 30.0464C9.84194 30.021 9.78794 29.999 9.73327 29.9804C9.67994 29.9617 9.62727 29.9524 9.57527 29.9524Z" fill="#F3B817"/>
<path d="M35.975 44.2438L35.715 43.3938H34.415L34.155 44.2438H33.34L34.6 40.6588H35.525L36.79 44.2438H35.975ZM35.275 41.9288C35.2584 41.8721 35.2367 41.8005 35.21 41.7138C35.1834 41.6271 35.1567 41.5388 35.13 41.4488C35.1034 41.3588 35.0817 41.2805 35.065 41.2138C35.0484 41.2805 35.025 41.3638 34.995 41.4638C34.9684 41.5605 34.9417 41.6538 34.915 41.7438C34.8917 41.8305 34.8734 41.8921 34.86 41.9288L34.605 42.7588H35.535L35.275 41.9288Z" fill="#F3B817"/>
<path d="M30.5832 44.2438L29.7232 41.4438H29.7032C29.7066 41.5105 29.7116 41.6105 29.7182 41.7438C29.7249 41.8771 29.7316 42.0205 29.7382 42.1738C29.7449 42.3238 29.7482 42.4605 29.7482 42.5838V44.2438H29.0732V40.6738H30.1032L30.9482 43.4038H30.9632L31.8582 40.6738H32.8882V44.2438H32.1832V42.5538C32.1832 42.4405 32.1849 42.3105 32.1882 42.1638C32.1949 42.0171 32.1999 41.8788 32.2032 41.7488C32.2099 41.6155 32.2149 41.5155 32.2182 41.4488H32.1982L31.2782 44.2438H30.5832Z" fill="#F3B817"/>
<path d="M27.8061 44.2438L27.5461 43.3938H26.2461L25.9861 44.2438H25.1711L26.4311 40.6588H27.3561L28.6211 44.2438H27.8061ZM27.1061 41.9288C27.0894 41.8721 27.0678 41.8005 27.0411 41.7138C27.0144 41.6271 26.9878 41.5388 26.9611 41.4488C26.9344 41.3588 26.9128 41.2805 26.8961 41.2138C26.8794 41.2805 26.8561 41.3638 26.8261 41.4638C26.7994 41.5605 26.7728 41.6538 26.7461 41.7438C26.7228 41.8305 26.7044 41.8921 26.6911 41.9288L26.4361 42.7588H27.3661L27.1061 41.9288Z" fill="#F3B817"/>
<path d="M24.7187 44.2438H23.7587L22.2037 41.5438H22.1837C22.187 41.6271 22.1904 41.7121 22.1937 41.7988C22.197 41.8821 22.2004 41.9671 22.2037 42.0538C22.2104 42.1371 22.2154 42.2221 22.2187 42.3088C22.222 42.3921 22.2254 42.4771 22.2287 42.5638V44.2438H21.5537V40.6738H22.5087L24.0587 43.3488H24.0737C24.0704 43.2655 24.067 43.1838 24.0637 43.1038C24.0604 43.0205 24.057 42.9388 24.0537 42.8588C24.0537 42.7755 24.052 42.6938 24.0487 42.6138C24.0454 42.5305 24.042 42.4471 24.0387 42.3638V40.6738H24.7187V44.2438Z" fill="#F3B817"/>
<path d="M20.2866 44.2438L20.0266 43.3938H18.7266L18.4666 44.2438H17.6516L18.9116 40.6588H19.8366L21.1016 44.2438H20.2866ZM19.5866 41.9288C19.5699 41.8721 19.5482 41.8005 19.5216 41.7138C19.4949 41.6271 19.4682 41.5388 19.4416 41.4488C19.4149 41.3588 19.3932 41.2805 19.3766 41.2138C19.3599 41.2805 19.3366 41.3638 19.3066 41.4638C19.2799 41.5605 19.2532 41.6538 19.2266 41.7438C19.2032 41.8305 19.1849 41.8921 19.1716 41.9288L18.9166 42.7588H19.8466L19.5866 41.9288Z" fill="#F3B817"/>
<path d="M16.3509 40.6738C16.8109 40.6738 17.1459 40.7738 17.3559 40.9738C17.5693 41.1705 17.6759 41.4421 17.6759 41.7888C17.6759 41.9455 17.6526 42.0955 17.6059 42.2388C17.5593 42.3788 17.4809 42.5055 17.3709 42.6188C17.2643 42.7288 17.1226 42.8155 16.9459 42.8788C16.7693 42.9421 16.5509 42.9738 16.2909 42.9738H15.9659V44.2438H15.2109V40.6738H16.3509ZM16.3109 41.2938H15.9659V42.3538H16.2159C16.3593 42.3538 16.4826 42.3355 16.5859 42.2988C16.6893 42.2621 16.7693 42.2038 16.8259 42.1238C16.8826 42.0438 16.9109 41.9405 16.9109 41.8138C16.9109 41.6371 16.8626 41.5071 16.7659 41.4238C16.6693 41.3371 16.5176 41.2938 16.3109 41.2938Z" fill="#F3B817"/>
</svg>
