<svg width="101" height="101" viewBox="0 0 101 101" fill="none" xmlns="http://www.w3.org/2000/svg">
<path d="M100.776 50.0911C100.776 77.7053 78.3906 100.091 50.7764 100.091C23.1621 100.091 0.776367 77.7053 0.776367 50.0911C0.776367 22.4768 23.1621 0.0910645 50.7764 0.0910645C78.3906 0.0910645 100.776 22.4768 100.776 50.0911Z" fill="#17481F"/>
<path fill-rule="evenodd" clip-rule="evenodd" d="M50.7764 96.5911C76.4576 96.5911 97.2764 75.7723 97.2764 50.0911C97.2764 24.4098 76.4576 3.59106 50.7764 3.59106C25.0951 3.59106 4.27637 24.4098 4.27637 50.0911C4.27637 75.7723 25.0951 96.5911 50.7764 96.5911ZM50.7764 100.091C78.3906 100.091 100.776 77.7053 100.776 50.0911C100.776 22.4768 78.3906 0.0910645 50.7764 0.0910645C23.1621 0.0910645 0.776367 22.4768 0.776367 50.0911C0.776367 77.7053 23.1621 100.091 50.7764 100.091Z" fill="#F3B817"/>
<path d="M56.8266 19.2735C56.7729 18.8484 56.6641 18.4321 56.5031 18.035C56.4826 17.9599 56.4466 17.8899 56.3976 17.8295C56.3485 17.769 56.2874 17.7195 56.2181 17.684C56.1255 17.6599 56.0284 17.6588 55.9353 17.6808L54.4834 17.903C54.3619 17.9085 54.2455 17.9537 54.1521 18.0317C53.963 18.2306 54.1492 18.5508 54.1434 18.8252C54.1369 19.1337 53.8628 19.3841 53.5655 19.467C53.2621 19.5283 52.9491 19.5244 52.6473 19.4556L50.6171 19.1401C51.215 18.9492 51.7472 18.594 52.1529 18.1152C52.4201 17.7987 52.5622 17.2078 52.1761 17.0579C52.0614 17.0264 51.9418 17.0168 51.8235 17.0296C50.9037 17.0367 50.1798 16.2687 49.3187 15.9453C48.7676 15.7516 48.1693 15.7372 47.6095 15.9041C47.0497 16.071 46.557 16.4106 46.2018 16.8744L47.2834 16.9266C47.3851 16.921 47.486 16.9479 47.5714 17.0034C47.8085 17.1981 47.5138 17.5722 47.5472 17.8771C47.5906 18.2733 48.1166 18.3579 48.5131 18.398C48.9097 18.438 49.4127 18.7602 49.222 19.1101C47.229 19.7966 45.2008 17.7682 43.1077 18.0179C42.578 18.0811 42.0777 18.2892 41.5605 18.4201C38.401 19.2195 35.1347 17.0866 31.9071 17.5383C31.1895 17.6606 30.4843 17.8466 29.7998 18.0941C29.3605 18.2383 28.9023 18.3942 28.5831 18.7287C28.264 19.0632 28.1425 19.6353 28.4449 19.985C27.6114 20.0537 26.7725 19.9739 25.9669 19.7495C26.1847 19.8706 26.366 20.0481 26.4915 20.2634C26.6171 20.4786 26.6824 20.7238 26.6806 20.973C25.3793 21.1852 24.1125 21.5715 22.9142 22.1214C23.1379 22.4933 23.3991 22.8413 23.6938 23.1599L22.0464 24.2182C22.603 24.3585 22.8907 25.1174 22.5671 25.5914C23.1441 25.3346 23.5018 24.6705 24.1189 24.5358C24.5232 24.4476 24.9346 24.613 25.3181 24.7684C25.7016 24.9237 26.1232 25.0744 26.5202 24.9578C26.9172 24.8412 27.2101 24.3264 26.9578 23.9984C28.6548 23.5032 30.4087 23.2292 32.1759 23.1831C32.3122 23.166 32.4505 23.1923 32.5711 23.2581C32.8011 23.4177 32.7406 23.7624 32.7282 24.0422C32.7158 24.3219 32.9338 24.6895 33.1838 24.5634C32.8897 24.8185 33.1411 25.2986 33.4233 25.5668C33.7055 25.835 34.0456 26.205 33.8728 26.5539C33.8277 26.645 33.7512 26.7178 33.7079 26.8097C33.5798 27.0809 33.7831 27.3971 34.0229 27.5772C34.2628 27.7573 34.5565 27.8831 34.7231 28.1325C34.8897 28.3819 34.814 28.8184 34.5161 28.8533L33.6695 27.7782C33.3802 28.0782 33.1819 28.454 33.0975 28.8621C33.9953 29.5961 34.1304 31.09 33.3787 31.9731C32.9946 32.4243 32.4484 32.6985 31.9716 33.0505C31.4949 33.4025 31.0537 33.9038 31.0549 34.4964C31.057 35.5202 30.9733 36.4714 31.357 37.4206C32.0644 39.1709 32.8812 40.875 33.8025 42.5228C34.0444 42.9554 34.3571 43.4297 34.8472 43.5042C34.2278 41.9963 33.6702 40.465 33.1745 38.9102C33.4974 38.9114 33.8705 38.9371 34.0598 39.1987C34.2166 39.4153 34.1829 39.7098 34.2316 39.9727C34.2936 40.2274 34.3969 40.4703 34.5374 40.6916L37.4952 45.9603C37.7404 46.3971 38.0217 46.8659 38.4903 47.0428C38.7899 47.1559 39.1365 47.1346 39.4123 47.2974C39.6285 47.425 39.774 47.6516 39.9944 47.7718C40.6175 48.1117 41.4839 47.4598 42.0662 47.8656C42.2327 47.9816 42.3386 48.166 42.492 48.2988C43.0298 48.7646 43.912 48.453 44.5328 48.8004C44.9329 49.0243 45.1403 49.4721 45.3537 49.8779C45.8883 50.8944 46.7532 51.8903 47.8989 51.9712C48.2587 51.9966 48.6263 51.9284 48.9781 52.0084C49.3298 52.0885 49.6761 52.3955 49.6197 52.7518C49.5228 53.3627 49.8247 54.0315 49.7436 54.6447C49.596 55.7616 48.0118 56.2524 47.8757 57.3707C47.8459 57.6156 47.8925 57.8683 47.8342 58.108C47.7628 58.4017 47.5421 58.6409 47.4638 58.9329C47.3152 59.4862 47.7116 60.0369 48.1471 60.4091C48.5826 60.7814 49.1021 61.1024 49.3402 61.6235C49.5918 62.1743 49.4682 62.8165 49.5501 63.4165C49.7287 64.7264 50.8601 65.6974 52.0244 66.3235C52.3792 66.5143 52.7601 66.699 52.9897 67.0299C53.2894 67.4618 53.2595 68.0313 53.3596 68.5474C53.6047 69.8114 54.6687 70.8528 54.6989 72.14C54.7204 73.0549 54.2119 73.8848 53.9081 74.7481C53.6233 75.5751 53.5202 76.4539 53.6059 77.3244C53.6916 78.1949 53.9641 79.0367 54.4047 79.7924C54.632 80.1761 54.9038 80.5379 55.0646 80.9539C55.3514 81.6963 55.2583 82.5401 55.5229 83.2907C55.8726 84.2831 56.8335 85.1028 56.7415 86.151C57.1778 87.0569 58.1411 87.502 59.1098 87.7717L60.8459 88.255C61.1783 88.3475 61.5257 88.4408 61.8641 88.3737C62.2026 88.3067 62.5257 88.0257 62.5169 87.6807C61.6656 87.4887 60.7869 87.2846 60.0851 86.7658C59.3833 86.247 58.9026 85.3232 59.1688 84.492C59.2923 84.1066 59.555 83.6616 59.3053 83.3432C59.1623 83.1608 58.9008 83.1132 58.7395 82.9468C58.488 82.6874 58.5744 82.2515 58.7552 81.9386C58.9361 81.6257 59.1975 81.3461 59.2704 80.9921C59.3073 80.7941 59.2827 80.5896 59.1999 80.4059C59.1172 80.2223 58.9803 80.0684 58.8076 79.9647C59.1295 79.8432 59.4222 79.6554 59.6669 79.4134C59.8928 79.1553 59.9972 78.7575 59.8195 78.4641C60.3473 78.531 60.9706 78.5638 61.3171 78.16C61.5938 77.8376 61.5748 77.3555 61.4655 76.9449C61.3561 76.5343 61.1713 76.1354 61.1656 75.7105C62.3833 75.7683 63.6037 75.7269 64.8148 75.5868C64.6396 74.997 64.2417 74.4986 63.7053 74.1973C64.2538 74.1045 64.7534 73.4479 64.9267 72.9193C65.1 72.3907 65.0558 71.8149 64.9487 71.269C64.9076 71.1285 64.9019 70.9799 64.9323 70.8367C64.9941 70.6399 65.1874 70.5198 65.3663 70.417L68.0888 68.8535C68.2512 68.7721 68.3985 68.6634 68.5241 68.5321C68.8094 68.1971 68.7671 67.6913 68.6211 67.2762C68.475 66.8612 68.2411 66.4709 68.1848 66.0345C68.0166 64.7293 69.4137 63.7929 69.8852 62.5643C70.0702 62.0822 70.1079 61.5581 70.1437 61.0429C70.1822 60.4896 70.1851 59.8468 69.7602 59.4903C69.3529 59.1485 68.7166 59.2247 68.2904 58.9068C67.8997 58.6153 67.7649 58.0492 67.3381 57.8137C66.9505 57.5999 66.4645 57.7359 66.0334 57.6353C65.2743 57.4583 64.7966 56.5834 64.0214 56.5024C63.584 56.4567 63.089 56.6705 62.7305 56.4158C62.4146 56.1913 62.4019 55.7402 62.3418 55.3574C62.2364 54.7625 61.9513 54.2141 61.5247 53.7862C61.0982 53.3582 60.5507 53.0713 59.9561 52.964C59.5051 52.8917 59.0142 52.9192 58.6306 52.6713C58.2421 52.4204 58.064 51.9505 57.7588 51.603C57.267 51.0429 56.4924 50.8439 55.7668 50.6733L52.8153 49.9795C52.2914 49.8563 51.616 49.791 51.3349 50.2499C51.2516 50.4247 51.1927 50.61 51.1597 50.8007C51.0544 51.1457 50.8424 51.4485 50.5542 51.6654C50.2659 51.8823 49.9164 52.0023 49.5557 52.0081C49.3083 51.5862 48.9076 51.2761 48.4371 51.1426C48.1378 51.0591 47.8174 51.0499 47.532 50.9272C47.3765 50.8513 47.2382 50.7445 47.1255 50.6133C47.0127 50.4821 46.9279 50.3293 46.8763 50.1642C46.8247 49.9991 46.8072 49.8252 46.8251 49.6531C46.843 49.4811 46.8959 49.3145 46.9804 49.1636C47.1505 48.8606 47.2162 48.51 47.1674 48.166C47.1185 47.822 46.9577 47.5036 46.7099 47.26C46.208 46.8094 45.4819 46.7005 44.8089 46.7456C44.6327 46.361 44.9274 45.927 45.245 45.6475C45.5626 45.368 45.9483 45.0932 46.0174 44.6758C46.1262 44.0193 45.2885 43.5206 44.6524 43.7164C44.0164 43.9121 43.6104 44.53 43.342 45.139C43.188 45.4884 43.0571 45.8563 42.8143 46.151C42.5714 46.4456 42.1802 46.6566 41.8103 46.562C41.2865 46.4282 41.0843 45.8059 40.9684 45.2779C40.8128 44.5695 40.6564 43.8512 40.689 43.1267C40.7216 42.4021 40.9658 41.6582 41.5001 41.1677C42.3708 40.3684 43.7064 40.4467 44.8814 40.5742C44.6038 40.2615 44.6724 39.7343 44.9694 39.4399C45.1262 39.3006 45.3146 39.2017 45.5183 39.1516C45.722 39.1016 45.9348 39.102 46.1383 39.1528C46.4923 39.2265 46.8113 39.4172 47.0438 39.6942C47.3777 40.1013 47.4726 40.6509 47.725 41.113C47.9774 41.5751 48.5449 41.9692 49.0094 41.7213C49.4106 41.5072 49.4743 40.9509 49.3744 40.5072C49.2746 40.0635 49.0625 39.6321 49.0987 39.1788C49.1677 38.3138 50.0644 37.7931 50.8556 37.4369C51.6469 37.0806 52.5529 36.6015 52.6783 35.7429C52.6825 35.5748 52.7143 35.4085 52.7721 35.2506C52.8599 35.1111 52.9818 34.9964 53.1264 34.9174C55.4357 33.3913 57.7834 31.8465 60.4228 31.0126C60.5602 30.9692 60.5763 31.0175 60.7162 30.9835C60.9121 30.8703 60.7823 30.5571 60.5945 30.431C60.4067 30.3048 60.1557 30.2081 60.1081 29.9869C60.0731 29.8244 60.1689 29.6648 60.1937 29.5003C60.2549 29.0963 59.7715 28.7233 59.3962 28.8848C59.1842 28.604 59.6037 28.2778 59.9429 28.1844C60.9615 27.904 62.0072 27.7332 63.0621 27.6748C63.1838 27.6555 63.3085 27.6767 63.417 27.7352C63.5942 27.8579 63.5715 28.1394 63.446 28.3146C63.3204 28.4898 63.1251 28.5998 62.9686 28.748C62.7977 28.9145 62.6757 29.1248 62.6161 29.3559C62.5565 29.587 62.5615 29.8301 62.6306 30.0585C63.1813 30.3386 63.78 30.627 64.39 30.5283C64.9999 30.4296 65.5412 29.7443 65.2545 29.197C64.9876 28.6874 64.1856 28.5724 64.0477 28.0138C63.8863 27.3598 64.8121 26.7781 64.6035 26.1376C64.5122 25.857 64.2326 25.6918 64.018 25.4893C63.7646 25.2409 63.5922 24.9217 63.5235 24.5736C63.4548 24.2255 63.493 23.8647 63.6331 23.5387C63.2836 23.6002 62.9244 23.577 62.5857 23.471C62.2471 23.365 61.9388 23.1794 61.6867 22.9296C61.2211 22.4598 60.8497 21.7186 60.1886 21.7396C59.5819 21.7589 59.0594 22.4667 58.4921 22.2508C58.3526 22.1976 58.2054 22.0895 58.0702 22.1529C58.0259 22.1817 57.9887 22.2201 57.9614 22.2654C57.9342 22.3106 57.9175 22.3615 57.9128 22.4141C57.7687 23.1033 58.0166 23.8886 57.641 24.4842C57.2322 25.1323 56.2867 25.2221 55.7912 25.8066C55.5222 26.1238 55.418 26.5513 55.1707 26.8858C54.9234 27.2202 54.3986 27.4329 54.1019 27.1414C54.2477 26.8416 54.2876 26.5012 54.2149 26.1758C54.1422 25.8504 53.9613 25.5593 53.7017 25.3501C53.4262 25.1704 53.1292 25.0259 52.8178 24.9202C52.4697 24.7728 52.1386 24.5883 51.8303 24.3698C51.6758 24.2766 51.5503 24.1423 51.4677 23.9819C51.4025 23.781 51.4113 23.5634 51.4925 23.3685C51.643 22.9371 51.9084 22.555 52.2602 22.2634C52.612 21.9719 53.0367 21.7819 53.4885 21.7141C53.8836 21.6604 54.3434 21.6793 54.6049 21.3783C54.7432 21.219 54.8158 20.9782 55.0166 20.9135C55.1451 20.8877 55.2784 20.9041 55.3968 20.9603L56.8714 21.4794C57.036 21.5536 57.2171 21.5836 57.3968 21.5663C57.4859 21.5543 57.5671 21.509 57.6243 21.4396C57.6814 21.3702 57.7101 21.2817 57.7047 21.192C57.6576 20.9471 57.2808 20.8295 57.3151 20.5825C57.3343 20.5025 57.3773 20.4301 57.4385 20.3751C57.9707 19.8086 58.6215 19.3669 59.3444 19.0814C60.0673 18.7959 60.8444 18.6738 61.62 18.7238C61.8062 19.0295 61.5118 19.3915 61.2669 19.6524C61.0219 19.9134 60.8251 20.3797 61.1213 20.5806C61.2427 20.6425 61.3777 20.6729 61.514 20.669C61.877 20.7181 62.2299 20.8251 62.559 20.986C63.0686 21.2077 63.5684 21.4504 64.0584 21.7139C64.0152 21.3908 63.9739 21.0504 64.0963 20.7483C64.2188 20.4462 64.5668 20.2093 64.8708 20.3269C65.1638 20.4403 65.3141 20.8282 65.6262 20.8638C66.0426 20.9112 66.2069 20.2961 66.0329 19.9148C65.859 19.5335 65.5147 19.2143 65.486 18.7962C65.4666 18.5141 65.5739 18.1643 65.3486 17.9935C65.2684 17.9422 65.1774 17.9103 65.0828 17.9003L59.4572 16.8651C59.1232 16.8036 58.6405 16.8508 58.6257 17.1901C58.6174 17.3795 58.7866 17.5669 58.7117 17.7411C58.6317 17.9269 58.369 17.9099 58.1776 17.9757C57.8806 18.0777 57.7316 18.4303 57.7601 18.743C57.8124 19.0537 57.9327 19.349 58.1125 19.6077C57.7466 19.4547 57.1925 19.4265 56.8266 19.2735Z" fill="#265A2C"/>
<path d="M73.6084 25.687V54.1245H67.749V25.687H73.6084ZM84.9365 37.8354V42.4058H72.0068V37.8354H84.9365ZM86.3037 25.687V30.2769H72.0068V25.687H86.3037Z" fill="#F3B817"/>
<path d="M57.9053 46.6831C57.9053 46.1753 57.8271 45.7196 57.6709 45.3159C57.5277 44.8993 57.2542 44.5216 56.8506 44.1831C56.4469 43.8315 55.8805 43.4865 55.1514 43.1479C54.4222 42.8094 53.4782 42.4578 52.3193 42.0933C51.0303 41.6766 49.8063 41.2078 48.6475 40.687C47.5016 40.1662 46.486 39.5607 45.6006 38.8706C44.7282 38.1675 44.0381 37.3537 43.5303 36.4292C43.0355 35.5047 42.7881 34.4305 42.7881 33.2065C42.7881 32.0216 43.0485 30.9474 43.5693 29.9839C44.0902 29.0073 44.8193 28.174 45.7568 27.4839C46.6943 26.7808 47.8011 26.2404 49.0771 25.8628C50.3662 25.4852 51.779 25.2964 53.3154 25.2964C55.4118 25.2964 57.2412 25.674 58.8037 26.4292C60.3662 27.1844 61.5771 28.2196 62.4365 29.5347C63.3089 30.8498 63.7451 32.3537 63.7451 34.0464H57.9248C57.9248 33.2131 57.749 32.4839 57.3975 31.8589C57.0589 31.2209 56.5381 30.7196 55.835 30.355C55.1449 29.9904 54.2725 29.8081 53.2178 29.8081C52.2021 29.8081 51.3558 29.9644 50.6787 30.2769C50.0016 30.5763 49.4938 30.9865 49.1553 31.5073C48.8167 32.0151 48.6475 32.5881 48.6475 33.2261C48.6475 33.7078 48.7646 34.144 48.999 34.5347C49.2464 34.9253 49.611 35.2899 50.0928 35.6284C50.5745 35.967 51.167 36.286 51.8701 36.5854C52.5732 36.8849 53.387 37.1779 54.3115 37.4644C55.861 37.9331 57.2217 38.4604 58.3936 39.0464C59.5785 39.6323 60.568 40.2899 61.3623 41.019C62.1566 41.7482 62.7555 42.575 63.1592 43.4995C63.5628 44.424 63.7646 45.4722 63.7646 46.644C63.7646 47.881 63.5238 48.9878 63.042 49.9644C62.5602 50.9409 61.8636 51.7677 60.9521 52.4448C60.0407 53.1219 58.9535 53.6362 57.6904 53.9878C56.4274 54.3394 55.0146 54.5151 53.4521 54.5151C52.0459 54.5151 50.6592 54.3328 49.292 53.9683C47.9248 53.5907 46.6813 53.0243 45.5615 52.269C44.4548 51.5138 43.5693 50.5503 42.9053 49.3784C42.2412 48.2065 41.9092 46.8198 41.9092 45.2183H47.7881C47.7881 46.1037 47.9248 46.8524 48.1982 47.4644C48.4717 48.0763 48.8558 48.5711 49.3506 48.9487C49.8584 49.3263 50.4574 49.5998 51.1475 49.769C51.8506 49.9383 52.6188 50.0229 53.4521 50.0229C54.4678 50.0229 55.3011 49.8797 55.9521 49.5933C56.6162 49.3068 57.1045 48.9097 57.417 48.4019C57.7425 47.894 57.9053 47.3211 57.9053 46.6831Z" fill="#F3B817"/>
<path d="M33.4131 44.6909H39.2529C39.1357 46.605 38.6084 48.3042 37.6709 49.7886C36.7464 51.2729 35.4508 52.4318 33.7842 53.2651C32.1305 54.0985 30.1383 54.5151 27.8076 54.5151C25.9847 54.5151 24.3506 54.2026 22.9053 53.5776C21.46 52.9396 20.223 52.0282 19.1943 50.8433C18.1787 49.6584 17.404 48.2261 16.8701 46.5464C16.3363 44.8667 16.0693 42.9852 16.0693 40.9019V38.9292C16.0693 36.8459 16.3428 34.9644 16.8896 33.2847C17.4495 31.592 18.2438 30.1532 19.2725 28.9683C20.3141 27.7834 21.5576 26.8719 23.0029 26.2339C24.4482 25.5959 26.0628 25.2769 27.8467 25.2769C30.2165 25.2769 32.2152 25.7065 33.8428 26.5659C35.4834 27.4253 36.7529 28.6102 37.6514 30.1206C38.5628 31.631 39.1097 33.3498 39.292 35.2769H33.4326C33.3675 34.131 33.1396 33.161 32.749 32.3667C32.3584 31.5594 31.766 30.9539 30.9717 30.5503C30.1904 30.1336 29.1488 29.9253 27.8467 29.9253C26.8701 29.9253 26.0173 30.1076 25.2881 30.4722C24.5589 30.8368 23.9469 31.3901 23.4521 32.1323C22.9574 32.8745 22.5863 33.812 22.3389 34.9448C22.1045 36.0646 21.9873 37.3797 21.9873 38.8901V40.9019C21.9873 42.3732 22.098 43.6688 22.3193 44.7886C22.5407 45.8953 22.8792 46.8328 23.335 47.6011C23.8037 48.3563 24.4027 48.9292 25.1318 49.3198C25.874 49.6974 26.766 49.8862 27.8076 49.8862C29.0316 49.8862 30.0407 49.6909 30.835 49.3003C31.6292 48.9097 32.2347 48.3302 32.6514 47.562C33.0811 46.7938 33.335 45.8368 33.4131 44.6909Z" fill="#F3B817"/>
<path d="M84.5918 61.4137C84.5918 61.5817 84.5504 61.7283 84.4678 61.8537C84.3851 61.979 84.2651 62.0763 84.1078 62.1457C83.9531 62.2123 83.7638 62.2457 83.5398 62.2457C83.4411 62.2457 83.3438 62.239 83.2478 62.2257C83.1544 62.2123 83.0638 62.1937 82.9758 62.1697C82.8905 62.143 82.8091 62.111 82.7318 62.0737V61.5097C82.8678 61.5683 83.0078 61.623 83.1518 61.6737C83.2984 61.7217 83.4438 61.7457 83.5878 61.7457C83.6864 61.7457 83.7651 61.7323 83.8238 61.7057C83.8851 61.679 83.9291 61.643 83.9558 61.5977C83.9851 61.5523 83.9998 61.5003 83.9998 61.4417C83.9998 61.3697 83.9744 61.3083 83.9238 61.2577C83.8758 61.207 83.8104 61.1603 83.7278 61.1177C83.6451 61.0723 83.5504 61.0243 83.4438 60.9737C83.3771 60.9417 83.3051 60.9043 83.2278 60.8617C83.1504 60.8163 83.0758 60.7617 83.0038 60.6977C82.9344 60.631 82.8771 60.551 82.8318 60.4577C82.7864 60.3643 82.7638 60.2523 82.7638 60.1217C82.7638 59.951 82.8024 59.8057 82.8798 59.6857C82.9598 59.563 83.0718 59.4697 83.2158 59.4057C83.3624 59.3417 83.5344 59.3097 83.7318 59.3097C83.8811 59.3097 84.0224 59.327 84.1558 59.3617C84.2918 59.3963 84.4331 59.4457 84.5798 59.5097L84.3838 59.9817C84.2531 59.9283 84.1358 59.887 84.0318 59.8577C83.9278 59.8283 83.8211 59.8137 83.7118 59.8137C83.6371 59.8137 83.5731 59.8257 83.5198 59.8497C83.4664 59.8737 83.4251 59.907 83.3958 59.9497C83.3691 59.9923 83.3558 60.043 83.3558 60.1017C83.3558 60.1683 83.3758 60.2257 83.4158 60.2737C83.4558 60.319 83.5158 60.363 83.5958 60.4057C83.6758 60.4483 83.7758 60.499 83.8958 60.5577C84.0424 60.627 84.1664 60.699 84.2678 60.7737C84.3718 60.8483 84.4518 60.9363 84.5078 61.0377C84.5638 61.139 84.5918 61.2643 84.5918 61.4137Z" fill="#F3B817"/>
<path d="M81.8941 62.2057L81.6861 61.5257H80.6461L80.4381 62.2057H79.7861L80.7941 59.3377H81.5341L82.5461 62.2057H81.8941ZM81.3341 60.3537C81.3207 60.3083 81.3034 60.251 81.2821 60.1817C81.2607 60.1123 81.2394 60.0417 81.2181 59.9697C81.1967 59.8977 81.1794 59.835 81.1661 59.7817C81.1527 59.835 81.1341 59.9017 81.1101 59.9817C81.0887 60.059 81.0674 60.1337 81.0461 60.2057C81.0274 60.275 81.0127 60.3243 81.0021 60.3537L80.7981 61.0177H81.5421L81.3341 60.3537Z" fill="#F3B817"/>
<path d="M78.3374 59.3497C78.5961 59.3497 78.8094 59.3817 78.9774 59.4457C79.1454 59.507 79.2708 59.6017 79.3534 59.7297C79.4361 59.855 79.4774 60.0137 79.4774 60.2057C79.4774 60.3363 79.4521 60.451 79.4014 60.5497C79.3534 60.6457 79.2881 60.7283 79.2054 60.7977C79.1254 60.8643 79.0388 60.919 78.9454 60.9617L79.7854 62.2057H79.1134L78.4334 61.1097H78.1094V62.2057H77.5054V59.3497H78.3374ZM78.2934 59.8457H78.1094V60.6177H78.3054C78.4388 60.6177 78.5468 60.603 78.6294 60.5737C78.7121 60.5443 78.7721 60.5003 78.8094 60.4417C78.8468 60.3803 78.8654 60.307 78.8654 60.2217C78.8654 60.131 78.8441 60.059 78.8014 60.0057C78.7614 59.9497 78.6988 59.9097 78.6134 59.8857C78.5308 59.859 78.4241 59.8457 78.2934 59.8457Z" fill="#F3B817"/>
<path d="M76.9112 62.2057H75.2672V59.3497H76.9112V59.8457H75.8712V60.4737H76.8392V60.9697H75.8712V61.7057H76.9112V62.2057Z" fill="#F3B817"/>
<path d="M74.0507 62.2057H73.4467V59.8537H72.6707V59.3497H74.8267V59.8537H74.0507V62.2057Z" fill="#F3B817"/>
<path d="M72.2288 62.2057H71.4608L70.2168 60.0457H70.2008C70.2035 60.1123 70.2062 60.1803 70.2088 60.2497C70.2115 60.3163 70.2142 60.3843 70.2168 60.4537C70.2222 60.5203 70.2262 60.5883 70.2288 60.6577C70.2315 60.7243 70.2342 60.7923 70.2368 60.8617V62.2057H69.6968V59.3497H70.4608L71.7008 61.4897H71.7128C71.7102 61.423 71.7075 61.3577 71.7048 61.2937C71.7022 61.227 71.6995 61.1617 71.6968 61.0977C71.6968 61.031 71.6955 60.9657 71.6928 60.9017C71.6902 60.835 71.6875 60.7683 71.6848 60.7017V59.3497H72.2288V62.2057Z" fill="#F3B817"/>
<path d="M69.1053 60.7737C69.1053 60.995 69.0772 61.1963 69.0212 61.3777C68.9679 61.5563 68.8853 61.711 68.7733 61.8417C68.6639 61.9723 68.5226 62.0723 68.3493 62.1417C68.1786 62.211 67.9773 62.2457 67.7453 62.2457C67.5133 62.2457 67.3106 62.211 67.1372 62.1417C66.9666 62.0697 66.8253 61.9697 66.7133 61.8417C66.6039 61.711 66.5212 61.555 66.4652 61.3737C66.4119 61.1923 66.3853 60.991 66.3853 60.7697C66.3853 60.4737 66.4333 60.2163 66.5293 59.9977C66.6279 59.779 66.7772 59.6097 66.9772 59.4897C67.1799 59.367 67.4372 59.3057 67.7492 59.3057C68.0586 59.3057 68.3132 59.367 68.5132 59.4897C68.7132 59.6097 68.8612 59.7803 68.9572 60.0017C69.0559 60.2203 69.1053 60.4777 69.1053 60.7737ZM67.0212 60.7737C67.0212 60.9737 67.0466 61.1457 67.0973 61.2897C67.1479 61.4337 67.2266 61.5443 67.3332 61.6217C67.4399 61.699 67.5773 61.7377 67.7453 61.7377C67.9186 61.7377 68.0573 61.699 68.1613 61.6217C68.2679 61.5443 68.3453 61.4337 68.3933 61.2897C68.4439 61.1457 68.4692 60.9737 68.4692 60.7737C68.4692 60.4723 68.4132 60.2363 68.3012 60.0657C68.1892 59.895 68.0052 59.8097 67.7492 59.8097C67.5786 59.8097 67.4399 59.8483 67.3332 59.9257C67.2266 60.003 67.1479 60.1137 67.0973 60.2577C67.0466 60.4017 67.0212 60.5737 67.0212 60.7737Z" fill="#F3B817"/>
<path d="M64.7046 59.3497C64.9633 59.3497 65.1766 59.3817 65.3446 59.4457C65.5126 59.507 65.638 59.6017 65.7206 59.7297C65.8033 59.855 65.8446 60.0137 65.8446 60.2057C65.8446 60.3363 65.8193 60.451 65.7686 60.5497C65.7206 60.6457 65.6553 60.7283 65.5726 60.7977C65.4926 60.8643 65.406 60.919 65.3126 60.9617L66.1526 62.2057H65.4806L64.8006 61.1097H64.4766V62.2057H63.8726V59.3497H64.7046ZM64.6606 59.8457H64.4766V60.6177H64.6726C64.806 60.6177 64.914 60.603 64.9966 60.5737C65.0793 60.5443 65.1393 60.5003 65.1766 60.4417C65.214 60.3803 65.2326 60.307 65.2326 60.2217C65.2326 60.131 65.2113 60.059 65.1686 60.0057C65.1286 59.9497 65.066 59.9097 64.9806 59.8857C64.898 59.859 64.7913 59.8457 64.6606 59.8457Z" fill="#F3B817"/>
<path d="M62.2733 62.2057H61.6773V59.3497H63.3133V59.8457H62.2733V60.5817H63.2413V61.0777H62.2733V62.2057Z" fill="#F3B817"/>
<path d="M59.3929 62.2057H58.6249L57.3809 60.0457H57.3649C57.3676 60.1123 57.3702 60.1803 57.3729 60.2497C57.3756 60.3163 57.3782 60.3843 57.3809 60.4537C57.3862 60.5203 57.3902 60.5883 57.3929 60.6577C57.3956 60.7243 57.3982 60.7923 57.4009 60.8617V62.2057H56.8609V59.3497H57.6249L58.8649 61.4897H58.8769C58.8742 61.423 58.8716 61.3577 58.8689 61.2937C58.8662 61.227 58.8636 61.1617 58.8609 61.0977C58.8609 61.031 58.8596 60.9657 58.8569 60.9017C58.8542 60.835 58.8516 60.7683 58.8489 60.7017V59.3497H59.3929V62.2057Z" fill="#F3B817"/>
<path d="M56.3742 62.2057H55.0742V61.8617L55.4222 61.7017V59.8537L55.0742 59.6937V59.3497H56.3742V59.6937L56.0262 59.8537V61.7017L56.3742 61.8617V62.2057Z" fill="#F3B817"/>
<path d="M54.7871 61.4137C54.7871 61.5817 54.7458 61.7283 54.6631 61.8537C54.5804 61.979 54.4604 62.0763 54.3031 62.1457C54.1484 62.2123 53.9591 62.2457 53.7351 62.2457C53.6364 62.2457 53.5391 62.239 53.4431 62.2257C53.3498 62.2123 53.2591 62.1937 53.1711 62.1697C53.0858 62.143 53.0044 62.111 52.9271 62.0737V61.5097C53.0631 61.5683 53.2031 61.623 53.3471 61.6737C53.4938 61.7217 53.6391 61.7457 53.7831 61.7457C53.8818 61.7457 53.9604 61.7323 54.0191 61.7057C54.0804 61.679 54.1244 61.643 54.1511 61.5977C54.1804 61.5523 54.1951 61.5003 54.1951 61.4417C54.1951 61.3697 54.1698 61.3083 54.1191 61.2577C54.0711 61.207 54.0058 61.1603 53.9231 61.1177C53.8404 61.0723 53.7458 61.0243 53.6391 60.9737C53.5724 60.9417 53.5004 60.9043 53.4231 60.8617C53.3458 60.8163 53.2711 60.7617 53.1991 60.6977C53.1298 60.631 53.0724 60.551 53.0271 60.4577C52.9818 60.3643 52.9591 60.2523 52.9591 60.1217C52.9591 59.951 52.9978 59.8057 53.0751 59.6857C53.1551 59.563 53.2671 59.4697 53.4111 59.4057C53.5578 59.3417 53.7298 59.3097 53.9271 59.3097C54.0764 59.3097 54.2178 59.327 54.3511 59.3617C54.4871 59.3963 54.6284 59.4457 54.7751 59.5097L54.5791 59.9817C54.4484 59.9283 54.3311 59.887 54.2271 59.8577C54.1231 59.8283 54.0164 59.8137 53.9071 59.8137C53.8324 59.8137 53.7684 59.8257 53.7151 59.8497C53.6618 59.8737 53.6204 59.907 53.5911 59.9497C53.5644 59.9923 53.5511 60.043 53.5511 60.1017C53.5511 60.1683 53.5711 60.2257 53.6111 60.2737C53.6511 60.319 53.7111 60.363 53.7911 60.4057C53.8711 60.4483 53.9711 60.499 54.0911 60.5577C54.2378 60.627 54.3618 60.699 54.4631 60.7737C54.5671 60.8483 54.6471 60.9363 54.7031 61.0377C54.7591 61.139 54.7871 61.2643 54.7871 61.4137Z" fill="#F3B817"/>
<path d="M50.5269 62.2057L50.3189 61.5257H49.2789L49.0709 62.2057H48.4189L49.4269 59.3377H50.1669L51.1789 62.2057H50.5269ZM49.9669 60.3537C49.9535 60.3083 49.9362 60.251 49.9149 60.1817C49.8935 60.1123 49.8722 60.0417 49.8509 59.9697C49.8295 59.8977 49.8122 59.835 49.7989 59.7817C49.7855 59.835 49.7669 59.9017 49.7429 59.9817C49.7215 60.059 49.7002 60.1337 49.6789 60.2057C49.6602 60.275 49.6455 60.3243 49.6349 60.3537L49.4309 61.0177H50.1749L49.9669 60.3537Z" fill="#F3B817"/>
<path d="M47.444 59.8137C47.3293 59.8137 47.2267 59.8363 47.136 59.8817C47.048 59.927 46.9733 59.9923 46.912 60.0777C46.8507 60.1603 46.804 60.2617 46.772 60.3817C46.7427 60.5017 46.728 60.6363 46.728 60.7857C46.728 60.9883 46.752 61.1617 46.8 61.3057C46.8507 61.447 46.9293 61.555 47.036 61.6297C47.1427 61.7043 47.2787 61.7417 47.444 61.7417C47.5613 61.7417 47.6773 61.7283 47.792 61.7017C47.9093 61.675 48.036 61.6377 48.172 61.5897V62.0977C48.0467 62.1483 47.9227 62.1857 47.8 62.2097C47.6773 62.2337 47.54 62.2457 47.388 62.2457C47.0947 62.2457 46.852 62.1857 46.66 62.0657C46.4707 61.943 46.3307 61.7723 46.24 61.5537C46.1493 61.3323 46.104 61.075 46.104 60.7817C46.104 60.5657 46.1333 60.3683 46.192 60.1897C46.2507 60.0083 46.336 59.8523 46.448 59.7217C46.5627 59.591 46.7027 59.4897 46.868 59.4177C47.036 59.3457 47.228 59.3097 47.444 59.3097C47.5853 59.3097 47.7267 59.3283 47.868 59.3657C48.012 59.4003 48.1493 59.4483 48.28 59.5097L48.084 60.0017C47.9773 59.951 47.8693 59.907 47.76 59.8697C47.6533 59.8323 47.548 59.8137 47.444 59.8137Z" fill="#F3B817"/>
<path d="M45.7453 62.2057H44.4453V61.8617L44.7933 61.7017V59.8537L44.4453 59.6937V59.3497H45.7453V59.6937L45.3973 59.8537V61.7017L45.7453 61.8617V62.2057Z" fill="#F3B817"/>
<path d="M42.8687 59.3497C43.1274 59.3497 43.3407 59.3817 43.5087 59.4457C43.6767 59.507 43.802 59.6017 43.8847 59.7297C43.9674 59.855 44.0087 60.0137 44.0087 60.2057C44.0087 60.3363 43.9834 60.451 43.9327 60.5497C43.8847 60.6457 43.8194 60.7283 43.7367 60.7977C43.6567 60.8643 43.57 60.919 43.4767 60.9617L44.3167 62.2057H43.6447L42.9647 61.1097H42.6407V62.2057H42.0367V59.3497H42.8687ZM42.8247 59.8457H42.6407V60.6177H42.8367C42.97 60.6177 43.078 60.603 43.1607 60.5737C43.2434 60.5443 43.3034 60.5003 43.3407 60.4417C43.378 60.3803 43.3967 60.307 43.3967 60.2217C43.3967 60.131 43.3754 60.059 43.3327 60.0057C43.2927 59.9497 43.23 59.9097 43.1447 59.8857C43.062 59.859 42.9554 59.8457 42.8247 59.8457Z" fill="#F3B817"/>
<path d="M41.4424 62.2057H39.7984V59.3497H41.4424V59.8457H40.4024V60.4737H41.3704V60.9697H40.4024V61.7057H41.4424V62.2057Z" fill="#F3B817"/>
<path d="M37.233 62.2057L36.545 59.9657H36.529C36.5316 60.019 36.5356 60.099 36.541 60.2057C36.5463 60.3123 36.5516 60.427 36.557 60.5497C36.5623 60.6697 36.565 60.779 36.565 60.8777V62.2057H36.025V59.3497H36.849L37.525 61.5337H37.537L38.253 59.3497H39.077V62.2057H38.513V60.8537C38.513 60.763 38.5143 60.659 38.517 60.5417C38.5223 60.4243 38.5263 60.3137 38.529 60.2097C38.5343 60.103 38.5383 60.023 38.541 59.9697H38.525L37.789 62.2057H37.233Z" fill="#F3B817"/>
<path d="M35.0113 62.2057L34.8033 61.5257H33.7633L33.5553 62.2057H32.9033L33.9113 59.3377H34.6513L35.6633 62.2057H35.0113ZM34.4513 60.3537C34.4379 60.3083 34.4206 60.251 34.3993 60.1817C34.3779 60.1123 34.3566 60.0417 34.3353 59.9697C34.3139 59.8977 34.2966 59.835 34.2833 59.7817C34.2699 59.835 34.2513 59.9017 34.2273 59.9817C34.2059 60.059 34.1846 60.1337 34.1633 60.2057C34.1446 60.275 34.1299 60.3243 34.1193 60.3537L33.9153 61.0177H34.6593L34.4513 60.3537Z" fill="#F3B817"/>
<path d="M32.7498 60.7737C32.7498 60.995 32.7218 61.1963 32.6658 61.3777C32.6124 61.5563 32.5298 61.711 32.4178 61.8417C32.3084 61.9723 32.1671 62.0723 31.9938 62.1417C31.8231 62.211 31.6218 62.2457 31.3898 62.2457C31.1578 62.2457 30.9551 62.211 30.7818 62.1417C30.6111 62.0697 30.4698 61.9697 30.3578 61.8417C30.2485 61.711 30.1658 61.555 30.1098 61.3737C30.0564 61.1923 30.0298 60.991 30.0298 60.7697C30.0298 60.4737 30.0778 60.2163 30.1738 59.9977C30.2724 59.779 30.4218 59.6097 30.6218 59.4897C30.8245 59.367 31.0818 59.3057 31.3938 59.3057C31.7031 59.3057 31.9578 59.367 32.1578 59.4897C32.3578 59.6097 32.5058 59.7803 32.6018 60.0017C32.7005 60.2203 32.7498 60.4777 32.7498 60.7737ZM30.6658 60.7737C30.6658 60.9737 30.6911 61.1457 30.7418 61.2897C30.7925 61.4337 30.8711 61.5443 30.9778 61.6217C31.0845 61.699 31.2218 61.7377 31.3898 61.7377C31.5631 61.7377 31.7018 61.699 31.8058 61.6217C31.9125 61.5443 31.9898 61.4337 32.0378 61.2897C32.0884 61.1457 32.1138 60.9737 32.1138 60.7737C32.1138 60.4723 32.0578 60.2363 31.9458 60.0657C31.8338 59.895 31.6498 59.8097 31.3938 59.8097C31.2231 59.8097 31.0845 59.8483 30.9778 59.9257C30.8711 60.003 30.7925 60.1137 30.7418 60.2577C30.6911 60.4017 30.6658 60.5737 30.6658 60.7737Z" fill="#F3B817"/>
<path d="M28.3492 59.3497C28.6078 59.3497 28.8212 59.3817 28.9892 59.4457C29.1572 59.507 29.2825 59.6017 29.3652 59.7297C29.4478 59.855 29.4892 60.0137 29.4892 60.2057C29.4892 60.3363 29.4638 60.451 29.4132 60.5497C29.3652 60.6457 29.2998 60.7283 29.2172 60.7977C29.1372 60.8643 29.0505 60.919 28.9572 60.9617L29.7972 62.2057H29.1252L28.4452 61.1097H28.1212V62.2057H27.5172V59.3497H28.3492ZM28.3052 59.8457H28.1212V60.6177H28.3172C28.4505 60.6177 28.5585 60.603 28.6412 60.5737C28.7238 60.5443 28.7838 60.5003 28.8212 60.4417C28.8585 60.3803 28.8772 60.307 28.8772 60.2217C28.8772 60.131 28.8558 60.059 28.8132 60.0057C28.7732 59.9497 28.7105 59.9097 28.6252 59.8857C28.5425 59.859 28.4358 59.8457 28.3052 59.8457Z" fill="#F3B817"/>
<path d="M26.3008 62.2057H25.6968V59.8537H24.9208V59.3497H27.0768V59.8537H26.3008V62.2057Z" fill="#F3B817"/>
<path d="M24.4788 62.2057H23.7108L22.4668 60.0457H22.4508C22.4535 60.1123 22.4562 60.1803 22.4588 60.2497C22.4615 60.3163 22.4642 60.3843 22.4668 60.4537C22.4722 60.5203 22.4762 60.5883 22.4788 60.6577C22.4815 60.7243 22.4842 60.7923 22.4868 60.8617V62.2057H21.9468V59.3497H22.7108L23.9508 61.4897H23.9628C23.9602 61.423 23.9575 61.3577 23.9548 61.2937C23.9522 61.227 23.9495 61.1617 23.9468 61.0977C23.9468 61.031 23.9455 60.9657 23.9428 60.9017C23.9402 60.835 23.9375 60.7683 23.9348 60.7017V59.3497H24.4788V62.2057Z" fill="#F3B817"/>
<path d="M21.3526 62.2057H19.7086V59.3497H21.3526V59.8457H20.3126V60.4737H21.2806V60.9697H20.3126V61.7057H21.3526V62.2057Z" fill="#F3B817"/>
<path d="M18.3737 59.8137C18.259 59.8137 18.1564 59.8363 18.0657 59.8817C17.9777 59.927 17.903 59.9923 17.8417 60.0777C17.7804 60.1603 17.7337 60.2617 17.7017 60.3817C17.6724 60.5017 17.6577 60.6363 17.6577 60.7857C17.6577 60.9883 17.6817 61.1617 17.7297 61.3057C17.7804 61.447 17.859 61.555 17.9657 61.6297C18.0724 61.7043 18.2084 61.7417 18.3737 61.7417C18.491 61.7417 18.607 61.7283 18.7217 61.7017C18.839 61.675 18.9657 61.6377 19.1017 61.5897V62.0977C18.9764 62.1483 18.8524 62.1857 18.7297 62.2097C18.607 62.2337 18.4697 62.2457 18.3177 62.2457C18.0244 62.2457 17.7817 62.1857 17.5897 62.0657C17.4004 61.943 17.2604 61.7723 17.1697 61.5537C17.079 61.3323 17.0337 61.075 17.0337 60.7817C17.0337 60.5657 17.063 60.3683 17.1217 60.1897C17.1804 60.0083 17.2657 59.8523 17.3777 59.7217C17.4924 59.591 17.6324 59.4897 17.7977 59.4177C17.9657 59.3457 18.1577 59.3097 18.3737 59.3097C18.515 59.3097 18.6564 59.3283 18.7977 59.3657C18.9417 59.4003 19.079 59.4483 19.2097 59.5097L19.0137 60.0017C18.907 59.951 18.799 59.907 18.6897 59.8697C18.583 59.8323 18.4777 59.8137 18.3737 59.8137Z" fill="#F3B817"/>
<path d="M71.1732 88.3966L70.6532 86.6966H68.0532L67.5332 88.3966H65.9032L68.4232 81.2266H70.2732L72.8032 88.3966H71.1732ZM69.7732 83.7666C69.7399 83.6532 69.6966 83.5099 69.6432 83.3366C69.5899 83.1632 69.5366 82.9866 69.4832 82.8066C69.4299 82.6266 69.3866 82.4699 69.3532 82.3366C69.3199 82.4699 69.2732 82.6366 69.2132 82.8366C69.1599 83.0299 69.1066 83.2166 69.0532 83.3966C69.0066 83.5699 68.9699 83.6932 68.9432 83.7666L68.4332 85.4266H70.2932L69.7732 83.7666Z" fill="#F3B817"/>
<path d="M60.3896 88.3966L58.6696 82.7966H58.6296C58.6363 82.9299 58.6463 83.1299 58.6596 83.3966C58.673 83.6632 58.6863 83.9499 58.6996 84.2566C58.713 84.5566 58.7196 84.8299 58.7196 85.0766V88.3966H57.3696V81.2566H59.4296L61.1196 86.7166H61.1496L62.9396 81.2566H64.9996V88.3966H63.5896V85.0166C63.5896 84.7899 63.593 84.5299 63.5996 84.2366C63.613 83.9432 63.623 83.6666 63.6296 83.4066C63.643 83.1399 63.653 82.9399 63.6596 82.8066H63.6196L61.7796 88.3966H60.3896Z" fill="#F3B817"/>
<path d="M54.8353 88.3966L54.3153 86.6966H51.7153L51.1953 88.3966H49.5653L52.0853 81.2266H53.9353L56.4653 88.3966H54.8353ZM53.4353 83.7666C53.402 83.6532 53.3587 83.5099 53.3053 83.3366C53.252 83.1632 53.1987 82.9866 53.1453 82.8066C53.092 82.6266 53.0487 82.4699 53.0153 82.3366C52.982 82.4699 52.9353 82.6366 52.8753 82.8366C52.822 83.0299 52.7687 83.2166 52.7153 83.3966C52.6687 83.5699 52.632 83.6932 52.6053 83.7666L52.0953 85.4266H53.9553L53.4353 83.7666Z" fill="#F3B817"/>
<path d="M48.6606 88.3966H46.7406L43.6306 82.9966H43.5906C43.5972 83.1632 43.6039 83.3332 43.6106 83.5066C43.6172 83.6732 43.6239 83.8432 43.6306 84.0166C43.6439 84.1832 43.6539 84.3532 43.6606 84.5266C43.6672 84.6932 43.6739 84.8632 43.6806 85.0366V88.3966H42.3306V81.2566H44.2406L47.3406 86.6066H47.3706C47.3639 86.4399 47.3572 86.2766 47.3506 86.1166C47.3439 85.9499 47.3372 85.7866 47.3306 85.6266C47.3306 85.4599 47.3272 85.2966 47.3206 85.1366C47.3139 84.9699 47.3072 84.8032 47.3006 84.6366V81.2566H48.6606V88.3966Z" fill="#F3B817"/>
<path d="M39.7963 88.3966L39.2763 86.6966H36.6763L36.1563 88.3966H34.5263L37.0463 81.2266H38.8963L41.4263 88.3966H39.7963ZM38.3963 83.7666C38.3629 83.6532 38.3196 83.5099 38.2663 83.3366C38.2129 83.1632 38.1596 82.9866 38.1063 82.8066C38.0529 82.6266 38.0096 82.4699 37.9763 82.3366C37.9429 82.4699 37.8963 82.6366 37.8363 82.8366C37.7829 83.0299 37.7296 83.2166 37.6763 83.3966C37.6296 83.5699 37.5929 83.6932 37.5663 83.7666L37.0563 85.4266H38.9163L38.3963 83.7666Z" fill="#F3B817"/>
<path d="M31.925 81.2566C32.845 81.2566 33.515 81.4566 33.935 81.8566C34.3617 82.2499 34.575 82.7932 34.575 83.4866C34.575 83.7999 34.5284 84.0999 34.435 84.3866C34.3417 84.6666 34.185 84.9199 33.965 85.1466C33.7517 85.3666 33.4684 85.5399 33.115 85.6666C32.7617 85.7932 32.325 85.8566 31.805 85.8566H31.155V88.3966H29.645V81.2566H31.925ZM31.845 82.4966H31.155V84.6166H31.655C31.9417 84.6166 32.1884 84.5799 32.395 84.5066C32.6017 84.4332 32.7617 84.3166 32.875 84.1566C32.9884 83.9966 33.045 83.7899 33.045 83.5366C33.045 83.1832 32.9484 82.9232 32.755 82.7566C32.5617 82.5832 32.2584 82.4966 31.845 82.4966Z" fill="#F3B817"/>
</svg>
