<svg width="101" height="101" viewBox="0 0 101 101" fill="none" xmlns="http://www.w3.org/2000/svg">
<path d="M98.7764 50.0911C98.7764 76.6007 77.286 98.0911 50.7764 98.0911C24.2667 98.0911 2.77637 76.6007 2.77637 50.0911C2.77637 23.5814 24.2667 2.09106 50.7764 2.09106C77.286 2.09106 98.7764 23.5814 98.7764 50.0911Z" fill="#17481F"/>
<path fill-rule="evenodd" clip-rule="evenodd" d="M50.7764 96.5911C76.4576 96.5911 97.2764 75.7723 97.2764 50.0911C97.2764 24.4098 76.4576 3.59106 50.7764 3.59106C25.0951 3.59106 4.27637 24.4098 4.27637 50.0911C4.27637 75.7723 25.0951 96.5911 50.7764 96.5911ZM50.7764 100.091C78.3906 100.091 100.776 77.7053 100.776 50.0911C100.776 22.4768 78.3906 0.0910645 50.7764 0.0910645C23.1621 0.0910645 0.776367 22.4768 0.776367 50.0911C0.776367 77.7053 23.1621 100.091 50.7764 100.091Z" fill="#F3B817"/>
<path d="M56.8261 19.2736C56.7724 18.8485 56.6636 18.4322 56.5026 18.0351C56.4821 17.96 56.4461 17.89 56.3971 17.8296C56.348 17.7692 56.2869 17.7196 56.2176 17.6841C56.125 17.66 56.0279 17.6589 55.9348 17.6809L54.4829 17.9031C54.3614 17.9086 54.245 17.9539 54.1516 18.0318C53.9625 18.2307 54.1487 18.5509 54.1429 18.8253C54.1364 19.1338 53.8623 19.3842 53.565 19.4671C53.2616 19.5284 52.9486 19.5245 52.6468 19.4557L50.6166 19.1402C51.2145 18.9493 51.7467 18.5942 52.1524 18.1153C52.4196 17.7988 52.5618 17.2079 52.1756 17.058C52.0609 17.0265 51.9413 17.0169 51.823 17.0297C50.9032 17.0368 50.1793 16.2689 49.3182 15.9454C48.7671 15.7518 48.1688 15.7374 47.609 15.9042C47.0492 16.0711 46.5565 16.4108 46.2014 16.8746L47.2829 16.9267C47.3846 16.9211 47.4855 16.948 47.571 17.0035C47.808 17.1983 47.5133 17.5723 47.5467 17.8773C47.5901 18.2734 48.1161 18.358 48.5126 18.3981C48.9092 18.4382 49.4122 18.7603 49.2215 19.1103C47.2285 19.7968 45.2003 17.7683 43.1072 18.018C42.5775 18.0812 42.0773 18.2893 41.56 18.4202C38.4006 19.2196 35.1342 17.0867 31.9066 17.5384C31.1891 17.6607 30.4838 17.8467 29.7993 18.0942C29.36 18.2384 28.9018 18.3943 28.5827 18.7288C28.2635 19.0633 28.142 19.6354 28.4444 19.9852C27.611 20.0538 26.772 19.974 25.9664 19.7496C26.1842 19.8707 26.3655 20.0482 26.4911 20.2635C26.6166 20.4788 26.682 20.7239 26.6801 20.9731C25.3789 21.1853 24.112 21.5716 22.9137 22.1215C23.1374 22.4934 23.3986 22.8414 23.6933 23.16L22.0459 24.2184C22.6025 24.3586 22.8902 25.1175 22.5666 25.5915C23.1437 25.3348 23.5013 24.6706 24.1184 24.536C24.5227 24.4478 24.9341 24.6131 25.3176 24.7685C25.7011 24.9239 26.1227 25.0745 26.5197 24.9579C26.9168 24.8413 27.2096 24.3265 26.9573 23.9985C28.6543 23.5034 30.4082 23.2293 32.1754 23.1833C32.3117 23.1661 32.45 23.1924 32.5706 23.2582C32.8006 23.4179 32.7401 23.7626 32.7277 24.0423C32.7153 24.322 32.9333 24.6896 33.1833 24.5635C32.8892 24.8186 33.1406 25.2987 33.4228 25.5669C33.705 25.8351 34.0451 26.2052 33.8723 26.554C33.8272 26.6451 33.7508 26.7179 33.7074 26.8098C33.5793 27.081 33.7826 27.3972 34.0225 27.5773C34.2623 27.7574 34.556 27.8832 34.7226 28.1326C34.8892 28.382 34.8135 28.8186 34.5156 28.8534L33.669 27.7784C33.3797 28.0783 33.1814 28.4541 33.097 28.8622C33.9949 29.5962 34.1299 31.0901 33.3782 31.9732C32.9941 32.4245 32.4479 32.6987 31.9711 33.0507C31.4944 33.4026 31.0532 33.9039 31.0544 34.4965C31.0565 35.5203 30.9728 36.4715 31.3565 37.4207C32.064 39.171 32.8807 40.8751 33.802 42.5229C34.044 42.9556 34.3566 43.4298 34.8467 43.5043C34.2273 41.9964 33.6698 40.4651 33.174 38.9103C33.4969 38.9115 33.87 38.9372 34.0593 39.1988C34.2161 39.4154 34.1824 39.7099 34.2311 39.9728C34.2931 40.2276 34.3964 40.4704 34.5369 40.6917L37.4947 45.9604C37.7399 46.3972 38.0212 46.866 38.4898 47.0429C38.7894 47.156 39.136 47.1347 39.4118 47.2975C39.628 47.4251 39.7736 47.6517 39.9939 47.7719C40.617 48.1118 41.4834 47.4599 42.0657 47.8657C42.2322 47.9818 42.3381 48.1661 42.4915 48.299C43.0293 48.7647 43.9115 48.4531 44.5323 48.8005C44.9325 49.0245 45.1398 49.4722 45.3532 49.8781C45.8878 50.8945 46.7527 51.8904 47.8984 51.9713C48.2582 51.9968 48.6258 51.9285 48.9776 52.0086C49.3294 52.0886 49.6756 52.3956 49.6192 52.7519C49.5224 53.3628 49.8242 54.0317 49.7431 54.6448C49.5955 55.7617 48.0113 56.2525 47.8752 57.3708C47.8454 57.6157 47.892 57.8684 47.8337 58.1081C47.7623 58.4019 47.5417 58.641 47.4633 58.933C47.3147 59.4863 47.7111 60.037 48.1466 60.4093C48.5821 60.7815 49.1016 61.1025 49.3397 61.6236C49.5913 62.1744 49.4677 62.8166 49.5496 63.4166C49.7282 64.7265 50.8596 65.6975 52.0239 66.3236C52.3787 66.5144 52.7596 66.6991 52.9892 67.03C53.2889 67.462 53.259 68.0314 53.3591 68.5475C53.6042 69.8115 54.6682 70.8529 54.6984 72.1401C54.7199 73.055 54.2114 73.885 53.9076 74.7482C53.6228 75.5752 53.5197 76.454 53.6054 77.3245C53.6911 78.1951 53.9636 79.0369 54.4042 79.7925C54.6315 80.1762 54.9033 80.538 55.0641 80.954C55.3509 81.6964 55.2579 82.5403 55.5224 83.2909C55.8721 84.2832 56.833 85.1029 56.741 86.1511C57.1773 87.057 58.1406 87.5022 59.1093 87.7718L60.8454 88.2551C61.1778 88.3476 61.5252 88.4409 61.8637 88.3739C62.2021 88.3069 62.5252 88.0258 62.5164 87.6809C61.6651 87.4889 60.7864 87.2847 60.0846 86.7659C59.3828 86.2471 58.9021 85.3233 59.1684 84.4921C59.2918 84.1068 59.5545 83.6617 59.3048 83.3433C59.1618 83.161 58.9003 83.1133 58.739 82.947C58.4875 82.6875 58.5739 82.2516 58.7547 81.9387C58.9356 81.6258 59.197 81.3462 59.2699 80.9923C59.3068 80.7942 59.2822 80.5897 59.1994 80.4061C59.1167 80.2224 58.9798 80.0685 58.8071 79.9649C59.129 79.8433 59.4217 79.6555 59.6664 79.4135C59.8923 79.1554 59.9967 78.7576 59.819 78.4642C60.3469 78.5312 60.9701 78.564 61.3166 78.1601C61.5933 77.8377 61.5743 77.3556 61.465 76.945C61.3556 76.5344 61.1708 76.1355 61.1651 75.7107C62.3828 75.7684 63.6032 75.727 64.8143 75.5869C64.6392 74.9971 64.2412 74.4987 63.7048 74.1974C64.2533 74.1046 64.753 73.448 64.9262 72.9194C65.0995 72.3908 65.0553 71.815 64.9482 71.2692C64.9071 71.1286 64.9015 70.9801 64.9318 70.8368C64.9936 70.64 65.1869 70.5199 65.3658 70.4171L68.0883 68.8536C68.2507 68.7722 68.398 68.6635 68.5236 68.5322C68.8089 68.1972 68.7666 67.6914 68.6206 67.2763C68.4745 66.8613 68.2406 66.471 68.1843 66.0346C68.0161 64.7294 69.4132 63.793 69.8847 62.5644C70.0697 62.0823 70.1074 61.5582 70.1433 61.043C70.1817 60.4897 70.1846 59.847 69.7597 59.4904C69.3525 59.1486 68.7161 59.2248 68.29 58.9069C67.8992 58.6154 67.7644 58.0493 67.3376 57.8138C66.95 57.6 66.464 57.736 66.0329 57.6354C65.2738 57.4584 64.7961 56.5835 64.0209 56.5025C63.5835 56.4568 63.0885 56.6707 62.73 56.4159C62.4141 56.1915 62.4014 55.7403 62.3413 55.3575C62.2359 54.7626 61.9508 54.2142 61.5242 53.7863C61.0977 53.3584 60.5502 53.0714 59.9556 52.9641C59.5046 52.8918 59.0138 52.9193 58.6301 52.6715C58.2416 52.4205 58.0635 51.9507 57.7583 51.6031C57.2665 51.043 56.4919 50.844 55.7663 50.6734L52.8148 49.9796C52.2909 49.8564 51.6155 49.7911 51.3344 50.25C51.2512 50.4248 51.1922 50.6101 51.1593 50.8008C51.0539 51.1459 50.8419 51.4486 50.5537 51.6655C50.2655 51.8825 49.9159 52.0024 49.5552 52.0082C49.3078 51.5863 48.9071 51.2762 48.4366 51.1427C48.1373 51.0593 47.8169 51.05 47.5315 50.9273C47.3761 50.8514 47.2377 50.7446 47.125 50.6134C47.0122 50.4822 46.9274 50.3294 46.8758 50.1643C46.8242 49.9992 46.8068 49.8253 46.8247 49.6533C46.8425 49.4812 46.8954 49.3146 46.9799 49.1637C47.15 48.8607 47.2158 48.5102 47.1669 48.1661C47.118 47.8221 46.9573 47.5037 46.7094 47.2601C46.2075 46.8095 45.4815 46.7006 44.8084 46.7457C44.6322 46.3611 44.9269 45.9272 45.2445 45.6477C45.5621 45.3681 45.9478 45.0934 46.0169 44.676C46.1257 44.0194 45.288 43.5207 44.6519 43.7165C44.0159 43.9123 43.6099 44.5301 43.3415 45.1391C43.1876 45.4885 43.0566 45.8565 42.8138 46.1511C42.5709 46.4457 42.1798 46.6567 41.8098 46.5621C41.2861 46.4283 41.0838 45.806 40.9679 45.278C40.8123 44.5696 40.6559 43.8514 40.6885 43.1268C40.7211 42.4022 40.9653 41.6583 41.4996 41.1678C42.3703 40.3685 43.7059 40.4469 44.8809 40.5744C44.6033 40.2616 44.6719 39.7345 44.9689 39.4401C45.1257 39.3008 45.3141 39.2018 45.5178 39.1518C45.7215 39.1017 45.9343 39.1021 46.1378 39.1529C46.4918 39.2266 46.8108 39.4173 47.0433 39.6943C47.3772 40.1014 47.4722 40.6511 47.7245 41.1131C47.9769 41.5752 48.5444 41.9693 49.0089 41.7214C49.4101 41.5073 49.4738 40.951 49.3739 40.5073C49.2741 40.0637 49.062 39.6322 49.0982 39.1789C49.1672 38.3139 50.0639 37.7932 50.8551 37.437C51.6464 37.0808 52.5524 36.6017 52.6778 35.743C52.682 35.5749 52.7138 35.4086 52.7717 35.2507C52.8594 35.1112 52.9814 34.9966 53.1259 34.9175C55.4352 33.3914 57.7829 31.8466 60.4224 31.0127C60.5597 30.9694 60.5758 31.0176 60.7157 30.9836C60.9116 30.8704 60.7818 30.5572 60.594 30.4311C60.4062 30.3049 60.1553 30.2082 60.1076 29.9871C60.0726 29.8245 60.1684 29.6649 60.1933 29.5005C60.2544 29.0964 59.7711 28.7234 59.3957 28.8849C59.1837 28.6041 59.6032 28.2779 59.9424 28.1845C60.9611 27.9041 62.0067 27.7333 63.0616 27.6749C63.1833 27.6556 63.308 27.6768 63.4165 27.7353C63.5937 27.858 63.571 28.1395 63.4455 28.3147C63.3199 28.4899 63.1246 28.5999 62.9681 28.7481C62.7972 28.9146 62.6752 29.1249 62.6156 29.3561C62.556 29.5872 62.5611 29.8302 62.6301 30.0586C63.1808 30.3388 63.7795 30.6271 64.3895 30.5284C64.9994 30.4298 65.5407 29.7445 65.2541 29.1971C64.9871 28.6875 64.1852 28.5725 64.0473 28.0139C63.8858 27.3599 64.8116 26.7782 64.6031 26.1377C64.5117 25.8571 64.2321 25.692 64.0175 25.4894C63.7641 25.241 63.5917 24.9218 63.523 24.5737C63.4543 24.2256 63.4925 23.8649 63.6326 23.5388C63.2831 23.6003 62.9239 23.5771 62.5853 23.4711C62.2466 23.3651 61.9383 23.1795 61.6862 22.9297C61.2206 22.4599 60.8492 21.7187 60.1881 21.7398C59.5814 21.759 59.0589 22.4668 58.4916 22.2509C58.3521 22.1978 58.2049 22.0896 58.0697 22.153C58.0254 22.1818 57.9882 22.2202 57.9609 22.2655C57.9337 22.3108 57.917 22.3616 57.9123 22.4142C57.7682 23.1035 58.0162 23.8887 57.6405 24.4843C57.2317 25.1324 56.2863 25.2223 55.7907 25.8067C55.5217 26.1239 55.4175 26.5514 55.1702 26.8859C54.923 27.2203 54.3982 27.433 54.1014 27.1415C54.2473 26.8417 54.2871 26.5013 54.2144 26.1759C54.1417 25.8506 53.9608 25.5595 53.7012 25.3502C53.4257 25.1705 53.1288 25.026 52.8173 24.9203C52.4692 24.773 52.1381 24.5884 51.8298 24.3699C51.6753 24.2767 51.5498 24.1424 51.4673 23.982C51.402 23.7811 51.4108 23.5635 51.492 23.3686C51.6425 22.9372 51.908 22.5551 52.2597 22.2635C52.6115 21.972 53.0362 21.7821 53.488 21.7142C53.8831 21.6605 54.3429 21.6794 54.6044 21.3784C54.7427 21.2191 54.8153 20.9783 55.0161 20.9136C55.1446 20.8878 55.2779 20.9042 55.3963 20.9604L56.871 21.4795C57.0355 21.5538 57.2166 21.5837 57.3963 21.5664C57.4854 21.5544 57.5666 21.5091 57.6238 21.4397C57.6809 21.3703 57.7096 21.2818 57.7043 21.1921C57.6571 20.9472 57.2803 20.8297 57.3146 20.5827C57.3338 20.5026 57.3768 20.4303 57.438 20.3752C57.9702 19.8087 58.6211 19.367 59.344 19.0815C60.0669 18.796 60.8439 18.6739 61.6195 18.7239C61.8057 19.0296 61.5113 19.3916 61.2664 19.6526C61.0214 19.9135 60.8246 20.3798 61.1208 20.5807C61.2422 20.6426 61.3772 20.673 61.5135 20.6691C61.8765 20.7182 62.2294 20.8253 62.5586 20.9861C63.0681 21.2079 63.5679 21.4505 64.058 21.714C64.0147 21.3909 63.9734 21.0505 64.0958 20.7484C64.2183 20.4463 64.5663 20.2094 64.8703 20.327C65.1633 20.4404 65.3136 20.8284 65.6257 20.8639C66.0421 20.9113 66.2064 20.2962 66.0325 19.9149C65.8585 19.5336 65.5142 19.2144 65.4855 18.7963C65.4661 18.5142 65.5734 18.1644 65.3481 17.9936C65.268 17.9424 65.1769 17.9105 65.0823 17.9004L59.4567 16.8652C59.1227 16.8038 58.64 16.8509 58.6252 17.1902C58.6169 17.3796 58.7861 17.567 58.7112 17.7412C58.6312 17.9271 58.3685 17.9101 58.1771 17.9758C57.8801 18.0778 57.7311 18.4304 57.7597 18.7431C57.8119 19.0538 57.9322 19.3491 58.112 19.6078C57.7461 19.4548 57.192 19.4266 56.8261 19.2736Z" fill="#265A2C"/>
<path d="M73.6084 25.687V54.1245H67.749V25.687H73.6084ZM84.9365 37.8354V42.4058H72.0068V37.8354H84.9365ZM86.3037 25.687V30.2769H72.0068V25.687H86.3037Z" fill="#F3B817"/>
<path d="M57.9053 46.6831C57.9053 46.1753 57.8271 45.7196 57.6709 45.3159C57.5277 44.8993 57.2542 44.5216 56.8506 44.1831C56.4469 43.8315 55.8805 43.4865 55.1514 43.1479C54.4222 42.8094 53.4782 42.4578 52.3193 42.0933C51.0303 41.6766 49.8063 41.2078 48.6475 40.687C47.5016 40.1662 46.486 39.5607 45.6006 38.8706C44.7282 38.1675 44.0381 37.3537 43.5303 36.4292C43.0355 35.5047 42.7881 34.4305 42.7881 33.2065C42.7881 32.0216 43.0485 30.9474 43.5693 29.9839C44.0902 29.0073 44.8193 28.174 45.7568 27.4839C46.6943 26.7808 47.8011 26.2404 49.0771 25.8628C50.3662 25.4852 51.779 25.2964 53.3154 25.2964C55.4118 25.2964 57.2412 25.674 58.8037 26.4292C60.3662 27.1844 61.5771 28.2196 62.4365 29.5347C63.3089 30.8498 63.7451 32.3537 63.7451 34.0464H57.9248C57.9248 33.2131 57.749 32.4839 57.3975 31.8589C57.0589 31.2209 56.5381 30.7196 55.835 30.355C55.1449 29.9904 54.2725 29.8081 53.2178 29.8081C52.2021 29.8081 51.3558 29.9644 50.6787 30.2769C50.0016 30.5763 49.4938 30.9865 49.1553 31.5073C48.8167 32.0151 48.6475 32.5881 48.6475 33.2261C48.6475 33.7078 48.7646 34.144 48.999 34.5347C49.2464 34.9253 49.611 35.2899 50.0928 35.6284C50.5745 35.967 51.167 36.286 51.8701 36.5854C52.5732 36.8849 53.387 37.1779 54.3115 37.4644C55.861 37.9331 57.2217 38.4604 58.3936 39.0464C59.5785 39.6323 60.568 40.2899 61.3623 41.019C62.1566 41.7482 62.7555 42.575 63.1592 43.4995C63.5628 44.424 63.7646 45.4722 63.7646 46.644C63.7646 47.881 63.5238 48.9878 63.042 49.9644C62.5602 50.9409 61.8636 51.7677 60.9521 52.4448C60.0407 53.1219 58.9535 53.6362 57.6904 53.9878C56.4274 54.3394 55.0146 54.5151 53.4521 54.5151C52.0459 54.5151 50.6592 54.3328 49.292 53.9683C47.9248 53.5907 46.6813 53.0243 45.5615 52.269C44.4548 51.5138 43.5693 50.5503 42.9053 49.3784C42.2412 48.2065 41.9092 46.8198 41.9092 45.2183H47.7881C47.7881 46.1037 47.9248 46.8524 48.1982 47.4644C48.4717 48.0763 48.8558 48.5711 49.3506 48.9487C49.8584 49.3263 50.4574 49.5998 51.1475 49.769C51.8506 49.9383 52.6188 50.0229 53.4521 50.0229C54.4678 50.0229 55.3011 49.8797 55.9521 49.5933C56.6162 49.3068 57.1045 48.9097 57.417 48.4019C57.7425 47.894 57.9053 47.3211 57.9053 46.6831Z" fill="#F3B817"/>
<path d="M33.4131 44.6909H39.2529C39.1357 46.605 38.6084 48.3042 37.6709 49.7886C36.7464 51.2729 35.4508 52.4318 33.7842 53.2651C32.1305 54.0985 30.1383 54.5151 27.8076 54.5151C25.9847 54.5151 24.3506 54.2026 22.9053 53.5776C21.46 52.9396 20.223 52.0282 19.1943 50.8433C18.1787 49.6584 17.404 48.2261 16.8701 46.5464C16.3363 44.8667 16.0693 42.9852 16.0693 40.9019V38.9292C16.0693 36.8459 16.3428 34.9644 16.8896 33.2847C17.4495 31.592 18.2438 30.1532 19.2725 28.9683C20.3141 27.7834 21.5576 26.8719 23.0029 26.2339C24.4482 25.5959 26.0628 25.2769 27.8467 25.2769C30.2165 25.2769 32.2152 25.7065 33.8428 26.5659C35.4834 27.4253 36.7529 28.6102 37.6514 30.1206C38.5628 31.631 39.1097 33.3498 39.292 35.2769H33.4326C33.3675 34.131 33.1396 33.161 32.749 32.3667C32.3584 31.5594 31.766 30.9539 30.9717 30.5503C30.1904 30.1336 29.1488 29.9253 27.8467 29.9253C26.8701 29.9253 26.0173 30.1076 25.2881 30.4722C24.5589 30.8368 23.9469 31.3901 23.4521 32.1323C22.9574 32.8745 22.5863 33.812 22.3389 34.9448C22.1045 36.0646 21.9873 37.3797 21.9873 38.8901V40.9019C21.9873 42.3732 22.098 43.6688 22.3193 44.7886C22.5407 45.8953 22.8792 46.8328 23.335 47.6011C23.8037 48.3563 24.4027 48.9292 25.1318 49.3198C25.874 49.6974 26.766 49.8862 27.8076 49.8862C29.0316 49.8862 30.0407 49.6909 30.835 49.3003C31.6292 48.9097 32.2347 48.3302 32.6514 47.562C33.0811 46.7938 33.335 45.8368 33.4131 44.6909Z" fill="#F3B817"/>
<path d="M84.5923 61.4137C84.5923 61.5817 84.5509 61.7283 84.4683 61.8537C84.3856 61.979 84.2656 62.0763 84.1083 62.1457C83.9536 62.2123 83.7643 62.2457 83.5403 62.2457C83.4416 62.2457 83.3443 62.239 83.2483 62.2257C83.1549 62.2123 83.0643 62.1937 82.9763 62.1697C82.8909 62.143 82.8096 62.111 82.7323 62.0737V61.5097C82.8683 61.5683 83.0083 61.623 83.1523 61.6737C83.2989 61.7217 83.4443 61.7457 83.5883 61.7457C83.6869 61.7457 83.7656 61.7323 83.8243 61.7057C83.8856 61.679 83.9296 61.643 83.9563 61.5977C83.9856 61.5523 84.0003 61.5003 84.0003 61.4417C84.0003 61.3697 83.9749 61.3083 83.9243 61.2577C83.8763 61.207 83.8109 61.1603 83.7283 61.1177C83.6456 61.0723 83.5509 61.0243 83.4443 60.9737C83.3776 60.9417 83.3056 60.9043 83.2283 60.8617C83.1509 60.8163 83.0763 60.7617 83.0043 60.6977C82.9349 60.631 82.8776 60.551 82.8323 60.4577C82.7869 60.3643 82.7643 60.2523 82.7643 60.1217C82.7643 59.951 82.8029 59.8057 82.8803 59.6857C82.9603 59.563 83.0723 59.4697 83.2163 59.4057C83.3629 59.3417 83.5349 59.3097 83.7323 59.3097C83.8816 59.3097 84.0229 59.327 84.1563 59.3617C84.2923 59.3963 84.4336 59.4457 84.5803 59.5097L84.3843 59.9817C84.2536 59.9283 84.1363 59.887 84.0323 59.8577C83.9283 59.8283 83.8216 59.8137 83.7123 59.8137C83.6376 59.8137 83.5736 59.8257 83.5203 59.8497C83.4669 59.8737 83.4256 59.907 83.3963 59.9497C83.3696 59.9923 83.3563 60.043 83.3563 60.1017C83.3563 60.1683 83.3763 60.2257 83.4163 60.2737C83.4563 60.319 83.5163 60.363 83.5963 60.4057C83.6763 60.4483 83.7763 60.499 83.8963 60.5577C84.0429 60.627 84.1669 60.699 84.2683 60.7737C84.3723 60.8483 84.4523 60.9363 84.5083 61.0377C84.5643 61.139 84.5923 61.2643 84.5923 61.4137Z" fill="#F3B817"/>
<path d="M81.8946 62.2057L81.6866 61.5257H80.6465L80.4386 62.2057H79.7866L80.7946 59.3377H81.5345L82.5465 62.2057H81.8946ZM81.3345 60.3537C81.3212 60.3083 81.3039 60.251 81.2826 60.1817C81.2612 60.1123 81.2399 60.0417 81.2186 59.9697C81.1972 59.8977 81.1799 59.835 81.1665 59.7817C81.1532 59.835 81.1345 59.9017 81.1105 59.9817C81.0892 60.059 81.0679 60.1337 81.0465 60.2057C81.0279 60.275 81.0132 60.3243 81.0025 60.3537L80.7985 61.0177H81.5425L81.3345 60.3537Z" fill="#F3B817"/>
<path d="M78.3379 59.3497C78.5966 59.3497 78.8099 59.3817 78.9779 59.4457C79.1459 59.507 79.2713 59.6017 79.3539 59.7297C79.4366 59.855 79.4779 60.0137 79.4779 60.2057C79.4779 60.3363 79.4526 60.451 79.4019 60.5497C79.3539 60.6457 79.2886 60.7283 79.2059 60.7977C79.1259 60.8643 79.0393 60.919 78.9459 60.9617L79.7859 62.2057H79.1139L78.4339 61.1097H78.1099V62.2057H77.5059V59.3497H78.3379ZM78.2939 59.8457H78.1099V60.6177H78.3059C78.4393 60.6177 78.5473 60.603 78.6299 60.5737C78.7126 60.5443 78.7726 60.5003 78.8099 60.4417C78.8473 60.3803 78.8659 60.307 78.8659 60.2217C78.8659 60.131 78.8446 60.059 78.8019 60.0057C78.7619 59.9497 78.6993 59.9097 78.6139 59.8857C78.5313 59.859 78.4246 59.8457 78.2939 59.8457Z" fill="#F3B817"/>
<path d="M76.9116 62.2057H75.2676V59.3497H76.9116V59.8457H75.8716V60.4737H76.8396V60.9697H75.8716V61.7057H76.9116V62.2057Z" fill="#F3B817"/>
<path d="M74.0512 62.2057H73.4472V59.8537H72.6712V59.3497H74.8272V59.8537H74.0512V62.2057Z" fill="#F3B817"/>
<path d="M72.2293 62.2057H71.4613L70.2173 60.0457H70.2013C70.204 60.1123 70.2067 60.1803 70.2093 60.2497C70.212 60.3163 70.2147 60.3843 70.2173 60.4537C70.2227 60.5203 70.2267 60.5883 70.2293 60.6577C70.232 60.7243 70.2347 60.7923 70.2373 60.8617V62.2057H69.6973V59.3497H70.4613L71.7013 61.4897H71.7133C71.7107 61.423 71.708 61.3577 71.7053 61.2937C71.7027 61.227 71.7 61.1617 71.6973 61.0977C71.6973 61.031 71.696 60.9657 71.6933 60.9017C71.6907 60.835 71.688 60.7683 71.6853 60.7017V59.3497H72.2293V62.2057Z" fill="#F3B817"/>
<path d="M69.1057 60.7737C69.1057 60.995 69.0777 61.1963 69.0217 61.3777C68.9684 61.5563 68.8857 61.711 68.7737 61.8417C68.6644 61.9723 68.5231 62.0723 68.3497 62.1417C68.1791 62.211 67.9777 62.2457 67.7457 62.2457C67.5137 62.2457 67.3111 62.211 67.1377 62.1417C66.9671 62.0697 66.8257 61.9697 66.7137 61.8417C66.6044 61.711 66.5217 61.555 66.4657 61.3737C66.4124 61.1923 66.3857 60.991 66.3857 60.7697C66.3857 60.4737 66.4337 60.2163 66.5297 59.9977C66.6284 59.779 66.7777 59.6097 66.9777 59.4897C67.1804 59.367 67.4377 59.3057 67.7497 59.3057C68.0591 59.3057 68.3137 59.367 68.5137 59.4897C68.7137 59.6097 68.8617 59.7803 68.9577 60.0017C69.0564 60.2203 69.1057 60.4777 69.1057 60.7737ZM67.0217 60.7737C67.0217 60.9737 67.0471 61.1457 67.0977 61.2897C67.1484 61.4337 67.2271 61.5443 67.3337 61.6217C67.4404 61.699 67.5777 61.7377 67.7457 61.7377C67.9191 61.7377 68.0577 61.699 68.1617 61.6217C68.2684 61.5443 68.3457 61.4337 68.3937 61.2897C68.4444 61.1457 68.4697 60.9737 68.4697 60.7737C68.4697 60.4723 68.4137 60.2363 68.3017 60.0657C68.1897 59.895 68.0057 59.8097 67.7497 59.8097C67.5791 59.8097 67.4404 59.8483 67.3337 59.9257C67.2271 60.003 67.1484 60.1137 67.0977 60.2577C67.0471 60.4017 67.0217 60.5737 67.0217 60.7737Z" fill="#F3B817"/>
<path d="M64.7051 59.3497C64.9638 59.3497 65.1771 59.3817 65.3451 59.4457C65.5131 59.507 65.6384 59.6017 65.7211 59.7297C65.8038 59.855 65.8451 60.0137 65.8451 60.2057C65.8451 60.3363 65.8198 60.451 65.7691 60.5497C65.7211 60.6457 65.6558 60.7283 65.5731 60.7977C65.4931 60.8643 65.4064 60.919 65.3131 60.9617L66.1531 62.2057H65.4811L64.8011 61.1097H64.4771V62.2057H63.8731V59.3497H64.7051ZM64.6611 59.8457H64.4771V60.6177H64.6731C64.8064 60.6177 64.9144 60.603 64.9971 60.5737C65.0798 60.5443 65.1398 60.5003 65.1771 60.4417C65.2144 60.3803 65.2331 60.307 65.2331 60.2217C65.2331 60.131 65.2118 60.059 65.1691 60.0057C65.1291 59.9497 65.0664 59.9097 64.9811 59.8857C64.8984 59.859 64.7918 59.8457 64.6611 59.8457Z" fill="#F3B817"/>
<path d="M62.2738 62.2057H61.6778V59.3497H63.3138V59.8457H62.2738V60.5817H63.2418V61.0777H62.2738V62.2057Z" fill="#F3B817"/>
<path d="M59.3934 62.2057H58.6254L57.3814 60.0457H57.3654C57.3681 60.1123 57.3707 60.1803 57.3734 60.2497C57.3761 60.3163 57.3787 60.3843 57.3814 60.4537C57.3867 60.5203 57.3907 60.5883 57.3934 60.6577C57.3961 60.7243 57.3987 60.7923 57.4014 60.8617V62.2057H56.8614V59.3497H57.6254L58.8654 61.4897H58.8774C58.8747 61.423 58.8721 61.3577 58.8694 61.2937C58.8667 61.227 58.8641 61.1617 58.8614 61.0977C58.8614 61.031 58.8601 60.9657 58.8574 60.9017C58.8547 60.835 58.8521 60.7683 58.8494 60.7017V59.3497H59.3934V62.2057Z" fill="#F3B817"/>
<path d="M56.3747 62.2057H55.0747V61.8617L55.4227 61.7017V59.8537L55.0747 59.6937V59.3497H56.3747V59.6937L56.0267 59.8537V61.7017L56.3747 61.8617V62.2057Z" fill="#F3B817"/>
<path d="M54.7876 61.4137C54.7876 61.5817 54.7462 61.7283 54.6636 61.8537C54.5809 61.979 54.4609 62.0763 54.3036 62.1457C54.1489 62.2123 53.9596 62.2457 53.7356 62.2457C53.6369 62.2457 53.5396 62.239 53.4436 62.2257C53.3502 62.2123 53.2596 62.1937 53.1716 62.1697C53.0862 62.143 53.0049 62.111 52.9276 62.0737V61.5097C53.0636 61.5683 53.2036 61.623 53.3476 61.6737C53.4942 61.7217 53.6396 61.7457 53.7836 61.7457C53.8822 61.7457 53.9609 61.7323 54.0196 61.7057C54.0809 61.679 54.1249 61.643 54.1516 61.5977C54.1809 61.5523 54.1956 61.5003 54.1956 61.4417C54.1956 61.3697 54.1702 61.3083 54.1196 61.2577C54.0716 61.207 54.0062 61.1603 53.9236 61.1177C53.8409 61.0723 53.7462 61.0243 53.6396 60.9737C53.5729 60.9417 53.5009 60.9043 53.4236 60.8617C53.3462 60.8163 53.2716 60.7617 53.1996 60.6977C53.1302 60.631 53.0729 60.551 53.0276 60.4577C52.9822 60.3643 52.9596 60.2523 52.9596 60.1217C52.9596 59.951 52.9982 59.8057 53.0756 59.6857C53.1556 59.563 53.2676 59.4697 53.4116 59.4057C53.5582 59.3417 53.7302 59.3097 53.9276 59.3097C54.0769 59.3097 54.2182 59.327 54.3516 59.3617C54.4876 59.3963 54.6289 59.4457 54.7756 59.5097L54.5796 59.9817C54.4489 59.9283 54.3316 59.887 54.2276 59.8577C54.1236 59.8283 54.0169 59.8137 53.9076 59.8137C53.8329 59.8137 53.7689 59.8257 53.7156 59.8497C53.6622 59.8737 53.6209 59.907 53.5916 59.9497C53.5649 59.9923 53.5516 60.043 53.5516 60.1017C53.5516 60.1683 53.5716 60.2257 53.6116 60.2737C53.6516 60.319 53.7116 60.363 53.7916 60.4057C53.8716 60.4483 53.9716 60.499 54.0916 60.5577C54.2382 60.627 54.3622 60.699 54.4636 60.7737C54.5676 60.8483 54.6476 60.9363 54.7036 61.0377C54.7596 61.139 54.7876 61.2643 54.7876 61.4137Z" fill="#F3B817"/>
<path d="M50.5274 62.2057L50.3194 61.5257H49.2794L49.0714 62.2057H48.4194L49.4274 59.3377H50.1674L51.1794 62.2057H50.5274ZM49.9674 60.3537C49.954 60.3083 49.9367 60.251 49.9154 60.1817C49.894 60.1123 49.8727 60.0417 49.8514 59.9697C49.83 59.8977 49.8127 59.835 49.7994 59.7817C49.786 59.835 49.7674 59.9017 49.7434 59.9817C49.722 60.059 49.7007 60.1337 49.6794 60.2057C49.6607 60.275 49.646 60.3243 49.6354 60.3537L49.4314 61.0177H50.1754L49.9674 60.3537Z" fill="#F3B817"/>
<path d="M47.4445 59.8137C47.3298 59.8137 47.2272 59.8363 47.1365 59.8817C47.0485 59.927 46.9738 59.9923 46.9125 60.0777C46.8512 60.1603 46.8045 60.2617 46.7725 60.3817C46.7432 60.5017 46.7285 60.6363 46.7285 60.7857C46.7285 60.9883 46.7525 61.1617 46.8005 61.3057C46.8512 61.447 46.9298 61.555 47.0365 61.6297C47.1432 61.7043 47.2792 61.7417 47.4445 61.7417C47.5618 61.7417 47.6778 61.7283 47.7925 61.7017C47.9098 61.675 48.0365 61.6377 48.1725 61.5897V62.0977C48.0472 62.1483 47.9232 62.1857 47.8005 62.2097C47.6778 62.2337 47.5405 62.2457 47.3885 62.2457C47.0952 62.2457 46.8525 62.1857 46.6605 62.0657C46.4712 61.943 46.3312 61.7723 46.2405 61.5537C46.1498 61.3323 46.1045 61.075 46.1045 60.7817C46.1045 60.5657 46.1338 60.3683 46.1925 60.1897C46.2512 60.0083 46.3365 59.8523 46.4485 59.7217C46.5632 59.591 46.7032 59.4897 46.8685 59.4177C47.0365 59.3457 47.2285 59.3097 47.4445 59.3097C47.5858 59.3097 47.7272 59.3283 47.8685 59.3657C48.0125 59.4003 48.1498 59.4483 48.2805 59.5097L48.0845 60.0017C47.9778 59.951 47.8698 59.907 47.7605 59.8697C47.6538 59.8323 47.5485 59.8137 47.4445 59.8137Z" fill="#F3B817"/>
<path d="M45.7458 62.2057H44.4458V61.8617L44.7938 61.7017V59.8537L44.4458 59.6937V59.3497H45.7458V59.6937L45.3978 59.8537V61.7017L45.7458 61.8617V62.2057Z" fill="#F3B817"/>
<path d="M42.8692 59.3497C43.1278 59.3497 43.3412 59.3817 43.5092 59.4457C43.6772 59.507 43.8025 59.6017 43.8852 59.7297C43.9678 59.855 44.0092 60.0137 44.0092 60.2057C44.0092 60.3363 43.9838 60.451 43.9332 60.5497C43.8852 60.6457 43.8198 60.7283 43.7372 60.7977C43.6572 60.8643 43.5705 60.919 43.4772 60.9617L44.3172 62.2057H43.6452L42.9652 61.1097H42.6412V62.2057H42.0372V59.3497H42.8692ZM42.8252 59.8457H42.6412V60.6177H42.8372C42.9705 60.6177 43.0785 60.603 43.1612 60.5737C43.2438 60.5443 43.3038 60.5003 43.3412 60.4417C43.3785 60.3803 43.3972 60.307 43.3972 60.2217C43.3972 60.131 43.3758 60.059 43.3332 60.0057C43.2932 59.9497 43.2305 59.9097 43.1452 59.8857C43.0625 59.859 42.9558 59.8457 42.8252 59.8457Z" fill="#F3B817"/>
<path d="M41.4429 62.2057H39.7989V59.3497H41.4429V59.8457H40.4029V60.4737H41.3709V60.9697H40.4029V61.7057H41.4429V62.2057Z" fill="#F3B817"/>
<path d="M37.2335 62.2057L36.5455 59.9657H36.5295C36.5321 60.019 36.5361 60.099 36.5415 60.2057C36.5468 60.3123 36.5521 60.427 36.5575 60.5497C36.5628 60.6697 36.5655 60.779 36.5655 60.8777V62.2057H36.0255V59.3497H36.8495L37.5255 61.5337H37.5375L38.2535 59.3497H39.0775V62.2057H38.5135V60.8537C38.5135 60.763 38.5148 60.659 38.5175 60.5417C38.5228 60.4243 38.5268 60.3137 38.5295 60.2097C38.5348 60.103 38.5388 60.023 38.5415 59.9697H38.5255L37.7895 62.2057H37.2335Z" fill="#F3B817"/>
<path d="M35.0117 62.2057L34.8037 61.5257H33.7637L33.5557 62.2057H32.9037L33.9117 59.3377H34.6517L35.6637 62.2057H35.0117ZM34.4517 60.3537C34.4384 60.3083 34.4211 60.251 34.3997 60.1817C34.3784 60.1123 34.3571 60.0417 34.3357 59.9697C34.3144 59.8977 34.2971 59.835 34.2837 59.7817C34.2704 59.835 34.2517 59.9017 34.2277 59.9817C34.2064 60.059 34.1851 60.1337 34.1637 60.2057C34.1451 60.275 34.1304 60.3243 34.1197 60.3537L33.9157 61.0177H34.6597L34.4517 60.3537Z" fill="#F3B817"/>
<path d="M32.7503 60.7737C32.7503 60.995 32.7223 61.1963 32.6663 61.3777C32.6129 61.5563 32.5303 61.711 32.4183 61.8417C32.3089 61.9723 32.1676 62.0723 31.9943 62.1417C31.8236 62.211 31.6223 62.2457 31.3903 62.2457C31.1583 62.2457 30.9556 62.211 30.7823 62.1417C30.6116 62.0697 30.4703 61.9697 30.3583 61.8417C30.2489 61.711 30.1663 61.555 30.1103 61.3737C30.0569 61.1923 30.0303 60.991 30.0303 60.7697C30.0303 60.4737 30.0783 60.2163 30.1743 59.9977C30.2729 59.779 30.4223 59.6097 30.6223 59.4897C30.8249 59.367 31.0823 59.3057 31.3943 59.3057C31.7036 59.3057 31.9583 59.367 32.1583 59.4897C32.3583 59.6097 32.5063 59.7803 32.6023 60.0017C32.7009 60.2203 32.7503 60.4777 32.7503 60.7737ZM30.6663 60.7737C30.6663 60.9737 30.6916 61.1457 30.7423 61.2897C30.7929 61.4337 30.8716 61.5443 30.9783 61.6217C31.0849 61.699 31.2223 61.7377 31.3903 61.7377C31.5636 61.7377 31.7023 61.699 31.8063 61.6217C31.9129 61.5443 31.9903 61.4337 32.0383 61.2897C32.0889 61.1457 32.1143 60.9737 32.1143 60.7737C32.1143 60.4723 32.0583 60.2363 31.9463 60.0657C31.8343 59.895 31.6503 59.8097 31.3943 59.8097C31.2236 59.8097 31.0849 59.8483 30.9783 59.9257C30.8716 60.003 30.7929 60.1137 30.7423 60.2577C30.6916 60.4017 30.6663 60.5737 30.6663 60.7737Z" fill="#F3B817"/>
<path d="M28.3496 59.3497C28.6083 59.3497 28.8216 59.3817 28.9896 59.4457C29.1576 59.507 29.283 59.6017 29.3656 59.7297C29.4483 59.855 29.4896 60.0137 29.4896 60.2057C29.4896 60.3363 29.4643 60.451 29.4136 60.5497C29.3656 60.6457 29.3003 60.7283 29.2176 60.7977C29.1376 60.8643 29.051 60.919 28.9576 60.9617L29.7976 62.2057H29.1256L28.4456 61.1097H28.1216V62.2057H27.5176V59.3497H28.3496ZM28.3056 59.8457H28.1216V60.6177H28.3176C28.451 60.6177 28.559 60.603 28.6416 60.5737C28.7243 60.5443 28.7843 60.5003 28.8216 60.4417C28.859 60.3803 28.8776 60.307 28.8776 60.2217C28.8776 60.131 28.8563 60.059 28.8136 60.0057C28.7736 59.9497 28.711 59.9097 28.6256 59.8857C28.543 59.859 28.4363 59.8457 28.3056 59.8457Z" fill="#F3B817"/>
<path d="M26.3012 62.2057H25.6972V59.8537H24.9212V59.3497H27.0772V59.8537H26.3012V62.2057Z" fill="#F3B817"/>
<path d="M24.4793 62.2057H23.7113L22.4673 60.0457H22.4513C22.454 60.1123 22.4567 60.1803 22.4593 60.2497C22.462 60.3163 22.4647 60.3843 22.4673 60.4537C22.4727 60.5203 22.4767 60.5883 22.4793 60.6577C22.482 60.7243 22.4847 60.7923 22.4873 60.8617V62.2057H21.9473V59.3497H22.7113L23.9513 61.4897H23.9633C23.9607 61.423 23.958 61.3577 23.9553 61.2937C23.9527 61.227 23.95 61.1617 23.9473 61.0977C23.9473 61.031 23.946 60.9657 23.9433 60.9017C23.9407 60.835 23.938 60.7683 23.9353 60.7017V59.3497H24.4793V62.2057Z" fill="#F3B817"/>
<path d="M21.3531 62.2057H19.7091V59.3497H21.3531V59.8457H20.3131V60.4737H21.2811V60.9697H20.3131V61.7057H21.3531V62.2057Z" fill="#F3B817"/>
<path d="M18.3742 59.8137C18.2595 59.8137 18.1568 59.8363 18.0662 59.8817C17.9782 59.927 17.9035 59.9923 17.8422 60.0777C17.7808 60.1603 17.7342 60.2617 17.7022 60.3817C17.6728 60.5017 17.6582 60.6363 17.6582 60.7857C17.6582 60.9883 17.6822 61.1617 17.7302 61.3057C17.7808 61.447 17.8595 61.555 17.9662 61.6297C18.0728 61.7043 18.2088 61.7417 18.3742 61.7417C18.4915 61.7417 18.6075 61.7283 18.7222 61.7017C18.8395 61.675 18.9662 61.6377 19.1022 61.5897V62.0977C18.9768 62.1483 18.8528 62.1857 18.7302 62.2097C18.6075 62.2337 18.4702 62.2457 18.3182 62.2457C18.0248 62.2457 17.7822 62.1857 17.5902 62.0657C17.4008 61.943 17.2608 61.7723 17.1702 61.5537C17.0795 61.3323 17.0342 61.075 17.0342 60.7817C17.0342 60.5657 17.0635 60.3683 17.1222 60.1897C17.1808 60.0083 17.2662 59.8523 17.3782 59.7217C17.4928 59.591 17.6328 59.4897 17.7982 59.4177C17.9662 59.3457 18.1582 59.3097 18.3742 59.3097C18.5155 59.3097 18.6568 59.3283 18.7982 59.3657C18.9422 59.4003 19.0795 59.4483 19.2102 59.5097L19.0142 60.0017C18.9075 59.951 18.7995 59.907 18.6902 59.8697C18.5835 59.8323 18.4782 59.8137 18.3742 59.8137Z" fill="#F3B817"/>
<path d="M71.1737 88.3966L70.6537 86.6966H68.0537L67.5337 88.3966H65.9037L68.4237 81.2266H70.2737L72.8037 88.3966H71.1737ZM69.7737 83.7666C69.7404 83.6532 69.697 83.5099 69.6437 83.3366C69.5904 83.1632 69.537 82.9866 69.4837 82.8066C69.4304 82.6266 69.387 82.4699 69.3537 82.3366C69.3204 82.4699 69.2737 82.6366 69.2137 82.8366C69.1604 83.0299 69.107 83.2166 69.0537 83.3966C69.007 83.5699 68.9704 83.6932 68.9437 83.7666L68.4337 85.4266H70.2937L69.7737 83.7666Z" fill="#F3B817"/>
<path d="M60.3901 88.3966L58.6701 82.7966H58.6301C58.6368 82.9299 58.6468 83.1299 58.6601 83.3966C58.6735 83.6632 58.6868 83.9499 58.7001 84.2566C58.7134 84.5566 58.7201 84.8299 58.7201 85.0766V88.3966H57.3701V81.2566H59.4301L61.1201 86.7166H61.1501L62.9401 81.2566H65.0001V88.3966H63.5901V85.0166C63.5901 84.7899 63.5935 84.5299 63.6001 84.2366C63.6135 83.9432 63.6235 83.6666 63.6301 83.4066C63.6435 83.1399 63.6535 82.9399 63.6601 82.8066H63.6201L61.7801 88.3966H60.3901Z" fill="#F3B817"/>
<path d="M54.8358 88.3966L54.3158 86.6966H51.7158L51.1958 88.3966H49.5658L52.0858 81.2266H53.9358L56.4658 88.3966H54.8358ZM53.4358 83.7666C53.4025 83.6532 53.3592 83.5099 53.3058 83.3366C53.2525 83.1632 53.1992 82.9866 53.1458 82.8066C53.0925 82.6266 53.0492 82.4699 53.0158 82.3366C52.9825 82.4699 52.9358 82.6366 52.8758 82.8366C52.8225 83.0299 52.7692 83.2166 52.7158 83.3966C52.6692 83.5699 52.6325 83.6932 52.6058 83.7666L52.0958 85.4266H53.9558L53.4358 83.7666Z" fill="#F3B817"/>
<path d="M48.6611 88.3966H46.7411L43.6311 82.9966H43.5911C43.5977 83.1632 43.6044 83.3332 43.6111 83.5066C43.6177 83.6732 43.6244 83.8432 43.6311 84.0166C43.6444 84.1832 43.6544 84.3532 43.6611 84.5266C43.6677 84.6932 43.6744 84.8632 43.6811 85.0366V88.3966H42.3311V81.2566H44.2411L47.3411 86.6066H47.3711C47.3644 86.4399 47.3577 86.2766 47.3511 86.1166C47.3444 85.9499 47.3377 85.7866 47.3311 85.6266C47.3311 85.4599 47.3277 85.2966 47.3211 85.1366C47.3144 84.9699 47.3077 84.8032 47.3011 84.6366V81.2566H48.6611V88.3966Z" fill="#F3B817"/>
<path d="M39.7968 88.3966L39.2768 86.6966H36.6768L36.1568 88.3966H34.5268L37.0468 81.2266H38.8968L41.4268 88.3966H39.7968ZM38.3968 83.7666C38.3634 83.6532 38.3201 83.5099 38.2668 83.3366C38.2134 83.1632 38.1601 82.9866 38.1068 82.8066C38.0534 82.6266 38.0101 82.4699 37.9768 82.3366C37.9434 82.4699 37.8968 82.6366 37.8368 82.8366C37.7834 83.0299 37.7301 83.2166 37.6768 83.3966C37.6301 83.5699 37.5934 83.6932 37.5668 83.7666L37.0568 85.4266H38.9168L38.3968 83.7666Z" fill="#F3B817"/>
<path d="M31.9255 81.2566C32.8455 81.2566 33.5155 81.4566 33.9355 81.8566C34.3622 82.2499 34.5755 82.7932 34.5755 83.4866C34.5755 83.7999 34.5288 84.0999 34.4355 84.3866C34.3422 84.6666 34.1855 84.9199 33.9655 85.1466C33.7522 85.3666 33.4688 85.5399 33.1155 85.6666C32.7622 85.7932 32.3255 85.8566 31.8055 85.8566H31.1555V88.3966H29.6455V81.2566H31.9255ZM31.8455 82.4966H31.1555V84.6166H31.6555C31.9422 84.6166 32.1888 84.5799 32.3955 84.5066C32.6022 84.4332 32.7622 84.3166 32.8755 84.1566C32.9888 83.9966 33.0455 83.7899 33.0455 83.5366C33.0455 83.1832 32.9488 82.9232 32.7555 82.7566C32.5622 82.5832 32.2588 82.4966 31.8455 82.4966Z" fill="#F3B817"/>
</svg>
